<svg id="b28cc132-5f68-4f73-85e6-b783a8492b2e" data-name="Layer 1" xmlns="http://www.w3.org/2000/svg" viewBox="0 0 566.93 566.93"><defs><style>.b5874b19-653e-45d5-b130-768e9290da4a{fill:#494344;}.f255d82e-bdd8-4681-a350-acebc6041d70{fill:#fccf0c;}.a546f31e-90e8-4d2b-a860-fae4acefbea4{fill:none;stroke:#fff;stroke-miterlimit:10;stroke-width:6.59px;}</style></defs><title>MVP_Journey</title><path class="b5874b19-653e-45d5-b130-768e9290da4a" d="M333.23,348.54a90.91,90.91,0,0,0-7.5,5.51c-2,1.84-4.62,3.83-5.34,6.23a10.57,10.57,0,0,0,.29,5.13c-1.31.23-2.63.51-3.94.83-7.35,1.8-7.88,11.7-1.16,15.68,4.21,2.49,5.75,4.8,3.69,9.26a5.33,5.33,0,0,0,0,2.6c1.34,9.78,1.36,9.78-8.34,11.19-1.52.22-3.07.21-4.59.42-8.43,1.22-10.88,4-8.44,12.43,4.38,15.15-4.72,26.55-10,38.91-2,4.57-18.09,5.44-21.41,1.58-1.26-1.46-1.15-4.49-.9-6.73.46-4.27.69-8.24-1.44-11.47,2.11-.68,3.69-1.64,4.23-2.9,5.3-12.36,14.41-23.76,10-38.91-2.44-8.42,0-11.2,8.45-12.41,1.51-.23,3.07-.22,4.58-.44,9.7-1.4,9.69-1.41,8.36-11.19a5.06,5.06,0,0,1,0-2.59c2-4.47.5-6.78-3.7-9.27-6.72-4-6.18-13.87,1.17-15.68,9.27-2.27,19.14-2.31,28.78-2.69C328.08,344,330.23,346.58,333.23,348.54Z"/><path class="b5874b19-653e-45d5-b130-768e9290da4a" d="M494.52,297.49c-1.12,1.8-2.88,4-2.61,5.74.94,6.26-2,9.27-7.38,11.31-5,1.9-9.36,1.55-13.31-2.25a20.79,20.79,0,0,0-3.25-2.06c-2.58,6.89-6.94,8.28-14.31,7.75-6.35-.46-12.92,4.22-19.61,5.53-4.7.94-9.83-.44-14.66.08-6.54.7-8-4-10.28-8.21-1.62-3-3.61-4.41-7.5-3-3.72,1.3-7.87,1.37-12.61,2.09,0,8.83.47,18.78-.19,28.64-.38,5.55-2.34,11.06-4.16,16.39-2,5.81-2.35,10.77,4.14,13.66-3.06,10.49-7.78,11.71-17.24,12.92-7.26.94-12.72.31-18.67-3.05-.87-.49-3.1,1.58-4.77,2.29-2.37,1-4.83,1.82-7.25,2.73-.4-2.77-1.67-5.79-.95-8.21s3.28-4.39,5.34-6.24a89.37,89.37,0,0,1,7.5-5.5c-.68-.45-1.32-.93-1.91-1.39l1.19-.14c9.47-1.22,14.18-2.44,17.24-12.92-6.48-2.9-6.11-7.84-4.14-13.66,1.82-5.33,3.79-10.85,4.17-16.38.66-9.87.18-19.82.18-28.65,4.75-.73,8.9-.78,12.61-2.1,3.89-1.37,5.88.07,7.5,3.05,2.3,4.19,3.74,8.92,10.28,8.21,4.85-.53,10,.85,14.67-.08,6.68-1.32,13.26-6,19.61-5.54,7.36.54,11.74-.85,14.31-7.75a21.1,21.1,0,0,1,3.24,2.06c3.95,3.81,8.29,4.15,13.31,2.25,5.4-2,8.33-5,7.38-11.3-.26-1.76,1.49-3.94,2.61-5.75,4-6.36,3.56-8.43-2.62-12.54-1.22-.82-2-2.27-3-3.37l-3.8-4c5.6,4.36,10,9.66,14.85,14.67,2.84,2.92,5.66,5.88,8.45,8.84,1,1.1,1.82,2.54,3,3.36C498.07,289.05,498.51,291.12,494.52,297.49Z"/><path class="b5874b19-653e-45d5-b130-768e9290da4a" d="M245.07,421.29c-9.25.6-15.09,4.83-17.28,14.74-1,4.68-4.5,8.93-7.39,13-.9,1.26-3.68,2-5.31,1.7s-3.2-2.16-4.48-3.61c-6.92-7.77-6.88-7.79-15.38-2a4.59,4.59,0,0,1-2.33,1c-7.42-.31-14.84-.74-22.33-1.15-1.29,8-2.67,8.66-10.17,3.75-5.11-3.36-10.28-6.67-15.11-10.4-1.4-1.05-2.68-3.62-2.42-5.23.14-.81.27-1.61.39-2.41,5.44,3.19,6.65,1.88,7.8-5.22,7.5.41,14.9.83,22.32,1.14a4.44,4.44,0,0,0,2.33-1c8.5-5.77,8.46-5.74,15.38,2,1.28,1.45,2.81,3.27,4.48,3.61s4.42-.43,5.31-1.7c2.89-4.08,6.36-8.34,7.4-13,2.25-10.2,8.39-14.39,18.14-14.78.21,0,.42-.1.64-.14,6-1.18,10,2,10.8,8.16.33,2.46.8,6.1,2.43,7A11.4,11.4,0,0,1,245.07,421.29Z"/><path class="f255d82e-bdd8-4681-a350-acebc6041d70" d="M475,278c-1.12,1.81-2.87,4-2.61,5.75.95,6.26-2,9.26-7.38,11.3-5,1.9-9.36,1.56-13.31-2.25a21.1,21.1,0,0,0-3.24-2.06c-2.57,6.9-6.95,8.29-14.31,7.75-6.35-.46-12.93,4.22-19.61,5.54-4.71.93-9.82-.45-14.67.08-6.54.71-8-4-10.28-8.21-1.62-3-3.61-4.42-7.5-3.05-3.71,1.32-7.86,1.37-12.61,2.1,0,8.83.48,18.78-.18,28.65-.38,5.53-2.35,11.05-4.17,16.38-2,5.82-2.34,10.76,4.14,13.66-3.06,10.48-7.77,11.7-17.24,12.92l-1.19.14c-2.06-1.62-3.72-3.19-5.3-3.12-3.73.14-7.5.24-11.26.43-1,.06-2,.11-3,.19a93.36,93.36,0,0,0-10.61,1.24,10.57,10.57,0,0,1-.29-5.13c.72-2.4,3.3-4.39,5.34-6.23a90.91,90.91,0,0,1,7.5-5.51c-3-2-5.15-4.59-7.21-4.51-9.64.38-19.51.42-28.78,2.69-7.35,1.81-7.89,11.7-1.17,15.68,4.2,2.49,5.74,4.8,3.7,9.27a5.06,5.06,0,0,0,0,2.59c1.33,9.78,1.34,9.79-8.36,11.19-1.51.22-3.07.21-4.58.44-8.44,1.21-10.89,4-8.45,12.41,4.39,15.15-4.72,26.55-10,38.91-.54,1.26-2.12,2.22-4.23,2.9a11.85,11.85,0,0,0-4.36-3.85c-1.62-.89-2.11-4.53-2.42-7-.81-6.16-4.81-9.35-10.81-8.16a4.53,4.53,0,0,1-.64.13l-.86.05a11.4,11.4,0,0,0-4.78-4.54c-1.63-.9-2.1-4.54-2.43-7-.8-6.14-4.81-9.34-10.8-8.16-.22,0-.43.12-.64.14-9.75.39-15.89,4.58-18.14,14.78-1,4.68-4.51,8.94-7.4,13-.89,1.27-3.67,2-5.31,1.7s-3.2-2.16-4.48-3.61c-6.92-7.76-6.88-7.79-15.38-2a4.44,4.44,0,0,1-2.33,1c-7.42-.31-14.82-.73-22.32-1.14-1.15,7.1-2.36,8.41-7.8,5.22a235.43,235.43,0,0,1,4.7-23.09,285.47,285.47,0,0,1,9.17-28.35c2.72-7.06,1.74-13.06-3.58-17.91-4.11-3.75-9-6.52-14.69-6.07a15.58,15.58,0,0,0-2.47.38c-4,.94-7.91,2.25-11.89,3.22-4.71,1.13-5.94-1.93-5.78-5.6.25-5.86,1.17-11.71,1.28-17.54,0-.89,0-1.78,0-2.68a33,33,0,0,0-3.28-13.52c-.82-1.63-5.26-1.45-8.43-2.19a19.15,19.15,0,0,1,.81-2.71c3.72-8.55,3.18-18.66-4.06-23.13-5-3.08-8.58-6.93-12.12-11-1.73-1.95-2.78-6-2-8.39,2.85-8.41,3.31-16.42.49-25-1.87-5.68-2-11.93-3-17.9-.69-4.1-2.69-6.49-7.32-6.85-5.4-.42-12-8.66-11.24-14a6.79,6.79,0,0,1,3.72-4.63c6.11-2.09,11.94-3.26,16.88,3.47,2.63,3.58,7.17,6.16,11.36,8,2.28,1,5.84-.05,8.48-1.07s4.34-1.71,6.54,1.32c2.44,3.37,6.06,5.89,9.19,8.78l3-1.56c-.44-3.35-1-6.68-1.33-10-.74-6.81-6.28-12.11-5.2-19.79.66-4.7-1-10.12-2.84-14.69-2-5-6.8-5.54-11.55-3.59-4.43-6.53-3.42-9.1,3.42-10.72,1.94-.47,3.5-2.55,5.83-4.35,5.73,4.79,7.55,1.54,6.94-5.64,2.51.89,4.4,1.58,6.86,2.46.47-2.56.88-4.76,1.27-7,.57-.26,1.12-.51,1.68-.78a53.11,53.11,0,0,0,3.15,6.37c.92,1.38,2.5,2.34,3.78,3.48,1-1.39,3-2.77,3-4.15,0-4.13-1.05-8.24-1.09-12.37,0-3.08.87-6.18,1.36-9.27.88,0,1.78.08,2.66.1.65,3.09,1.74,6.16,1.83,9.25.36,10.87,8.51,10.74,15.84,7.24,2.32-1.11,5.05-1.36,7.42-2.4,4-1.77,8-3.7,11.82-5.83,8.3-4.57,16.54-9.27,24.76-14,2.24-1.29,4.27-3,6.57-4.19a111.74,111.74,0,0,1,10.31-4.73c1.58-.62,3.89,0,5.05-1,7.08-5.81,15.29-1.92,22.9-2.74,2.09-.22,4.71,2.72,6.76,4.56,2.4,2.15,4.46,4.71,7.17,7.65,7.25-7.37,15.42-11.35,25.5-10.55a7,7,0,0,0,4.85-1.72c6.68-6.59,15.78-5.88,23.88-8.07,1.67-.45,3.82.44,5.63,1.07a7.58,7.58,0,0,1,1.09.49c1.65.85,3.19,2.13,4.84,2.2,13.31.51,14.1,10.08,14.89,19.84.17,2.18.54,4.34.91,6.74.1.7.21,1.41.31,2.14a12,12,0,0,1,1.6-.28,5.45,5.45,0,0,1,4.07.8c1.54,1,2.53,3,3.8,5.44a17.28,17.28,0,0,0,1.17,2c3.29,5,8.58,9.09,13.22,14.05,4.54-6.91,8.88-12.19,16.76-11.06,2.29.32,4.39,1.91,6.57,2.93-1.34,2.84-2.54,5.77-4.12,8.47-.41.7-2,1.06-3,1-9.67-.54-11.61,6.33-13.68,13.59s-2.41,14.34,1.63,21.24a13.16,13.16,0,0,1,1.51,6.87c0,.42,0,.84,0,1.25,0,7.79,3.08,11.89,11,14.71,2,.7,3.66,2.14,5.45,3.29.71.46,1.35,1.52,2,1.52q12.62,0,25.21-.2h.5a62.1,62.1,0,0,0,6.77-.89c.17,1.53.63,3.17.73,4.69a5.85,5.85,0,0,1-.15,2c-1.12,4.16-.41,6.55,4,8,2.34.8,4.15,3.08,6.26,4.6,1.92,1.38,3.78,3.37,5.93,3.78,5.84,1.1,9.49,5.4,14,8.06a44.64,44.64,0,0,1,5,3.44l3.8,4c1,1.1,1.8,2.55,3,3.37C478.56,269.54,479,271.61,475,278Z"/><path class="a546f31e-90e8-4d2b-a860-fae4acefbea4" d="M108.29,317.38a21.46,21.46,0,0,1,.82-2.72c3.72-8.56,3.18-18.66-4.06-23.13-5-3.08-8.57-6.94-12.13-11-1.72-1.95-2.77-6-2-8.4,2.84-8.41,3.3-16.42.48-25-1.87-5.68-2-11.92-3-17.9-.68-4.1-2.69-6.49-7.31-6.85-5.4-.43-12-8.66-11.24-14a6.85,6.85,0,0,1,3.71-4.63c6.12-2.09,11.94-3.26,16.89,3.47,2.63,3.57,7.16,6.16,11.36,8,2.28,1,5.84-.05,8.49-1.07s4.33-1.71,6.53,1.32c2.44,3.38,6.07,5.89,9.18,8.78l3-1.56c-.45-3.34-1-6.67-1.33-10-.73-6.82-6.28-12.11-5.2-19.8.66-4.71-1-10.12-2.83-14.69-2.06-5-6.81-5.53-11.56-3.59-4.43-6.54-3.42-9.11,3.42-10.72,1.94-.46,3.5-2.55,5.83-4.36,5.73,4.81,7.55,1.55,6.94-5.64l6.86,2.48c.47-2.56.87-4.77,1.28-7l1.67-.78a52.37,52.37,0,0,0,3.15,6.37c.92,1.38,2.49,2.34,3.78,3.48,1-1.39,3-2.77,3-4.16,0-4.12-1-8.23-1.08-12.36,0-3.08.86-6.18,1.35-9.27l2.66.11c.64,3.08,1.74,6.15,1.84,9.25.34,10.87,8.5,10.74,15.83,7.23,2.32-1.11,5.05-1.36,7.42-2.4,4-1.76,8-3.7,11.83-5.82,8.3-4.58,16.53-9.28,24.75-14,2.25-1.29,4.27-3,6.56-4.19a109.13,109.13,0,0,1,10.32-4.73c1.58-.63,3.89,0,5.05-1,7.08-5.8,15.29-1.93,22.9-2.74,2.09-.22,4.71,2.71,6.77,4.56,2.4,2.15,4.44,4.7,7.16,7.64,7.25-7.37,15.43-11.34,25.5-10.54a6.91,6.91,0,0,0,4.85-1.72c6.69-6.59,15.78-5.88,23.88-8.06,1.67-.45,3.82.43,5.63,1.06,2.05.72,3.92,2.61,5.93,2.69,13.3.51,14.1,10.08,14.89,19.85.22,2.8.76,5.58,1.23,8.87,5.68-1.41,7.11,1.42,9.46,6,3.09,6,9.15,10.44,14.39,16,4.54-6.91,8.88-12.19,16.76-11.06,2.29.32,4.39,1.92,6.57,2.93-1.34,2.84-2.54,5.77-4.12,8.47-.41.71-2,1.06-3,1-9.66-.53-11.6,6.32-13.67,13.58-2.11,7.41-2.42,14.35,1.64,21.26a13.29,13.29,0,0,1,1.5,6.86c-.32,8.61,2.64,13,11,16,2,.7,3.66,2.14,5.45,3.29.72.46,1.35,1.52,2,1.52q12.86,0,25.71-.22a57.8,57.8,0,0,0,6.77-.88c.24,2.24,1.13,4.64.58,6.66-1.12,4.16-.4,6.54,4,8,2.34.8,4.15,3.08,6.26,4.6,1.92,1.37,3.78,3.37,5.92,3.78,5.84,1.11,9.5,5.4,14.06,8.06,8.24,4.81,13.65,11.69,19.89,18.11q4.26,4.38,8.46,8.84c1,1.09,1.81,2.55,3,3.36,6.17,4.11,6.61,6.18,2.62,12.55-1.13,1.8-2.88,4-2.61,5.74.94,6.27-2,9.27-7.38,11.31-5,1.89-9.36,1.55-13.31-2.25a22,22,0,0,0-3.25-2.07c-2.57,6.9-6.94,8.29-14.31,7.76-6.35-.46-12.92,4.22-19.61,5.54-4.7.93-9.82-.46-14.66.07-6.54.71-8-4-10.28-8.21-1.62-3-3.62-4.41-7.5-3-3.72,1.31-7.87,1.37-12.61,2.09,0,8.83.48,18.78-.19,28.64-.38,5.54-2.34,11.06-4.16,16.4-2,5.81-2.35,10.76,4.14,13.65-3.06,10.48-7.78,11.71-17.24,12.93-7.26.93-12.71.3-18.67-3.06-.87-.5-3.09,1.58-4.77,2.29-2.38,1-4.83,1.82-7.25,2.72-.4-2.76-1.68-5.78-.95-8.2s3.29-4.39,5.34-6.24,4.42-3.28,7.49-5.51c-3-2-5.15-4.58-7.21-4.5-9.63.37-19.51.42-28.78,2.69-7.35,1.8-7.89,11.7-1.17,15.68,4.2,2.49,5.75,4.79,3.7,9.26a5.1,5.1,0,0,0,0,2.6c1.33,9.77,1.34,9.78-8.35,11.19-1.52.22-3.07.2-4.59.42-8.43,1.22-10.88,4-8.45,12.42,4.39,15.16-4.71,26.56-10,38.92-2,4.57-18.09,5.44-21.41,1.58-1.25-1.46-1.15-4.5-.9-6.73.68-6.17.82-11.68-5.8-15.32-1.62-.89-2.1-4.53-2.42-7-.8-6.15-4.81-9.34-10.8-8.16a5,5,0,0,1-.65.13c-9.74.4-15.88,4.58-18.14,14.79-1,4.68-4.5,8.94-7.39,13-.9,1.27-3.67,2-5.32,1.71s-3.19-2.17-4.48-3.61c-6.91-7.77-6.87-7.79-15.37-2a4.51,4.51,0,0,1-2.33,1c-7.42-.31-14.83-.74-22.33-1.14-1.29,8-2.68,8.65-10.17,3.73-5.11-3.36-10.27-6.67-15.12-10.38-1.38-1.07-2.67-3.63-2.41-5.25A255.93,255.93,0,0,1,148,407.63a287.26,287.26,0,0,1,9.17-28.35c2.72-7.06,1.75-13-3.58-17.91-4.69-4.28-10.34-7.27-17.16-5.68-4,.92-7.9,2.25-11.89,3.21-4.72,1.13-5.94-1.93-5.79-5.61.29-6.75,1.48-13.49,1.31-20.21a33,33,0,0,0-3.29-13.52C115.92,317.93,111.47,318.11,108.29,317.38Z"/></svg>