<?xml version="1.0" encoding="utf-8"?>
<!-- Generator: Adobe Illustrator 24.0.1, SVG Export Plug-In . SVG Version: 6.00 Build 0)  -->
<svg version="1.1" id="Layer_1" xmlns="http://www.w3.org/2000/svg" xmlns:xlink="http://www.w3.org/1999/xlink" x="0px" y="0px"
	 viewBox="0 0 210 322" style="enable-background:new 0 0 210 322;" xml:space="preserve">
<path d="M0,282c0-80.7,0-161.3,0-242C27.7,26.7,55.3,13.3,83,0c42.3,0,84.7,0,127,0c0,107.3,0,214.7,0,322c-42.7,0-85.3,0-128,0
	c-0.3-0.3-0.6-0.8-1-1C54,308,27,295,0,282z M88.4,209.8c0,34.5,0,68.2,0,102c37.5,0,74.7,0,112,0c0-34.1,0-67.8,0-102
	c-6.8,0-13.3,0.3-19.8-0.1c-4.3-0.2-7.5,1.2-10.7,4c-8.3,7.2-16.8,14.1-25.4,21.2c-9.2-7.6-18.1-15.1-27.1-22.4
	c-1.4-1.1-3.1-2.5-4.6-2.5C104.7,209.6,96.7,209.8,88.4,209.8z M200.5,127.5c-37.7,0-74.8,0-112.1,0c0,9.8,0,19.4,0,29.1
	c37.5,0,74.7,0,112.1,0C200.5,146.9,200.5,137.4,200.5,127.5z M88.4,49.8c0,9.8,0,19.4,0,28.9c37.5,0,74.7,0,112,0
	c0-9.8,0-19.2,0-28.9C163,49.8,125.8,49.8,88.4,49.8z M56.3,105.3c-1.4-4.1-2.3-8.4-4.4-12c-3.6-6.2-9.7-6.4-14.4-1.1
	c-5.6,6.3-6,18.4-0.8,25.1c4.9,6.3,11.9,6,15.8-0.9C54.3,113.2,54.9,109.3,56.3,105.3z M57.5,256.8c0-8.6,0-16.3,0-24.6
	c-7.4,1.8-14.4,3.8-21.5,5.1c-4.8,0.8-6.5,3-5.7,7.6c0.4,2.2-1.2,5.2,2.6,6C40.9,252.8,48.9,254.7,57.5,256.8z"/>
<path d="M101,303.1c0-10.1,0-19.8,0-30.1c28.9,0,57.7,0,86.8,0c0,9.9,0,19.8,0,30.1C159,303.1,130.3,303.1,101,303.1z"/>
<path d="M160.1,253.2c-0.1,8.5-7.1,15.6-15.6,15.7c-8.7,0.1-15.8-7.2-15.8-15.9c0.1-8.5,7.1-15.6,15.6-15.7
	C153,237.2,160.1,244.4,160.1,253.2z"/>
</svg>
