<svg version="1.2" xmlns="http://www.w3.org/2000/svg" viewBox="0 0 24 24" width="24" height="24">
	<title>check-double-svg</title>
	<style>
		.s0 { fill: #ffffff } 
	</style>
	<path id="Layer" fill-rule="evenodd" class="s0" d="m5.4 11.9c0.7 0.7 1.6 1.1 2.6 1.1 1 0 1.9-0.4 2.6-1.1l9.1-9.2c0.4-0.4 0.4-1 0-1.4-0.4-0.4-1-0.4-1.4 0l-9.1 9.2c-0.4 0.3-0.8 0.5-1.2 0.5-0.5 0-0.9-0.2-1.2-0.5l-4.1-4.2c-0.4-0.4-1-0.4-1.4 0-0.4 0.4-0.4 1 0 1.4zm18.3-4.6c-0.4-0.4-1-0.4-1.4 0l-13.1 13.1c-0.4 0.4-0.9 0.6-1.4 0.6-0.5 0-1-0.2-1.4-0.6l-4.7-4.6c-0.4-0.4-1-0.4-1.4 0-0.4 0.4-0.4 1 0 1.4l4.7 4.6c0.7 0.8 1.7 1.2 2.8 1.2 1.1 0 2.1-0.4 2.8-1.2l13.1-13.1c0.4-0.4 0.4-1 0-1.4z"/>
</svg>