<?xml version="1.0" standalone="no"?>
<!DOCTYPE svg PUBLIC "-//W3C//DTD SVG 20010904//EN"
 "http://www.w3.org/TR/2001/REC-SVG-20010904/DTD/svg10.dtd">
<svg version="1.0" xmlns="http://www.w3.org/2000/svg"
 width="512.000000pt" height="512.000000pt" viewBox="0 0 512.000000 512.000000"
 preserveAspectRatio="xMidYMid meet">

<g transform="translate(0.000000,512.000000) scale(0.100000,-0.100000)"
fill="#000000" stroke="none">
<path d="M2400 4070 c-481 -264 -885 -491 -897 -506 -21 -23 -23 -35 -23 -145
l0 -119 -596 0 -596 0 -29 -29 c-31 -31 -39 -83 -19 -122 27 -49 28 -49 655
-49 l585 0 0 -180 0 -180 -306 0 -306 0 -29 -29 c-31 -31 -39 -83 -19 -122 25
-45 51 -49 365 -49 l295 0 0 -260 0 -260 -430 0 c-467 0 -473 -1 -498 -55 -20
-44 -14 -75 22 -111 l34 -34 435 0 435 0 4 -125 c3 -109 6 -127 23 -144 11
-10 412 -234 890 -497 676 -371 878 -478 905 -478 28 0 220 102 905 478 479
263 879 486 890 497 19 19 20 33 20 290 l0 271 -28 24 c-38 33 -96 33 -134 0
l-28 -24 -3 -219 -3 -218 -697 -383 c-383 -210 -725 -398 -760 -417 l-62 -35
2 832 3 832 230 128 c127 70 233 127 238 127 4 1 7 -93 7 -208 0 -122 4 -221
11 -239 20 -58 87 -79 152 -46 134 68 380 210 392 228 12 17 15 71 15 302 l0
282 229 126 c126 69 232 126 235 126 3 0 6 -111 6 -248 0 -275 1 -281 66 -308
29 -12 39 -12 68 0 67 28 66 22 66 414 l0 354 -27 27 c-16 15 -203 123 -418
241 -214 117 -606 332 -870 477 -272 149 -490 263 -505 263 -14 0 -395 -203
-900 -480z m1653 -147 c408 -223 745 -409 750 -413 4 -3 -94 -62 -218 -130
-205 -111 -228 -122 -251 -111 -22 10 -573 311 -1277 699 -110 60 -200 112
-200 116 -2 8 422 245 441 245 7 1 347 -182 755 -406z m-660 -368 c411 -225
747 -412 747 -415 0 -3 -35 -24 -78 -47 l-79 -43 -474 261 c-261 143 -599 329
-751 412 -153 84 -278 154 -278 158 0 7 153 89 161 86 3 -1 342 -186 752 -412z
m-793 27 c179 -99 512 -281 740 -406 228 -126 419 -231 423 -235 7 -7 -443
-261 -463 -261 -7 0 -1498 816 -1508 825 -5 4 453 253 468 254 8 1 161 -79
340 -177z m-166 -658 c407 -224 747 -412 754 -418 9 -9 12 -185 10 -837 l-3
-825 -405 223 c-223 122 -564 309 -757 415 l-353 193 0 828 c0 455 3 827 6
827 4 0 340 -183 748 -406z m1816 -136 l0 -183 -79 -42 c-44 -24 -82 -43 -85
-43 -3 0 -6 80 -6 178 l0 178 83 46 c45 25 83 46 85 47 1 1 2 -81 2 -181z"/>
<path d="M439 2711 c-73 -74 0 -196 98 -164 15 5 38 25 51 44 30 43 24 84 -18
122 -42 38 -92 37 -131 -2z"/>
<path d="M4955 2538 c-56 -49 -40 -134 32 -164 31 -14 38 -13 71 3 98 48 69
183 -39 183 -25 0 -47 -8 -64 -22z"/>
<path d="M51 2006 c-59 -33 -67 -102 -17 -152 34 -34 34 -34 130 -34 137 0
176 24 176 105 0 27 -8 44 -29 66 -29 28 -32 29 -133 29 -66 -1 -112 -5 -127
-14z"/>
</g>
</svg>
