<?xml version="1.0" encoding="utf-8"?>
<!-- Generator: Adobe Illustrator 24.0.1, SVG Export Plug-In . SVG Version: 6.00 Build 0)  -->
<svg version="1.1" id="Layer_1" xmlns="http://www.w3.org/2000/svg" xmlns:xlink="http://www.w3.org/1999/xlink" x="0px" y="0px"
	 viewBox="0 0 320 450" style="enable-background:new 0 0 320 450;" xml:space="preserve">
<g>
	<path d="M29,0c87.3,0,174.7,0,262,0c0.9,0.4,1.8,0.8,2.7,1.1c15.1,4.2,25.2,16.9,25.4,32c0.2,15.7-9.3,28.5-24.6,33.1
		c-1.1,0.3-2.2,0.7-3.5,1.2c0,8.2,0,16.4,0,24.5c-0.2,30.8-11.5,56.7-34.1,77.6c-14.5,13.5-29.2,26.9-43.7,40.3
		c-8.9,8.2-8.9,22.2,0,30.4c14.5,13.3,28.9,26.7,43.4,40c23.1,21.2,34.5,47.6,34.5,78.9c0,7.8,0,15.6,0,23.5
		c1.3,0.4,2.4,0.8,3.5,1.2c15.3,4.7,24.8,17.4,24.6,33.1c-0.2,15.1-10.3,27.8-25.4,32c-0.9,0.3-1.8,0.7-2.7,1.1
		c-87.3,0-174.7,0-262,0c-1.2-0.4-2.4-1-3.6-1.3C10.7,444.3,1,431.4,0.9,416.4c-0.1-15.1,9.5-27.9,24.1-32.5c1.2-0.4,2.5-0.8,4-1.2
		c0-7.9,0-15.7,0-23.6c0-31.6,11.5-58,34.9-79.3c14.4-13.1,28.7-26.4,43-39.6c8.9-8.2,8.9-22.2,0-30.4c-14.4-13.3-28.9-26.7-43.4-40
		c-23-21.1-34.4-47.3-34.5-78.4c0-8,0-16,0-24.1c-1.5-0.5-2.7-0.9-4-1.3C11.5,61.9,1.8,50,1,36.6C0.1,21.4,7.9,8.5,21.6,2.7
		C24,1.7,26.5,0.9,29,0z M267.2,382c0-9.4,0.2-18.2,0-27c-0.6-22.5-9.3-41.3-25.7-56.6c-14.9-13.8-29.2-28.4-45-41.1
		c-17.1-13.8-17.3-50.8,0.2-64.9c15.9-12.8,30.4-27.5,45.4-41.5c11.8-11,20.5-24.2,22.9-40c2.1-13.9,1.6-28.2,2.2-42.3
		c0-0.2-0.4-0.5-0.5-0.6c-71.2,0-142.2,0-213.6,0c0,9.5-0.3,18.7,0.1,27.8c0.8,21.9,9.3,40.3,25.3,55.2
		c14.7,13.8,28.9,28.3,44.6,40.8c18.3,14.5,18.1,51.7,0.3,66c-16,12.8-30.3,27.5-45.4,41.4C53.1,322,50.7,351.2,53.3,382
		c3.5,0,6.7,0,10.3,0c0.1-2.1,0.2-3.9,0.3-5.7c0.8-28.5,20.4-52.3,48.5-57.5c30.1-5.5,60.3-4.7,90.6-1c29.2,3.6,49,26.5,52.6,51.2
		c0.6,4.2,0.7,8.6,1,13.1C260.1,382,263.3,382,267.2,382z"/>
	<path d="M222.8,131.3c-0.8,1.4-1.7,4.6-3.9,6.6c-17,16-34.1,31.8-51.3,47.5c-5.1,4.7-10.7,4.3-16-0.7c-16.5-15.2-33-30.5-49.5-45.8
		c-4.7-4.4-6-8.8-3.9-13.8c2.2-5.4,6.5-7.9,12.2-7.9c14.3-0.1,28.6,0,42.9,0c18.5,0,37,0,55.4,0
		C217.1,117.3,222.8,122.4,222.8,131.3z"/>
</g>
</svg>
