<?xml version="1.0" encoding="utf-8"?>
<!-- Generator: Adobe Illustrator 24.0.1, SVG Export Plug-In . SVG Version: 6.00 Build 0)  -->
<svg version="1.1" id="Layer_1" xmlns="http://www.w3.org/2000/svg" xmlns:xlink="http://www.w3.org/1999/xlink" x="0px" y="0px"
	 viewBox="0 0 326 336" style="enable-background:new 0 0 326 336;" xml:space="preserve">
<g>
	<path d="M0,75c0.7-3.5,1.3-7.1,2.2-10.6C12.5,26,60.9,6.9,94.6,28.1c2.5,1.6,4.9,4.9,5.3,7.8c3.2,21.6,6.1,43.2,8.6,64.9
		c0.3,2.9-1.6,6.8-3.8,9.2c-6.2,6.9-13.1,13.2-19.6,20c-1.1,1.2-2.1,3.7-1.7,5c11.3,33.1,27.1,63.4,55.5,85.4
		c18.4,14.2,39,24.1,60.9,31.6c2.7,0.9,4.2,0.2,6-1.7c6.3-6.5,12.8-12.7,19-19.2c3.3-3.5,7.1-4.6,11.7-4c20.8,2.7,41.6,5.2,62.4,8.2
		c3,0.4,6.7,2.9,8.2,5.5c11.7,20.3,12.2,41.3,0.9,61.9c-11.3,20.5-29.1,32.6-52.7,32.1c-59.7-1.3-113.8-20.3-161.1-56.7
		c-44.6-34.3-70.8-80.7-84.1-134.6c-4.6-18.5-6.3-37.7-9.4-56.6C0.6,85.6,0.3,84.3,0,83C0,80.3,0,77.7,0,75z"/>
	<path d="M326,161c-0.3,0.6-0.7,1.1-0.9,1.7c-3,10.6-11,16.3-21.5,15.3c-9.6-0.9-16.8-8.8-17.5-19.3c-1.9-28-11.8-52.8-30-74.2
		C235,59.6,208,45.2,175.7,40.2c-12.1-1.9-19.5-11.7-17.6-23c1.9-11,12.1-17.8,23.9-16c73.4,11.4,129.2,66.1,141.7,139
		c0.9,5.2,1.5,10.5,2.3,15.7C326,157.7,326,159.3,326,161z"/>
	<path d="M253.1,156.6c0,11.2-6.8,19.1-16.7,20.8c-9.4,1.6-18.5-3.8-21.7-13.5c-5.6-17-15.2-31-29.8-41.3c-4.6-3.2-9.7-5.9-14.7-8.3
		c-10.5-5.1-15.1-16-10.7-26.2c4.5-10.3,16-14.7,26.8-9.9c32.6,14.7,54.5,39.1,65.7,73C252.6,153.3,252.9,155.7,253.1,156.6z"/>
</g>
</svg>
