<svg id="ace68437-c54a-48fa-b51d-f95611e3c30b" data-name="Layer 1" xmlns="http://www.w3.org/2000/svg" viewBox="0 0 566.93 566.93"><defs><style>.adea686e-e8e3-45ac-809d-00d989fc6ae0{fill:#fccf0c;}.aff5c961-482d-48a3-bc34-1d67b0e29c18{fill:#494344;}.a992721a-496b-45d4-94df-9c3b34303862{fill:none;stroke:#fff;stroke-miterlimit:10;stroke-width:5.68px;}</style></defs><title>MVP_Journey</title><path class="adea686e-e8e3-45ac-809d-00d989fc6ae0" d="M467.07,238.53c-.69-7.55-.22-15.23-.05-22.85a16,16,0,0,0-1.89-8.37,1.77,1.77,0,0,1-.5-.8v0a1.21,1.21,0,0,1-.1-.14A53.05,53.05,0,0,1,458.7,196c-1.66-4.43-4.15-6.45-8.9-5.77-2.22.32-3.3-.95-3-3.22.19-1.41,0-3.14.71-4.17,2.74-3.85,2.12-7.84,1.33-12-.47-2.55-1.59-5.7,2.75-6.34.32-.05.74-.6.82-1,1.05-5.59,2.23-11.16,3-16.79a1.69,1.69,0,0,0,0-.25c-1.72-.85-3.45-1.71-5.15-2.59-5.69-2.91-6.86-6.07-4.41-11.2.13-.29.28-.58.44-.89s.37-.95.65-1.64a147.8,147.8,0,0,0-19.69-8.87c-3.71-1.4-7.48-2.67-11.25-3.91-.71-.24-1.9,1-3.24,1.7l-2.91-.78c-3,4.65-5.79,8.9-8.15,12.52-11.22-.39-21.76-2.81-31.26-8.17.53-2.36,2.39-5.66,1.49-7.79-.67-1.59-2.32-2.78-4.06-3.92-1-.66-2-1.3-2.87-2l-.52-.43c-3.35-2.69-6.54-5.58-10.54-7.27a16.18,16.18,0,0,0-2.22-.78c-1.24-.36-2.15-1.79-3.29-2.59-1.41-1-3-2.71-4.36-2.57-5.35.51-9.41-1.08-12.22-5.72a4.61,4.61,0,0,0-1-.86c-1.62-1.4-3-3.25-4.88-4.11-3.67-1.68-6.57-6.36-11.67-3.45-.39.22-1.38-.4-2-.81a32.06,32.06,0,0,1-2.73-2.57c-1.73,3.41-3.11,6.48-4.79,9.35C304,88.57,303,90,302.1,91.34s-1.62,2.31-2.28,3.28c2.21,1.74,4.3,3.4,6.33,5,2.64,2.08,5.18,4.06,7.75,6,1.1.84,2.69,1,3.8,1.84,2.69,2,5.26,4.12,7.73,6.35.32.29,0,1.74-.42,2.25-3.2,3.58-6.53,7.07-9.62,10.38-7.35-3.32-14.26-6.43-21.31-9.63-.41,1.34-.91,3-1.45,4.76-4.47-2.27-4.87,2.73-7,3.91a45.51,45.51,0,0,0-6.39-1.54,8.55,8.55,0,0,1-7-4.3c-1.42-2.25-3.26-4.25-5.08-6.57-2.2,2.39-3.89,4.28-5.64,6.11-3.4,3.54-7,6.63-12.2,7.35-1.6.23-3.18,1.5-4.47,2.61-3.79,3.23-7.37,6.69-11.12,9.94-4.76,4.12-16.52,5.67-21.31,2.74-3.85-2.37-7.33-5.47-11.39-7.3-2.94-1.33-6.57-1.47-9.87-1.38-1.07,0-2.28,2.36-3.07,3.82-9,16.92-18,33.88-27.23,51.28l-22-11.48c-2.26,3.51-4.44,6.92-6.74,10.53l-13.51-8.94c-2.77,6.65-5.31,13-8.08,19.2a4.28,4.28,0,0,1-2.68,2.24,53.76,53.76,0,0,1-9.23.7c-2.45,0-3.45.82-4,3.23-1.38,6.66-3,13.26-4.6,20.05-.74-.06-1.4-.06-2-.17-3.79-.72-4.9.23-4.7,4.16a13.09,13.09,0,0,0,.23,2c4.1,22.22,8.12,44.45,12.36,66.65,2,10.42,4,20.78,2.81,31.48a26.75,26.75,0,0,0-.17,7.93c1.64,8.68-.4,16.91-2.49,25.18-3.91,15.46-5,30.82,1.55,45.93a38.86,38.86,0,0,1,1.83,5c1.23,4.44,3.49,8,7.71,10.18,3,1.56,4.32,4.25,4.24,7.67V430c-.07,3,.11,5.93,0,8.89-.12,2.37.56,4.41,2.78,5.1.84.26,1.69.53,2.55.78a89.24,89.24,0,0,0,11.11,2.65c2.38.4,3.83,1.1,4.72,3.32.72,1.83,1.85,3.53,2.58,5.36a4.61,4.61,0,0,1,.38,3.11,20.78,20.78,0,0,0-1.38,4.57c2.52-2.76,5-5.52,7.5-8.33a6.11,6.11,0,0,1,5.43-2.37,16.87,16.87,0,0,0,12.21-4c10.87-8.84,22.08-17.29,33.05-26,1.78-1.42,3-1.51,4.9-.34,3.83,2.39,7.82,4.54,11.76,6.77,1.36.77,2.79,1.69,3.79-.5,3.66-8.08,9.3-15.23,10.92-24.29,1-5.33,8.95-10,14.15-8.77,1.67.4,3.16.76,4.26-1.19A43.77,43.77,0,0,1,257,379.5c2.39-1.54,5.77-3.08,6.54-5.35,2.46-7.48,8.11-15,1.45-23.21-1.58-1.95-1.19-4,.36-6,2.14-2.81,4-5.84,6-8.72,1.25-1.75,2.36-3.34,1.13-5.66a3,3,0,0,1,.4-2.76c2-2.08,4.2-3.91,6.24-5.76-.7-.5-3-1.16-.29-3.06a45.41,45.41,0,0,0,4.16,5,8.31,8.31,0,0,0,4.17,2.42,56.17,56.17,0,0,0,10.92.32c5.51-.43,9.19,1.54,12.17,6.33,3.87,6.24,4.15,5.84,11.1,3.51,3.82-1.27,6.38-3,6.36-7.43,0-2.33,1.54-3.13,3.84-3,3.85.29,7.73.24,11.57.65a4.43,4.43,0,0,1,3,2.16c1.69,3.47,2.94,7.14,4.57,10.63a3.26,3.26,0,0,0,2.54,1.64c4-.54,8.19-.92,12-2.3,6.92-2.53,13.54-5.85,20.41-8.55a20.21,20.21,0,0,1,6.92-1c2.62,0,5.27.57,7.91.55,3.37,0,7.51-2.71,7.35-4.85-.27-3.85,1.66-5.78,4.81-7.37,5.46-2.77,10.24-6.91,16.72-7.57,4.81-.49,9.6-1.36,14.41-2,7.33-1,12-6.48,18.35-10.3-3.05-2.24-2.2-4.41-1.25-6.81.53-1.33.3-3,.31-4.51,0-2.94-.2-5.91,0-8.84s1-6,1.06-9-.87-5.92-.83-8.88c0-2.33.33-5,1.53-6.91C465.69,248.41,467.58,244.17,467.07,238.53Z"/><path class="aff5c961-482d-48a3-bc34-1d67b0e29c18" d="M473.11,164.4c-.76,5.63-1.93,11.2-3,16.78-.07.37-.49.92-.82,1-4.33.64-3.22,3.8-2.74,6.33.79,4.2,1.41,8.18-1.33,12-.74,1-.53,2.76-.71,4.18a4,4,0,0,0,.1,1.79,1.21,1.21,0,0,1-.1-.14A53.05,53.05,0,0,1,458.7,196c-1.66-4.43-4.15-6.45-8.9-5.77-2.22.32-3.3-.95-3-3.22.19-1.41,0-3.14.71-4.17,2.74-3.85,2.12-7.84,1.33-12-.47-2.55-1.59-5.7,2.75-6.34.32-.05.74-.6.82-1,1.05-5.59,2.23-11.16,3-16.79a1.69,1.69,0,0,0,0-.25c5,2.46,10.05,4.81,15.1,7.15,1.7.8,2.5,1.49,2.21,3.65C472.44,159.57,473.43,162.07,473.11,164.4Z"/><path class="aff5c961-482d-48a3-bc34-1d67b0e29c18" d="M480.56,270.56c-1.19,1.89-1.48,4.57-1.52,6.9-.05,3,.87,5.92.84,8.89s-.87,6-1.07,9,0,5.88,0,8.83c0,1.52.22,3.18-.31,4.52-1,2.4-1.79,4.56,1.26,6.8-6.37,3.83-11,9.28-18.36,10.3-4.8.66-9.59,1.55-14.42,2-6.47.65-11.25,4.79-16.72,7.56-3.14,1.59-5.08,3.53-4.79,7.37.16,2.14-4,4.82-7.37,4.84-2.63,0-5.27-.58-7.91-.53a19.94,19.94,0,0,0-6.91,1c-6.86,2.7-13.5,6-20.42,8.55-3.77,1.38-7.94,1.75-12,2.31a3.31,3.31,0,0,1-2.54-1.66c-1.64-3.48-2.88-7.16-4.57-10.63a4.42,4.42,0,0,0-3-2.14c-3.83-.42-7.72-.38-11.57-.66-2.28-.16-3.84.62-3.83,3,0,4.44-2.54,6.15-6.36,7.44-6.95,2.33-7.22,2.72-11.11-3.52-3-4.79-6.64-6.77-12.17-6.34a56.06,56.06,0,0,1-10.91-.3,8.6,8.6,0,0,1-4.18-2.42,52.81,52.81,0,0,1-4.16-5c-2.69,1.89-.4,2.55.31,3.05-2.05,1.84-4.28,3.69-6.25,5.75a3,3,0,0,0-.39,2.77c1.23,2.33.1,3.92-1.15,5.67-2.05,2.87-3.88,5.91-6,8.71-1.56,2-1.94,4.09-.35,6,6.65,8.18,1,15.74-1.47,23.22-.75,2.26-4.14,3.8-6.53,5.34a43.62,43.62,0,0,0-14.87,15.26c-1.1,2-2.6,1.59-4.27,1.21-5.2-1.22-13.19,3.44-14.14,8.76-1.64,9.07-7.26,16.22-10.93,24.3-1,2.18-2.44,1.26-3.79.48-3.94-2.21-7.92-4.37-11.76-6.76-1.89-1.18-3.13-1.09-4.91.34-11,8.74-22.16,17.19-33,26a16.89,16.89,0,0,1-12.2,4,6.13,6.13,0,0,0-5.45,2.37c-3.7,4.24-7.54,8.36-11.3,12.55-.87,1-1.64,2-2.78,3.42l-3.65-9.07c-2.13,1.9-4.21,3.73-6.89,6.11-.22-2.23-.48-3.8-.5-5.36-.07-5.67-1.12-11.4-.07-17,2.52-2.76,5-5.52,7.5-8.33a6.11,6.11,0,0,1,5.43-2.37,16.87,16.87,0,0,0,12.21-4c10.87-8.84,22.08-17.29,33.05-26,1.78-1.42,3-1.51,4.9-.34,3.83,2.39,7.82,4.54,11.76,6.77,1.36.77,2.79,1.69,3.79-.5,3.66-8.08,9.3-15.23,10.92-24.29,1-5.33,8.95-10,14.15-8.77,1.67.4,3.16.76,4.26-1.19A43.77,43.77,0,0,1,257,379.5c2.39-1.54,5.77-3.08,6.54-5.35,2.46-7.48,8.11-15,1.45-23.21-1.58-1.95-1.19-4,.36-6,2.14-2.81,4-5.84,6-8.72,1.25-1.75,2.36-3.34,1.13-5.66a3,3,0,0,1,.4-2.76c2-2.08,4.2-3.91,6.24-5.76-.7-.5-3-1.16-.29-3.06a45.41,45.41,0,0,0,4.16,5,8.31,8.31,0,0,0,4.17,2.42,56.17,56.17,0,0,0,10.92.32c5.51-.43,9.19,1.54,12.17,6.33,3.87,6.24,4.15,5.84,11.1,3.51,3.82-1.27,6.38-3,6.36-7.43,0-2.33,1.54-3.13,3.84-3,3.85.29,7.73.24,11.57.65a4.43,4.43,0,0,1,3,2.16c1.69,3.47,2.94,7.14,4.57,10.63a3.26,3.26,0,0,0,2.54,1.64c4-.54,8.19-.92,12-2.3,6.92-2.53,13.54-5.85,20.41-8.55a20.21,20.21,0,0,1,6.92-1c2.62,0,5.27.57,7.91.55,3.37,0,7.51-2.71,7.35-4.85-.27-3.85,1.66-5.78,4.81-7.37,5.46-2.77,10.24-6.91,16.72-7.57,4.81-.49,9.6-1.36,14.41-2,7.33-1,12-6.48,18.35-10.3-3.05-2.24-2.2-4.41-1.25-6.81.53-1.33.3-3,.31-4.51,0-2.94-.2-5.91,0-8.84s1-6,1.06-9-.87-5.92-.83-8.88c0-2.33.33-5,1.53-6.91,2.82-4.44,4.71-8.68,4.2-14.32-.69-7.55-.22-15.23-.05-22.85a16,16,0,0,0-1.89-8.37,2.61,2.61,0,0,0,2.36.58c4.75-.68,7.25,1.33,8.9,5.77A53,53,0,0,0,482.22,224a15.5,15.5,0,0,1,2.49,9.36c-.17,7.61-.62,15.29.06,22.85C485.28,261.88,483.38,266.1,480.56,270.56Z"/><path class="a992721a-496b-45d4-94df-9c3b34303862" d="M484.77,256.24c-.69-7.56-.23-15.24-.06-22.86a15.49,15.49,0,0,0-2.49-9.35,53.05,53.05,0,0,1-5.82-10.37c-1.66-4.43-4.15-6.45-8.9-5.77-2.22.32-3.3-.94-3-3.21.19-1.42,0-3.14.72-4.18,2.74-3.85,2.11-7.84,1.33-12-.48-2.54-1.59-5.7,2.74-6.34a1.41,1.41,0,0,0,.82-1c1.05-5.59,2.23-11.16,3-16.78.31-2.33-.67-4.83-.36-7.15.28-2.17-.52-2.86-2.22-3.65-6.8-3.16-13.59-6.33-20.26-9.75-6-3.08-7-6.42-4-12.08a16.48,16.48,0,0,0,.65-1.64c-9.95-5.49-20.36-9.35-30.93-12.8-.72-.23-1.9,1-3.24,1.71l-2.91-.78-8.15,12.53c-11.23-.41-21.76-2.82-31.26-8.18.54-2.36,2.39-5.66,1.49-7.8-1.06-2.5-4.52-4-6.94-5.91l-.5-.43c-3.95-3.17-7.68-6.61-12.77-8-1.24-.36-2.15-1.78-3.3-2.59-1.4-1-3-2.71-4.34-2.58-5.36.52-9.42-1.07-12.24-5.71a4.44,4.44,0,0,0-1-.87c-1.61-1.39-3-3.24-4.87-4.1-3.67-1.67-6.56-6.36-11.67-3.45-.38.22-1.38-.4-1.95-.81a32.7,32.7,0,0,1-2.75-2.56c-1.72,3.41-3.09,6.47-4.78,9.34s-3.66,5.5-5,7.53c5.14,4,9.56,7.57,14.08,11,1.11.83,2.7,1,3.81,1.84,2.68,2,5.26,4.12,7.74,6.35.31.28,0,1.74-.42,2.25-3.21,3.59-6.54,7.07-9.64,10.38l-21.3-9.63c-.41,1.35-.91,3-1.45,4.76-4.48-2.27-4.87,2.73-7,3.91a45.18,45.18,0,0,0-6.39-1.54,8.58,8.58,0,0,1-7-4.3c-1.41-2.25-3.25-4.24-5.07-6.57-2.2,2.39-3.89,4.28-5.64,6.11-3.4,3.54-7,6.63-12.21,7.35-1.59.22-3.16,1.5-4.47,2.61-3.77,3.23-7.36,6.68-11.11,9.94-4.75,4.12-16.52,5.67-21.31,2.73-3.85-2.36-7.33-5.46-11.4-7.29-2.93-1.33-6.56-1.47-9.86-1.38-1.07,0-2.29,2.35-3.07,3.82-9,16.92-18,33.88-27.23,51.28l-22-11.48-6.74,10.53-13.51-8.93c-2.76,6.64-5.32,12.95-8.07,19.19a4.25,4.25,0,0,1-2.69,2.23,53.84,53.84,0,0,1-9.23.71c-2.45,0-3.46.82-4,3.23-1.38,6.66-3,13.27-4.61,20.05a20,20,0,0,1-2-.18c-3.79-.71-4.89.25-4.7,4.16a14.63,14.63,0,0,0,.22,2c4.11,22.21,8.13,44.44,12.37,66.63,2,10.42,4,20.79,2.81,31.49a27.09,27.09,0,0,0-.18,7.93c1.65,8.68-.39,16.91-2.48,25.18-3.91,15.46-5,30.82,1.55,45.93a38.45,38.45,0,0,1,1.83,5c1.23,4.43,3.49,7.95,7.71,10.17,3,1.56,4.32,4.25,4.23,7.67-.07,3.08.14,6.18,0,9.26-.12,2.37.57,4.41,2.78,5.1a102.65,102.65,0,0,0,13.66,3.44c2.37.39,3.84,1.09,4.72,3.31.73,1.84,1.85,3.52,2.58,5.36a4.67,4.67,0,0,1,.38,3.11c-3.07,7.07-1.4,14.38-1.31,21.6,0,1.56.28,3.11.5,5.34l6.89-6.09,3.65,9.06c1.14-1.41,1.91-2.46,2.77-3.42,3.77-4.19,7.61-8.31,11.31-12.55a6.13,6.13,0,0,1,5.45-2.37,16.89,16.89,0,0,0,12.2-4c10.88-8.84,22.08-17.29,33-26,1.79-1.43,3-1.52,4.91-.34,3.84,2.39,7.82,4.54,11.76,6.77,1.36.77,2.8,1.69,3.79-.5,3.66-8.08,9.3-15.22,10.93-24.29,1-5.32,8.94-10,14.14-8.77,1.67.39,3.17.76,4.27-1.2a43.8,43.8,0,0,1,14.87-15.26c2.39-1.54,5.78-3.08,6.53-5.35,2.48-7.47,8.12-15,1.46-23.21-1.58-1.95-1.2-4,.36-6,2.14-2.81,4-5.84,6-8.72,1.25-1.74,2.37-3.34,1.15-5.66a3,3,0,0,1,.39-2.76c2-2.08,4.2-3.91,6.24-5.76-.7-.5-3-1.16-.3-3.06a50.39,50.39,0,0,0,4.16,5,8.42,8.42,0,0,0,4.18,2.42,56.17,56.17,0,0,0,10.92.32c5.51-.43,9.19,1.54,12.17,6.33,3.88,6.24,4.15,5.84,11.1,3.51,3.82-1.28,6.38-3,6.36-7.43,0-2.33,1.54-3.13,3.83-3,3.86.28,7.74.24,11.58.65a4.42,4.42,0,0,1,3,2.16c1.69,3.46,2.93,7.14,4.57,10.63a3.3,3.3,0,0,0,2.54,1.65c4-.56,8.2-.93,12-2.31,6.92-2.53,13.55-5.85,20.42-8.55a20.15,20.15,0,0,1,6.91-1c2.64,0,5.28.57,7.92.55,3.38,0,7.51-2.71,7.35-4.85-.28-3.85,1.66-5.78,4.8-7.37,5.47-2.77,10.25-6.91,16.72-7.57,4.83-.48,9.61-1.36,14.42-2,7.32-1,12-6.48,18.36-10.3-3-2.24-2.22-4.4-1.26-6.8.53-1.34.3-3,.31-4.52,0-2.95-.2-5.9,0-8.84s1-6,1.07-9-.88-5.92-.84-8.88c0-2.33.33-5,1.52-6.9C483.38,266.11,485.28,261.87,484.77,256.24Z"/></svg>