<?xml version="1.0" encoding="utf-8"?>
<!-- Generator: Adobe Illustrator 24.0.1, SVG Export Plug-In . SVG Version: 6.00 Build 0)  -->
<svg version="1.1" id="Layer_1" xmlns="http://www.w3.org/2000/svg" xmlns:xlink="http://www.w3.org/1999/xlink" x="0px" y="0px"
	 viewBox="0 0 434 466" style="enable-background:new 0 0 434 466;" xml:space="preserve">
<g>
	<path d="M434,282c-1.5,10.2-7.9,17.6-14.4,25c-31,35.3-62,70.6-92.8,106.1c-15.2,17.4-34.2,25.8-57.2,25.8c-48,0-96,0-143.9-0.1
		c-3.6,0-6.2,0.9-8.7,3.6c-7.2,7.6-14.8,14.9-22.5,22.7C63.1,434.6,32,404.3,0.6,373.7c1.4-1.5,2.5-2.8,3.8-4
		c21.1-21,41.9-42.4,63.5-63c30.1-28.7,65.6-36.7,105.2-24c10.8,3.5,21.3,5.5,32.6,5.3c24-0.4,48-0.1,72-0.1
		c17.5,0,30.3,12.1,30.2,28.4c-0.1,16.1-13.3,28.7-30.2,28.8c-17.5,0.1-35,0-52.5,0c-7.3,0-12,4-12.5,10.2c-0.5,7,4.1,11.9,11.6,12
		c12.8,0.1,25.7,0.2,38.5,0c9-0.1,18.1,0.3,26.8-1.4c21.9-4.2,38.1-22.9,40.5-45.2c0.2-2,1.2-4.2,2.5-5.7
		c15.7-17.9,31.6-35.7,47.4-53.5c8.6-9.7,19.3-13.7,31.9-10.3c12,3.3,19.1,11.6,21.3,23.9c0.1,0.6,0.5,1.2,0.7,1.8
		C434,278.7,434,280.3,434,282z"/>
	<path d="M174.7,28c3.7,1.6,7,2.5,9.7,4.2c4.5,2.8,8.7,6.2,13.2,9c1.3,0.8,3.7,0.9,5.2,0.3c6.2-2.3,12.4-4.8,18.4-7.6
		c1.6-0.7,3.3-2.6,3.7-4.3c1.3-5.3,2-10.8,3.1-16.2c1.5-7.5,7.1-12.3,14.7-12.4c5.7-0.1,11.3-0.1,17,0c7.2,0.2,12.8,4.5,14.4,11.5
		c1.3,5.5,1.8,11.2,3.2,16.7c0.5,1.8,2.3,3.8,4,4.6c5.8,2.8,12,4.8,17.8,7.7c2.5,1.2,4.1,1,6.2-0.5c4.1-3.1,8.3-6.1,12.6-9
		c6.7-4.5,13.8-4.1,19.6,1.4c4,3.7,7.9,7.6,11.7,11.6c5.4,5.6,6,12.6,1.7,19.2c-3,4.6-6.1,9.1-9.5,13.5c-1.6,2.2-1.7,3.8-0.5,6.3
		c2.8,5.8,4.9,12,7.7,17.8c0.8,1.7,2.8,3.5,4.7,4c5.1,1.3,10.5,1.8,15.7,2.9c7.7,1.7,12.2,6.8,12.5,14.7c0.3,5.7,0.3,11.3,0,17
		c-0.4,7.9-5.3,13.2-13.2,14.7c-5.2,1-10.5,1.7-15.7,3c-1.5,0.4-3.2,2-3.9,3.4c-2.8,6.2-5.4,12.5-7.8,18.9c-0.5,1.4-0.4,3.6,0.4,4.8
		c2.9,4.6,6.4,9,9.4,13.5c4.7,6.9,4.1,14-1.6,20c-3.7,3.9-7.4,7.6-11.3,11.3c-5.8,5.5-13,6.1-19.6,1.7c-4.6-3-8.9-6.5-13.6-9.3
		c-1.3-0.8-3.7-0.9-5.3-0.3c-6.2,2.3-12.4,4.8-18.4,7.7c-1.6,0.8-3.4,2.6-3.8,4.3c-1.2,4.8-1.7,9.8-2.6,14.7
		c-1.7,9.1-6.9,13.6-16.1,13.9c-5.3,0.2-10.7,0.2-16-0.1c-8.2-0.5-13.1-5-14.7-13.1c-1-5.2-1.7-10.5-3-15.7c-0.4-1.5-1.9-3.3-3.4-4
		c-6.2-2.8-12.5-5.5-18.9-7.8c-1.5-0.6-3.9-0.4-5.3,0.5c-4.4,2.7-8.5,5.9-12.8,8.8c-7.4,5-14.5,4.4-20.8-1.7
		c-3.7-3.6-7.4-7.2-10.9-11c-5.5-5.8-6.1-12.9-1.7-19.6c3.1-4.6,6.5-8.9,9.3-13.6c0.8-1.3,0.9-3.7,0.3-5.2c-2.4-6.4-5-12.7-7.8-18.9
		c-0.6-1.4-2.2-2.8-3.6-3.2c-5.3-1.2-10.8-2-16.2-3c-7.8-1.5-12.7-6.9-13-14.8c-0.2-5.7-0.2-11.3,0-17c0.3-7.5,4.8-12.8,12.2-14.4
		c5.2-1.1,10.5-2,15.7-2.8c2.7-0.4,4.2-1.3,5.2-4.3c2.1-6.1,5.1-11.9,7.3-18c0.6-1.7,0.5-4.2-0.3-5.7c-2.7-4.6-6.1-8.7-9-13.2
		c-4.6-6.9-4.1-14,1.7-20c3.7-3.9,7.3-7.9,11.4-11.2C167.4,31.2,171.2,29.8,174.7,28z M307,131.8c0-30.9-24.9-55.9-55.8-55.9
		c-31,0-56,24.9-56.1,55.7c-0.1,30.8,25.1,56,55.9,56.1C281.7,187.7,306.9,162.6,307,131.8z"/>
	<path d="M251.1,102c16.5,0,29.9,13.4,29.8,29.8c0,16.2-13.3,29.5-29.6,29.6c-16.5,0.1-30-13.1-30.1-29.6
		C221.1,115.4,234.5,102,251.1,102z"/>
</g>
</svg>
