<?xml version="1.0" encoding="utf-8"?>
<!-- Generator: Adobe Illustrator 24.0.1, SVG Export Plug-In . SVG Version: 6.00 Build 0)  -->
<svg version="1.1" id="Layer_1" xmlns="http://www.w3.org/2000/svg" xmlns:xlink="http://www.w3.org/1999/xlink" x="0px" y="0px"
	 viewBox="0 0 566.9 566.9" style="enable-background:new 0 0 566.9 566.9;" xml:space="preserve">
<style type="text/css">
	.st0{fill:#FBC7B4;}
	.st1{fill:#231F20;}
	.st2{fill:#403E3E;}
	.st3{fill:#FECF0A;}
	.st4{fill:#FEE2CB;}
	.st5{fill:#E2A572;}
	.st6{fill:#F29B87;}
	.st7{fill:#F37663;}
	.st8{fill:#2C323F;}
	.st9{fill:#DBE8F7;}
	.st10{fill:#B4E4FA;}
	.st11{fill:#8ACEB2;}
	.st12{fill:#3EAF91;}
	.st13{opacity:0.1;}
	.st14{opacity:0.1;enable-background:new    ;}
	.st15{fill:#4A4345;}
	.st16{fill:#E4BA22;}
	.st17{fill:#FFFFFF;}
	.st18{fill:#565B6F;}
	.st19{fill:#473D4C;}
	.st20{fill:#F8EAE1;}
	.st21{fill:#C8C5C9;}
	.st22{fill:#706672;}
	.st23{fill:#A3BDCD;}
	.st24{fill:#769FB7;}
	.st25{fill:#555B64;}
	.st26{fill:#EAF1F2;}
	.st27{fill:#B8BEBF;}
	.st28{fill:#F3D3BA;}
	.st29{fill:#FFD189;}
	.st30{fill:#F8A170;}
	.st31{fill:#EDF0F1;}
	.st32{fill:#394A4A;}
	.st33{fill:#FAB89C;}
	.st34{fill:#4B6970;}
	.st35{fill:#F6936A;}
	.st36{fill:#FED7A7;}
	.st37{fill:#FDE1D9;}
	.st38{fill:#FCCFC3;}
	.st39{fill:#CDD2D9;}
	.st40{fill:#E7E9ED;}
</style>
<g>
	<path class="st3" d="M460.8,74.6h-74.6L356.3,86l-29.8-11.4h-74.6V373l104.4,11.4L460.8,373V74.6z"/>
	<path class="st16" d="M460.8,373l-104.4,11.4V86l29.8-11.4h74.6V373z"/>
	<path class="st16" d="M251.9,223.8V373l90.2,9.9l9-3.3l11.5,4.1l98.2-10.7V223.8L251.9,223.8z"/>
	<path class="st3" d="M356.3,381.5l6.3,2.3l12.3-1.3l85.9-9.4V223.8H356.3V381.5z"/>
	<path class="st4" d="M386.2,74.6v76.9l-29.8-17.2l-29.8,17.2V74.6H386.2z"/>
	<path class="st20" d="M386.2,74.6v76.9l-29.8-17.2V74.6H386.2z"/>
	<path class="st4" d="M386.2,223.8v76.9l-29.8-17.2l-29.8,17.2v-76.9L386.2,223.8z"/>
	<path class="st20" d="M386.2,223.8v76.9l-29.8-17.2v-59.7L386.2,223.8z"/>
	<path class="st1" d="M492.3,373v59.7H130.8V114.9c0-8.7-7.1-15.9-15.9-15.9H74.6V74.6h40.3c22.2,0,40.3,18.1,40.3,40.3V373H492.3z"
		/>
	<path class="st2" d="M311.6,373h180.8v59.7H311.6V373z"/>
	<circle class="st2" cx="192.2" cy="462.5" r="29.8"/>
	<circle class="st2" cx="430.9" cy="462.5" r="29.8"/>
</g>
</svg>
