<svg id="ffe6d069-30c4-408c-b67e-7a3a6ebcc324" data-name="Layer 1" xmlns="http://www.w3.org/2000/svg" viewBox="0 0 566.93 566.93"><defs><style>.aee7e3b6-cb63-47c9-b34c-b0ff4a68c1a5{fill:#fecf0a;}.a72afb63-22d5-4a15-a849-093b05fbb1db{fill:#e4ba22;}.b7020fa7-4258-4cc9-8a4c-b3b469387da6{fill:#fde1d9;}.e94cf94d-afc7-40f2-8fc6-12c09094caac{fill:#fccfc3;}.bbc8328c-bf6f-463c-af56-810a30e6dada{fill:#4a4345;}.fda4326f-fd4a-49a1-8e35-afdb95911b0a{fill:#231f20;}.af371a28-04e6-4443-b56a-0a271203e02e{fill:#fff;}</style></defs><title>MVP_Journey</title><path class="aee7e3b6-cb63-47c9-b34c-b0ff4a68c1a5" d="M347.71,413h-62.6V194.5a25,25,0,0,1,25-25h12.65a25,25,0,0,1,25,25Z"/><path class="a72afb63-22d5-4a15-a849-093b05fbb1db" d="M347.71,306.42a340.32,340.32,0,0,1-62.6,22.3V413h62.6Z"/><path class="aee7e3b6-cb63-47c9-b34c-b0ff4a68c1a5" d="M257.92,413H195.33V249.66a21.76,21.76,0,0,1,21.77-21.77h19.05a21.77,21.77,0,0,1,21.77,21.77Z"/><path class="aee7e3b6-cb63-47c9-b34c-b0ff4a68c1a5" d="M437.5,378.11H374.9V126a24.81,24.81,0,0,1,24.81-24.81h13A24.81,24.81,0,0,1,437.5,126Z"/><path class="a72afb63-22d5-4a15-a849-093b05fbb1db" d="M437.5,248.07a408.38,408.38,0,0,1-62.6,44.22v85.82h62.6Z"/><path class="b7020fa7-4258-4cc9-8a4c-b3b469387da6" d="M167.72,333.41l125.86-66.8c15.71-8.34,34.05,5.36,30.5,22.79-2.6,12.74-8.51,26.18-20.87,36.19L290.3,336a8.76,8.76,0,0,0,5.51,15.56l51.73,0a81.85,81.85,0,0,0,47.12-14.9l57.81-40.65a27.17,27.17,0,0,1,32.88,43.22l-75.72,62.22a81.9,81.9,0,0,1-32.5,16.26l-166,40.63Z"/><path class="e94cf94d-afc7-40f2-8fc6-12c09094caac" d="M237.45,399c-47.67-14-44.11-79.2-44.11-79.2l-25.62,13.59,43.45,125,126.5-31C311,420,268.14,408,237.45,399Z"/><path class="bbc8328c-bf6f-463c-af56-810a30e6dada" d="M167.72,333.41l47,125.51a36.66,36.66,0,0,1-26.21,48.62l-45,10.22A36.67,36.67,0,0,1,100,491.23L75.74,398a37.76,37.76,0,0,1,26.17-45.81Z"/><path class="fda4326f-fd4a-49a1-8e35-afdb95911b0a" d="M214.75,458.92l-7.33-19.57c-18.81-8.76-39.19-10.51-55.63-9.84a36.8,36.8,0,0,1-38.4-37.89,253.81,253.81,0,0,1,5.69-44.31l-17.17,4.91A37.76,37.76,0,0,0,75.74,398L100,491.23a36.67,36.67,0,0,0,43.6,26.53l45-10.22A36.66,36.66,0,0,0,214.75,458.92Z"/><path class="aee7e3b6-cb63-47c9-b34c-b0ff4a68c1a5" d="M173.82,466A20.87,20.87,0,1,1,153,445.09,20.87,20.87,0,0,1,173.82,466Z"/><path class="af371a28-04e6-4443-b56a-0a271203e02e" d="M331.5,48.26H274.73a14.74,14.74,0,1,0,0,29.47h20.2l-59.2,57L207.66,120.2a14.78,14.78,0,0,0-17.24,2.71L75.94,238.28a14.74,14.74,0,1,0,20.92,20.77L203.73,151.36l27.84,14.4a14.73,14.73,0,0,0,17-2.47l68.2-65.65v22.62a14.74,14.74,0,0,0,29.48,0V63a.43.43,0,0,0,0,0C346.23,51.14,337.51,48.26,331.5,48.26Z"/></svg>