<svg id="e044919d-c076-41ff-810c-16ad425feec2" data-name="Layer 1" xmlns="http://www.w3.org/2000/svg" viewBox="0 0 566.93 566.93"><defs><style>.b2084bd7-fa36-4f52-a97c-8938fea26a51{fill:#fff;}.e053c2e9-bf5a-4abf-94e1-696fb64007d3{fill:#3c404d;}.f9569d14-bfe4-4ef4-83f5-3a9064aaf486{fill:#fccf0c;}.a287526d-c963-4216-b63d-d8881b4f0f1e{fill:#fbe349;}.a712832c-b2ef-48da-b492-da6f3d29dd5d,.ac063ed3-2190-42c1-826e-ad9e2f3aaa51,.ef7c3eaa-0ea8-4552-a4cd-704b514ddeef,.f7ff0758-66f6-48e7-af7b-8955e17d9157{fill:none;stroke-linecap:round;}.ac063ed3-2190-42c1-826e-ad9e2f3aaa51,.ef7c3eaa-0ea8-4552-a4cd-704b514ddeef{stroke:#494344;}.ac063ed3-2190-42c1-826e-ad9e2f3aaa51,.ef7c3eaa-0ea8-4552-a4cd-704b514ddeef,.f7ff0758-66f6-48e7-af7b-8955e17d9157{stroke-miterlimit:10;}.a712832c-b2ef-48da-b492-da6f3d29dd5d,.ac063ed3-2190-42c1-826e-ad9e2f3aaa51,.f7ff0758-66f6-48e7-af7b-8955e17d9157{stroke-width:15px;}.a712832c-b2ef-48da-b492-da6f3d29dd5d,.f7ff0758-66f6-48e7-af7b-8955e17d9157{stroke:#fff;}.ef7c3eaa-0ea8-4552-a4cd-704b514ddeef{stroke-width:12.8px;}.a61c2ad8-5b26-4318-95fb-4b3cf06ffa8d{fill:#494344;}.a712832c-b2ef-48da-b492-da6f3d29dd5d{stroke-linejoin:round;}.a67104ed-895e-4e6a-ba64-a59b1566d70e{fill:#2c303b;}</style></defs><title>MVP_Journey</title><path class="b2084bd7-fa36-4f52-a97c-8938fea26a51" d="M523.26,123.14V379H43.66V123.14A40.85,40.85,0,0,1,84.51,82.28h397.9A40.85,40.85,0,0,1,523.26,123.14Z"/><path class="e053c2e9-bf5a-4abf-94e1-696fb64007d3" d="M523.26,379v4.59a40.85,40.85,0,0,1-40.85,40.85H84.51a40.85,40.85,0,0,1-40.85-40.85V379Z"/><polygon class="f9569d14-bfe4-4ef4-83f5-3a9064aaf486" points="322.48 137.44 135.84 137.44 105.84 378.97 352.48 378.97 322.48 137.44"/><polygon class="a287526d-c963-4216-b63d-d8881b4f0f1e" points="382.04 214.03 254.59 214.03 234.1 378.97 402.53 378.97 382.04 214.03"/><path class="ac063ed3-2190-42c1-826e-ad9e2f3aaa51" d="M178.1,178.44V112.25a53.55,53.55,0,0,1,53.39-53.39h0a53.55,53.55,0,0,1,53.39,53.39v66.19"/><path class="f7ff0758-66f6-48e7-af7b-8955e17d9157" d="M345.81,240.52v25.85a27.57,27.57,0,0,1-27.5,27.49h0a27.57,27.57,0,0,1-27.49-27.49V240.52"/><line class="ac063ed3-2190-42c1-826e-ad9e2f3aaa51" x1="494.78" y1="237.69" x2="410.7" y2="237.69"/><line class="ef7c3eaa-0ea8-4552-a4cd-704b514ddeef" x1="494.78" y1="271.05" x2="433.5" y2="271.05"/><circle class="a61c2ad8-5b26-4318-95fb-4b3cf06ffa8d" cx="408.51" cy="114.83" r="72.14"/><polyline class="a712832c-b2ef-48da-b492-da6f3d29dd5d" points="387.21 112.24 403.04 138.97 443.38 83.31"/><path class="a67104ed-895e-4e6a-ba64-a59b1566d70e" d="M426.14,511.35v12.89H116.44V512.62a32.29,32.29,0,0,1,32.29-32.29h25.92l13.53-56.68H355.67L369,479.05h24.89A32.3,32.3,0,0,1,426.14,511.35Z"/><path class="e053c2e9-bf5a-4abf-94e1-696fb64007d3" d="M426.14,511.35v12.89H157.29V512.62a32.29,32.29,0,0,1,32.29-32.29H215.5l7.62-43.15H359.29L369,479.05h24.89A32.3,32.3,0,0,1,426.14,511.35Z"/></svg>