<svg id="fab2109d-2796-497e-a7e2-2ce349d37f3f" data-name="Layer 1" xmlns="http://www.w3.org/2000/svg" viewBox="0 0 566.93 566.93"><defs><style>.b29c989c-0831-4664-b5c6-78829cd929f0{fill:#fecf0a;}.e144b7da-d175-42ba-be27-6b2640e78094{fill:#e4ba22;}.eb9b1b2b-a3d1-4967-9b7c-fb8c79178fc0{fill:#4a4345;}.abe54f49-7570-41a1-a87e-7d000ab66d8b{fill:#231f20;}</style></defs><title>MVP_Journey</title><path class="b29c989c-0831-4664-b5c6-78829cd929f0" d="M434.85,253.09H370.56V187.5a2.26,2.26,0,0,0-2.26-2.25H233.76a2.26,2.26,0,0,0-2.26,2.25V322.93H440.08v-64.6A5.22,5.22,0,0,0,434.85,253.09Z"/><path class="e144b7da-d175-42ba-be27-6b2640e78094" d="M440.09,322.93H370.56V253.09h64.29a5.24,5.24,0,0,1,5.24,5.24v64.6Z"/><rect class="e144b7da-d175-42ba-be27-6b2640e78094" x="231.5" y="253.08" width="69.53" height="69.84"/><path class="e144b7da-d175-42ba-be27-6b2640e78094" d="M370.56,253.09H301V185.25H368.3a2.26,2.26,0,0,1,2.26,2.25v65.59Z"/><path class="b29c989c-0831-4664-b5c6-78829cd929f0" d="M132,172.12V121.63a7.83,7.83,0,0,0-15.65,0v50.49Z"/><rect class="b29c989c-0831-4664-b5c6-78829cd929f0" x="56.32" y="250.47" width="135.76" height="75.91"/><rect class="e144b7da-d175-42ba-be27-6b2640e78094" x="134.11" y="250.47" width="57.98" height="75.91"/><path class="eb9b1b2b-a3d1-4967-9b7c-fb8c79178fc0" d="M455.61,307.44h0a13.38,13.38,0,0,1-13.38,13.38H34.62a5.64,5.64,0,0,0-5.53,6.81c4.11,19.48,14.12,45.3,37.56,71.48a16.39,16.39,0,0,1,2.55,18L56.57,443.55a6.69,6.69,0,0,0,6,9.57H465.83a6.65,6.65,0,0,0,6-3.82l68.47-145.76a6.65,6.65,0,0,0-6-9.48H469A13.38,13.38,0,0,0,455.61,307.44Z"/><path class="abe54f49-7570-41a1-a87e-7d000ab66d8b" d="M534.3,294.06H481.67L407,453.12h58.87a6.66,6.66,0,0,0,6-3.82l68.47-145.76A6.65,6.65,0,0,0,534.3,294.06Z"/><path class="b29c989c-0831-4664-b5c6-78829cd929f0" d="M169.05,243.76H79.36V171.2a3.82,3.82,0,0,1,3.82-3.82h82a3.82,3.82,0,0,1,3.82,3.82Z"/><path class="e144b7da-d175-42ba-be27-6b2640e78094" d="M165.23,167.38H111.07v76.38h58V171.2A3.82,3.82,0,0,0,165.23,167.38Z"/><path class="eb9b1b2b-a3d1-4967-9b7c-fb8c79178fc0" d="M199.8,259.66H48.61a2.47,2.47,0,0,1-2.47-2.46V238.29a2.47,2.47,0,0,1,2.47-2.46H199.8a2.47,2.47,0,0,1,2.47,2.46V257.2A2.47,2.47,0,0,1,199.8,259.66Z"/><path class="abe54f49-7570-41a1-a87e-7d000ab66d8b" d="M199.8,235.83H144.29v23.83H199.8a2.47,2.47,0,0,0,2.47-2.46V238.29A2.47,2.47,0,0,0,199.8,235.83Z"/><path class="b29c989c-0831-4664-b5c6-78829cd929f0" d="M70.5,406.9a16.38,16.38,0,0,1-1.3,10.21L56.57,443.55a6.69,6.69,0,0,0,6,9.57H465.83a6.66,6.66,0,0,0,6-3.82l19.92-42.4Z"/><path class="e144b7da-d175-42ba-be27-6b2640e78094" d="M428.67,406.9,407,453.12h58.87a6.2,6.2,0,0,0,1-.07,6.49,6.49,0,0,0,3.35-1.52,6.62,6.62,0,0,0,1.71-2.23l19.92-42.4Z"/></svg>