<svg id="a2b8a812-a91b-44ec-aed1-0b58670d57a3" data-name="Layer 1" xmlns="http://www.w3.org/2000/svg" viewBox="0 0 566.93 566.93"><defs><style>.af630494-865f-4ca9-bd44-f52dad4e5547{fill:#2c303b;}.bfc95c46-013b-43a7-bad9-ef356b645157{fill:#fccf0c;}.acb44731-84dc-497c-baf4-26d6b7e884e4{fill:#3c404d;}.f0325e75-f939-496e-9474-c74c7a117e8b{fill:#494344;}.a7242668-00d8-4362-897c-84d07b736b63{fill:#fff;}</style></defs><title>MVP_Journey</title><path class="af630494-865f-4ca9-bd44-f52dad4e5547" d="M523.67,82.64h-359A15.78,15.78,0,0,0,148.9,98.42v269.2a15.78,15.78,0,0,0,15.79,15.78h359a15.78,15.78,0,0,0,15.79-15.78V98.42A15.78,15.78,0,0,0,523.67,82.64ZM179,352.76V113.28H509.41V352.76Z"/><rect class="bfc95c46-013b-43a7-bad9-ef356b645157" x="179.03" y="113.28" width="330.38" height="239.48"/><rect class="acb44731-84dc-497c-baf4-26d6b7e884e4" x="344.65" y="383.4" width="59.91" height="60.09"/><rect class="af630494-865f-4ca9-bd44-f52dad4e5547" x="283.46" y="383.4" width="61.19" height="60.09"/><path class="f0325e75-f939-496e-9474-c74c7a117e8b" d="M344.65,443.49v30H255.8a15,15,0,1,1,0-30Z"/><path class="f0325e75-f939-496e-9474-c74c7a117e8b" d="M448.48,458.47a15,15,0,0,1-15,15H344.65v-30H433.5A15,15,0,0,1,448.48,458.47Z"/><path class="f0325e75-f939-496e-9474-c74c7a117e8b" d="M142.4,114v75.4H27.46V129.74A15.77,15.77,0,0,1,43.24,114Z"/><path class="af630494-865f-4ca9-bd44-f52dad4e5547" d="M164.69,389.9a22.25,22.25,0,0,1-22.29-22.28v-119H27.46V457.66a15.78,15.78,0,0,0,15.78,15.79H191.67a15.79,15.79,0,0,0,15.79-15.79V389.9Zm-47.23,57.48a15,15,0,1,1,15-15A15,15,0,0,1,117.46,447.38Z"/><rect class="acb44731-84dc-497c-baf4-26d6b7e884e4" x="27.46" y="189.36" width="114.94" height="59.23"/><path class="a7242668-00d8-4362-897c-84d07b736b63" d="M132.41,432.42a15,15,0,1,1-15-14.95A14.95,14.95,0,0,1,132.41,432.42Z"/></svg>