<svg id="b6ce1ebd-38d7-4c8b-b2d3-e21a7d4821fd" data-name="Layer 1" xmlns="http://www.w3.org/2000/svg" viewBox="0 0 1080 1080"><title>Untitled-1</title><path d="M951.81,309.54v16.09q0,214.9,0,429.81c0,43.18-26.22,69.54-69.1,69.54q-343,0-685.91,0c-41.69,0-68.54-26.5-68.55-67.84q-.1-216.58,0-433.16c0-4,.38-7.9.68-13.75,3.89,3.14,6.44,5,8.72,7.09q167.52,155,335,310.11c40.09,37.1,94.88,36.31,136.33-1.94Q703,538.66,797,451.66q72.76-67.26,145.57-134.49C944.71,315.2,947.05,313.46,951.81,309.54Z"/><path d="M169.71,258.08c7.56-1,15.12-2.95,22.69-3q347.33-.23,694.66,0c7.84,0,15.68,2,26.27,3.47-21.46,19.88-40.43,37.51-59.46,55.07q-144,132.87-288,265.7c-20.89,19.27-31.53,19.17-52.36-.09Q344.33,422.85,175.11,266.46c-1.89-1.74-4-3.23-6-4.84C169.3,260.44,169.51,259.26,169.71,258.08Z"/></svg>