<svg id="b6ca95d5-f362-4698-8c90-497c303bcec6" data-name="Layer 1" xmlns="http://www.w3.org/2000/svg" viewBox="0 0 566.93 566.93"><title>Untitled-1</title><path d="M382.49,331.91c15.3-15.33,31.18-31.2,47-47.14,6-6.09,13.05-10.12,21.68-11.25,14.05-1.84,26.84,4.33,33.68,16.4a33.74,33.74,0,0,1-3.12,37.87,67.44,67.44,0,0,1-4.74,5.12q-52.59,52.63-105.21,105.23c-.71.7-1.44,1.39-2.12,2.11-6.23,6.62-13.39,9.51-22.95,9.39-42.6-.55-85.22-.32-127.83-.15a16.23,16.23,0,0,0-8.95,3c-15.75,11.71-31.26,23.75-46.85,35.67-10.76,8.23-18.38,7.44-27.12-2.75q-25.84-30.12-51.75-60.18c-9.2-10.68-8.71-18.45,1.58-27.85,19.77-18.08,39.19-36.54,59.25-54.29,15.61-13.8,33.31-24.13,54-28.72,16-3.55,31.55-1,46.64,3.91,23.25,7.52,46.91,10.2,71.24,9.61,17.12-.42,34.28.27,51.4.91C372.84,328.92,377.3,330.71,382.49,331.91Zm9.92,11c4.53,8.07,5.94,16.32,3.2,25.12C391.25,382,380,389.75,363.54,389.79q-50.16.12-100.33.06a23,23,0,0,1-6.88-.88c-5.36-1.72-6.74-7.26-2.37-10.8a14.68,14.68,0,0,1,8.61-2.71c33.28-.18,66.56-.1,99.84-.14a35.36,35.36,0,0,0,7.42-.62,15.87,15.87,0,0,0,9.11-25.46,15.11,15.11,0,0,0-12-6.09c-15.13-.29-30.28-1-45.39-.62-27.48.74-54.36-1.82-80.61-10.53-11.7-3.88-23.87-6-36.33-3.83-18.76,3.28-34.69,12.56-48.67,24.84-20.74,18.21-40.74,37.27-61.16,55.85-2.53,2.3-2.19,3.73-.14,6.08,12.56,14.42,25,29,37.45,43.49,5.94,6.92,11.89,13.83,18,21,1.68-1.18,3.06-2.07,4.35-3.06,15.06-11.51,30.33-22.78,45.07-34.69a30.2,30.2,0,0,1,20.43-7.08c41.26.26,82.53.15,123.79.2,6.56,0,12.47-1.64,17.24-6.41q53.65-53.65,107.28-107.33c8.13-8.15,8.52-20,1.15-27.74a19.14,19.14,0,0,0-27.39-.15C425.33,309.41,409.11,326.12,392.41,342.92Z"/><path d="M150,498.77c-6.19,0-12-3.37-17.79-10.14-19.65-22.89-36.09-42-51.75-60.18-11-12.76-10.38-23.49,2-34.8,7-6.36,14-12.88,20.79-19.18,12.53-11.62,25.49-23.63,38.53-35.16,17.66-15.62,36-25.39,56.23-29.86,14.88-3.31,30.54-2,49.26,4,21.41,6.93,44.18,10,69.58,9.37,16.4-.4,33,.21,49.07.81l2.64.1A45,45,0,0,1,379,325.82l2,.55,11.19-11.21c11.06-11.07,22.49-22.52,33.8-33.91,7.26-7.32,15.3-11.47,24.58-12.68,16.07-2.12,30.89,5.13,38.68,18.89a38.54,38.54,0,0,1-3.58,43.48c-1.66,2-3.5,3.91-5.1,5.51q-43.3,43.33-86.64,86.66l-18.56,18.56-.8.79c-.42.4-.83.8-1.22,1.22-7,7.47-15.31,11-26,11h-.65c-39.8-.51-80.29-.34-119.46-.18l-8.27,0a11.08,11.08,0,0,0-6,2c-11.7,8.7-23.48,17.74-34.87,26.48q-6,4.57-11.92,9.14C160.32,496.53,155,498.76,150,498.77Zm64.34-181.09a64.93,64.93,0,0,0-14.18,1.53c-18.48,4.1-35.41,13.12-51.76,27.59-13,11.45-25.87,23.42-38.36,35-6.82,6.32-13.86,12.85-20.84,19.23-8.32,7.6-8.58,12.29-1.16,20.89,15.66,18.18,32.11,37.31,51.75,60.19,7.06,8.22,11.61,8.68,20.29,2q6-4.56,11.91-9.13c11.42-8.77,23.23-17.83,35-26.58a21.12,21.12,0,0,1,11.91-3.95l8.28,0c39.21-.17,79.75-.33,119.63.18,8.28.13,14-2.23,19.25-7.81.49-.53,1-1,1.52-1.54l.71-.69L386.82,416q43.32-43.34,86.64-86.66a63.92,63.92,0,0,0,4.4-4.74,28.58,28.58,0,0,0,2.64-32.25c-5.83-10.3-16.55-15.5-28.67-13.91-7,.92-13.14,4.13-18.79,9.82-11.32,11.4-22.75,22.85-33.81,33.93l-15.16,15.18-2.71-.63c-1.8-.41-3.46-.88-5.07-1.33a36.48,36.48,0,0,0-8.14-1.7l-2.64-.09c-15.91-.6-32.37-1.21-48.45-.82-26.57.66-50.4-2.56-72.9-9.84C233.14,319.44,223.38,317.68,214.31,317.68ZM149.25,486.12l-21-24.43-9.34-10.9c-9.18-10.7-18.67-21.76-28.08-32.57-5-5.79-2.49-10.29.54-13.06,7.36-6.68,14.78-13.56,22-20.2,12.77-11.81,26-24,39.27-35.71,16.33-14.34,33-22.85,51.11-26,11.75-2.06,24.43-.74,38.76,4,23.27,7.72,49.07,11.08,78.9,10.29,11.05-.3,22.23,0,33,.3,4.19.11,8.39.23,12.58.31a20.12,20.12,0,0,1,15.88,8,20.86,20.86,0,0,1-12,33.43,39.79,39.79,0,0,1-8.48.74l-31.14,0c-22.51,0-45.78,0-68.67.12a9.89,9.89,0,0,0-5.49,1.59c-.56.46-.78.87-.74,1.07s.48.76,1.49,1.09a17.89,17.89,0,0,0,5.35.64c37.57,0,70.39,0,100.32-.06,9.86,0,22.61-3.21,27.3-18.24,2.22-7.11,1.34-13.84-2.78-21.18l-1.84-3.3,2.66-2.67q7.31-7.36,14.53-14.7c11.45-11.59,23.28-23.59,35.12-35.11a24.6,24.6,0,0,1,17.68-7.11A23.73,23.73,0,0,1,473,289.87c9.3,9.77,8.77,24.69-1.24,34.72Q434,362.47,396.17,400.26l-31.66,31.66c-5.3,5.3-12.08,7.88-20.74,7.88h0q-17.94,0-35.89,0c-28.81,0-58.61,0-87.92-.18a25,25,0,0,0-17.26,6c-10.72,8.67-21.88,17.11-32.66,25.27q-6.27,4.74-12.52,9.5c-1,.74-1.93,1.4-3,2.11L153,483.52ZM98.69,412c9.33,10.71,18.72,21.66,27.81,32.25l9.34,10.89,15.1,17.57.46-.34q6.27-4.78,12.55-9.53c10.73-8.12,21.81-16.51,32.42-25.08A35.33,35.33,0,0,1,220,429.6c29.28.19,59,.18,87.86.18q18,0,35.9,0h0c6,0,10.29-1.57,13.67-4.95l31.66-31.66q37.83-37.81,75.61-75.66c6.18-6.19,6.63-14.93,1.07-20.76a13.71,13.71,0,0,0-9.77-4.29,14.55,14.55,0,0,0-10.52,4.28c-11.76,11.45-23.56,23.4-35,35l-12,12.15a35,35,0,0,1,1.87,25.65c-5,16-18.42,25.22-36.83,25.26-29.94.07-62.76.09-100.35.06a27.16,27.16,0,0,1-8.4-1.12,11.64,11.64,0,0,1-8.26-8.77,11.08,11.08,0,0,1,4.27-10.68c3.44-2.78,8.32-3.8,11.73-3.82,22.92-.12,46.21-.12,68.73-.12l31.13,0a30.81,30.81,0,0,0,6.37-.51,10.73,10.73,0,0,0,8-6.93A10.84,10.84,0,0,0,375,352.33a10.21,10.21,0,0,0-8.21-4.19q-6.33-.12-12.67-.31c-10.67-.29-21.71-.59-32.49-.3-31,.84-57.93-2.7-82.32-10.79-12.9-4.28-23.67-5.44-33.89-3.65-16.2,2.84-31.32,10.58-46.23,23.67-13.21,11.61-26.36,23.77-39.08,35.54C113.12,398.78,105.88,405.48,98.69,412Z"/><path d="M410.54,269.75c-4.62-1.66-9.17-3.51-13.87-4.88a8.2,8.2,0,0,0-5.62.32q-9.87,5.25-19.35,11.21c-1.48.92-3.07,3-3.15,4.6-.89,17.61-11.33,27.75-29,27.81-3.66,0-7.33.08-11,0-14.57-.44-25.67-11-26-25.47-.12-4.67-1.9-6.45-5.85-8.26a118.49,118.49,0,0,1-16.28-9.58c-2.34-1.57-3.93-2.07-6.63-.64-15.11,8-29.59,3.76-38.29-11.09-1.68-2.87-3.35-5.75-4.95-8.65-7.7-13.92-3.91-29,9.58-37.17,2.85-1.72,3.59-3.45,3.38-6.75a170.57,170.57,0,0,1,0-20.35c.17-3-.38-4.69-3.12-6.36C226.54,166,222.72,151,230.55,137c1.94-3.48,3.9-7,6-10.34,8.09-13,23-17,36.39-9.67,3.07,1.7,5,1.44,7.85-.48a174.4,174.4,0,0,1,17.64-10.19c2.46-1.26,3.81-2.27,3.92-5.38.61-17.42,11.53-27.76,29.09-27.73,5.14,0,10.36-.06,15.39.8A25.68,25.68,0,0,1,368.3,99.58c0,3.68,1.09,5.37,4.48,7a154.85,154.85,0,0,1,17.62,10.22c2.33,1.5,3.84,2,6.55.56,14.71-8.06,29.47-3.84,38,10.61,1.87,3.15,3.7,6.31,5.44,9.53,7.38,13.57,3.72,28.32-9.31,36.48-3.07,1.93-4.11,3.83-3.85,7.52a178,178,0,0,1,0,19.87c-.12,2.94.43,4.74,3.17,6.44,13.89,8.61,17.6,23.34,9.68,37.53-2.1,3.78-4.23,7.55-6.57,11.17C428.35,264.49,420.26,268.79,410.54,269.75ZM258.61,203.34c.84,7.22-1.86,12.29-7.85,15.67-.73.41-1.44.84-2.15,1.28-7.31,4.48-8.88,10.25-4.81,17.75,1.11,2,2.5,4,3.47,6.06,4.87,10.57,13.18,12.22,21.87,6.23,5.48-3.78,11.16-3,16.81.52,7.3,4.55,14.76,8.88,22.36,12.9,5.54,2.93,8.56,7.22,9,13.34,1.05,14.74,3.09,16.7,17.75,16.7h2.5c12.13,0,15.79-3.55,15.89-15.6.06-6.87,3.17-11.43,9.32-14.59a247.91,247.91,0,0,0,21.49-12.41c5.77-3.73,11.23-4.32,17.29-1,11.25,6.15,15.56,4.83,22.07-6.43.5-.86,1-1.71,1.52-2.57,6.49-11.24,5.43-15.54-5.55-22.38-6-3.73-8.16-8.88-7.59-16a162.56,162.56,0,0,0-.05-23.87c-.45-6.7,1.62-11.67,7.21-15.25.84-.54,1.72-1,2.57-1.53,7.8-4.73,9.34-10.53,4.88-18.52-1.21-2.18-2.47-4.33-3.72-6.48-5.52-9.51-10.9-11-20.52-5.57-6.69,3.81-12.75,3.29-19-1.22-5.1-3.68-10.38-7.5-16.16-9.72-9.69-3.71-14.53-9.58-13.87-20.26.42-6.71-4.25-11.24-10.93-11.85-3.14-.28-6.32-.17-9.48-.16-11.84,0-15.32,3.44-15.55,15.42-.14,7-3.37,11.74-9.66,15-7.35,3.79-14.53,8-21.51,12.39-5.63,3.58-11.06,4.07-16.87.9-1.17-.64-2.29-1.35-3.48-2-6.4-3.28-12.59-1.65-16.43,4.4-1.51,2.38-2.86,4.87-4.27,7.32-6,10.32-4.78,15.08,5.46,21.22,6,3.62,8.54,8.65,8.12,15.8C258.23,187.08,258.61,195.39,258.61,203.34Z"/><path d="M333.46,313.84c-1.68,0-3.38,0-5.07-.06-17.47-.53-30.46-13.29-30.89-30.34-.05-2.17-.14-2.57-2.93-3.84a121.58,121.58,0,0,1-17-10,8.31,8.31,0,0,0-1-.6,4.66,4.66,0,0,0-.49.22c-17.56,9.35-34.79,4.37-44.95-13-1.52-2.58-3.3-5.64-5-8.76-9-16.28-4.33-34.31,11.37-43.85a3.53,3.53,0,0,0,.94-.71h0a4.62,4.62,0,0,0,0-1.45,174.12,174.12,0,0,1,0-20.94,5.66,5.66,0,0,0,0-1.31,4.08,4.08,0,0,0-.7-.51c-16.15-9.85-20.8-27.61-11.58-44.21,1.89-3.4,3.93-7,6.14-10.56,9.6-15.39,27.3-20.08,43-11.39a3.39,3.39,0,0,0,1.22.5,4.21,4.21,0,0,0,1.42-.76,174.6,174.6,0,0,1,18.16-10.48,11.36,11.36,0,0,0,1.16-.66,3.34,3.34,0,0,0,0-.45c.71-20.09,13.74-32.56,34-32.56h1.39a88.92,88.92,0,0,1,14.93.87A30.51,30.51,0,0,1,373.3,99.59c0,1.68,0,1.68,1.62,2.45a159.56,159.56,0,0,1,18.2,10.54,9,9,0,0,0,1,.59l.43-.21c17.13-9.39,34.69-4.51,44.74,12.44,2.18,3.69,3.94,6.77,5.53,9.69,8.64,15.9,4.09,33.63-11.05,43.11-1.56,1-1.65,1.14-1.52,2.93a183,183,0,0,1,0,20.42,4.27,4.27,0,0,0,.08,1.43h0a2.93,2.93,0,0,0,.73.56c16,9.94,20.63,27.71,11.42,44.22-2.18,3.91-4.34,7.73-6.75,11.45-5.84,9-15.07,14.37-26.7,15.51l-1.13.11-1.06-.38c-1.32-.47-2.64-1-4-1.46-3.3-1.23-6.42-2.39-9.61-3.32a3.79,3.79,0,0,0-1.92,0c-6.29,3.34-12.7,7.05-19,11a3.45,3.45,0,0,0-.82.94c-1.14,20.12-13.83,32.17-34,32.24l-2.35,0ZM276.62,259a11.65,11.65,0,0,1,6.53,2.34,113.09,113.09,0,0,0,15.58,9.18c4.44,2,8.57,5,8.77,12.68.29,11.58,9.2,20.24,21.19,20.6,2.77.09,5.65.07,8.43.05l2.38,0c15-.05,23.3-8,24.06-23.06.18-3.65,3-7,5.48-8.59,6.5-4.07,13.11-7.9,19.66-11.38a13.28,13.28,0,0,1,9.37-.71c3.54,1,7,2.31,10.3,3.55l2.77,1c8.08-1,14.2-4.7,18.2-10.88,2.24-3.46,4.31-7.12,6.41-10.88,6.62-11.88,3.57-23.71-8-30.85-5.17-3.21-5.67-7.51-5.53-10.9a172.72,172.72,0,0,0,0-19.31c-.38-5.45,1.52-9.18,6.19-12.1,10.78-6.76,13.76-18.48,7.57-29.87-1.53-2.81-3.23-5.78-5.35-9.36-7.27-12.26-19-15.54-31.32-8.77-5,2.74-8.57,1.26-11.67-.75a151,151,0,0,0-17.05-9.9c-5.15-2.44-7.34-5.88-7.34-11.5A20.63,20.63,0,0,0,346,78.89a79.79,79.79,0,0,0-13.24-.73h-1.38c-15,0-23.49,8.14-24,22.91-.22,6.37-4.38,8.5-6.62,9.65a165.09,165.09,0,0,0-17.14,9.88c-4.53,3.05-8.44,3.27-13.06.72-11-6.08-23-2.89-29.73,7.93-2.09,3.35-4.05,6.84-5.88,10.13-6.53,11.75-3.38,23.85,8,30.81,5.21,3.17,5.71,7.3,5.51,10.91a167,167,0,0,0,0,19.76c.34,5.28-1.39,8.67-5.77,11.34C231.47,219,228.4,231,234.87,242.67c1.67,3,3.41,6,4.89,8.54,7.4,12.61,18.93,16,31.63,9.21A11,11,0,0,1,276.62,259Zm96.86,22.7Zm.07-.43h0Zm20.39-168Zm-96.65-11.91Zm40.27,197.47h-2.5c-17.25,0-21.51-4-22.74-21.34-.31-4.32-2.21-7.09-6.35-9.28-7.33-3.88-15-8.28-22.66-13.08-5.71-3.56-9.06-2.21-11.34-.64-7.14,4.92-13,4.76-16.64,3.76s-8.86-3.91-12.6-12a31.86,31.86,0,0,0-1.76-3.11c-.52-.84-1.06-1.72-1.57-2.65-5.34-9.85-3-18.52,6.6-24.4.76-.47,1.52-.93,2.3-1.37,4.34-2.45,5.93-5.66,5.34-10.74l0-.58c0-2.36,0-4.76-.07-7.17-.08-5.75-.16-11.68.2-17.65.32-5.34-1.33-8.59-5.7-11.21-12.5-7.5-14.52-15.35-7.22-28l1.17-2.06c1-1.79,2.06-3.63,3.21-5.44,5.21-8.22,14.22-10.64,22.94-6.17.8.42,1.54.85,2.26,1.26.44.26.88.52,1.33.76,4,2.19,7.54,2,11.79-.73,7.23-4.6,14.6-8.85,21.9-12.61,4.77-2.46,6.85-5.64,6.95-10.64.28-14.61,6-20.31,20.55-20.32l2,0c2.56,0,5.2,0,7.89.2,9.68.88,16,7.92,15.47,17.14-.49,8,2.4,12.11,10.67,15.28,6.33,2.43,11.82,6.39,17.13,10.22l.16.11c4.78,3.45,8.73,3.72,13.62.94,12-6.82,20.39-4.54,27.31,7.4l.7,1.21c1,1.77,2.07,3.55,3.07,5.34,5.78,10.37,3.47,19.09-6.66,25.23l-1.09.65c-.46.26-.93.53-1.37.82-3.84,2.46-5.27,5.56-4.92,10.7a168.45,168.45,0,0,1,.05,24.61c-.45,5.55,1,8.74,5.24,11.37,13.23,8.24,15.06,15.59,7.24,29.13-.26.45-.53.9-.8,1.35l-.72,1.22c-7.9,13.67-15.17,15.77-28.79,8.32-4.2-2.3-7.73-2.06-12.18.82-7,4.52-14.37,8.78-21.93,12.66-4.64,2.38-6.55,5.33-6.6,10.18C358.33,293,352.47,298.78,337.56,298.79Zm-60.81-56a22.26,22.26,0,0,1,11.85,3.78c7.5,4.67,14.92,8.95,22,12.72s11.1,9.65,11.65,17.41c.33,4.5.84,9.29,2.22,10.59s6.1,1.46,10.55,1.46h2.5c9.39,0,10.81-1.4,10.89-10.64.08-8.55,4.12-14.94,12-19A243.12,243.12,0,0,0,381.55,247c7.58-4.9,14.91-5.29,22.4-1.2,4.5,2.46,7.36,3.39,9,2.91s3.69-2.86,6.34-7.45c.26-.45.53-.9.8-1.35s.49-.82.72-1.23c5.15-8.9,4.82-10.22-3.86-15.63-7.43-4.62-10.67-11.38-9.93-20.66a156.87,156.87,0,0,0-.06-23.14c-.59-8.72,2.61-15.38,9.5-19.79.57-.37,1.16-.71,1.74-1l.94-.55c5.48-3.32,6.23-6.19,3.1-11.8-1-1.75-2-3.47-3-5.2l-.71-1.22c-4.18-7.21-6.49-7.84-13.71-3.72-8.27,4.71-16.49,4.2-24.42-1.52l-.15-.11c-4.8-3.46-9.75-7-14.87-9-12.25-4.7-17.83-13-17.07-25.24.34-5.52-4.81-6.42-6.39-6.56-2.2-.2-4.49-.18-6.9-.16l-2.12,0c-9.1,0-10.39,1.28-10.56,10.51-.17,8.69-4.33,15.19-12.37,19.34-7,3.62-14.13,7.71-21.11,12.16-7.33,4.66-14.71,5-22,1.07l-1.56-.89c-.6-.35-1.19-.7-1.8-1-4.13-2.12-7.48-1.24-9.93,2.62-1,1.6-1.95,3.26-2.94,5-.41.72-.81,1.43-1.22,2.13-4.6,8-4.15,9.73,3.7,14.44,7.64,4.58,11.09,11.25,10.54,20.39-.34,5.59-.26,11.34-.18,16.91,0,2.36.07,4.71.07,7,.94,8.92-2.65,15.93-10.4,20.31-.67.38-1.33.78-2,1.18-5.09,3.12-5.85,5.92-3,11.1.38.71.83,1.43,1.3,2.19a41.58,41.58,0,0,1,2.32,4.16c1.17,2.55,3.19,5.75,6.16,6.57s6.13-.84,8.33-2.35A18.26,18.26,0,0,1,276.75,242.83Z"/><path d="M381.59,191.21c0,25.52-21,46.42-46.35,46.33S288.85,216.28,289,191a46.31,46.31,0,0,1,92.62.22ZM304.25,191a31.14,31.14,0,1,0,30.95-31.2A31,31,0,0,0,304.25,191Z"/><path d="M335.41,242.54h-.18a51.34,51.34,0,0,1-36-87.89,51.7,51.7,0,0,1,36.49-14.78H336c28,.12,50.66,23.15,50.61,51.35h0a51.49,51.49,0,0,1-51.18,51.32Zm.33-92.67c-23.33,0-41.66,18-41.77,41.14a41.8,41.8,0,0,0,41.29,41.53h.15a40.8,40.8,0,0,0,28.9-12,41.26,41.26,0,0,0,12.28-29.32c0-22.69-18.19-41.24-40.65-41.33Zm-.51,77.49A35.58,35.58,0,0,1,310,217a36.12,36.12,0,0,1-10.72-26h0a36.24,36.24,0,0,1,35.93-36.19h.14a36.28,36.28,0,0,1,.25,72.56Zm-26-36.35A26.26,26.26,0,0,0,317,209.86a25.69,25.69,0,0,0,18.22,7.5h.25a26.28,26.28,0,0,0-.16-52.56h-.1a26.21,26.21,0,0,0-26,26.21Z"/></svg>