<?xml version="1.0" encoding="utf-8"?>
<!-- Generator: Adobe Illustrator 16.0.0, SVG Export Plug-In . SVG Version: 6.00 Build 0)  -->
<!DOCTYPE svg PUBLIC "-//W3C//DTD SVG 1.1//EN" "http://www.w3.org/Graphics/SVG/1.1/DTD/svg11.dtd">
<svg version="1.1" id="Layer_1" xmlns="http://www.w3.org/2000/svg" xmlns:xlink="http://www.w3.org/1999/xlink" x="0px" y="0px"
	 width="413.914px" height="285.104px" viewBox="169.046 239.128 413.914 285.104"
	 enable-background="new 169.046 239.128 413.914 285.104" xml:space="preserve">
<g>
	<path d="M579.171,508.13c2.367-4.262,3.789-9.473,3.789-14.681V269.92c0-5.211-1.422-9.945-3.316-14.207l-138.29,107.5
		L579.171,508.13z"/>
	<path d="M369.37,390.68c2.84,2.367,6.629,2.367,9.473,0l188.96-147.29c-4.734-2.84-9.945-4.262-16.102-4.262H200.31
		c-4.734,0-9.473,1.422-13.733,3.316L369.37,390.68z"/>
	<path d="M428.091,373.63l-38.833,30.309c-4.262,3.316-9.945,5.211-15.155,5.211c-5.684,0-10.892-1.895-15.629-5.684l-36.938-29.836
		l-137.34,146.34c4.734,2.84,9.945,4.262,15.629,4.262h351.4c5.684,0,10.891-1.422,15.629-4.262L428.091,373.63z"/>
	<path d="M173.78,253.34c-2.84,4.734-4.734,10.418-4.734,16.574v223.05c0,5.211,1.422,10.418,3.789,14.68l135.92-144.91
		L173.78,253.34z"/>
</g>
</svg>
