<svg id="b4ade8f1-0a41-412a-9ef9-0bec2cef39f2" data-name="Layer 1" xmlns="http://www.w3.org/2000/svg" viewBox="0 0 1080 1080"><title>Untitled-1</title><path d="M157.38,924.58c4.45-16.39,8.6-31.73,12.79-47.07,13.26-48.43,26.59-96.83,39.63-145.32a14.46,14.46,0,0,0-1.3-9.78c-25.27-45.9-41.89-94.78-45.83-147-11.32-150.12,45-269.23,168.18-355.68,51.45-36.1,109.69-55.53,172.13-62.22C694.83,137,875,268,914.31,456.69c35.55,170.71-45.19,340.64-200,419.93-61.81,31.66-127.64,45-197,40.54-54.26-3.44-105.31-18.06-153.55-43a14.11,14.11,0,0,0-9.23-1q-96.39,25-192.69,50.33C160.77,923.78,159.77,924,157.38,924.58ZM416.12,361c-14.8-1.78-26.29,2.54-36.13,12.88-33.51,35.24-39.34,75.78-23.94,120.58,8.54,24.86,23.42,46.15,38.42,67.38C443.25,630.91,504,684.12,587,708.15c23.78,6.89,47.33,14.52,72.65,10.47,35.94-5.76,75.82-30.11,75.55-80.06-.05-8.43-2.37-14-10.4-17.71-16.41-7.53-32.45-15.85-48.74-23.63-9.36-4.46-18.76-8.92-28.43-12.61-9.36-3.57-13.12-1.69-19.22,6.12q-14.19,18.16-29,35.83c-5.79,6.92-10.47,7.77-18.79,4.46-56.07-22.26-99.24-59.61-130.13-111.3-6.18-10.34-5.27-13.37,2.41-22.6,8.31-10,15.85-20.67,23.23-31.39,3.37-4.89,2.8-10.58.49-16.12-9.28-22.21-18.84-44.31-27.5-66.76C443,366.91,433.55,357.4,416.12,361Z"/></svg>