<svg id="bd120849-ff9e-498d-ba1c-5c243775664f" data-name="Layer 1" xmlns="http://www.w3.org/2000/svg" viewBox="0 0 566.93 566.93"><defs><style>.a9fbb7b6-b764-4d39-a9ef-009655db7e3d{stroke:#000;stroke-miterlimit:10;stroke-width:5.83px;}</style></defs><title>Untitled-1</title><path class="a9fbb7b6-b764-4d39-a9ef-009655db7e3d" d="M460.31,283.43q0,76.59,0,153.18c0,29.73-18.9,53.84-47.34,60.58a63.36,63.36,0,0,1-14.4,1.64q-115,.15-230.07.05c-34.41,0-61.68-26.65-61.77-61-.21-83.48-.06-167-.08-250.45a19.85,19.85,0,0,1,6-14.62Q160.55,124,208.32,75A21.58,21.58,0,0,1,224.85,68q86.5.17,173,.07c35.43,0,62.34,26.68,62.43,62.15C460.4,181.3,460.31,232.36,460.31,283.43Zm-320.23-77v6.78q0,111.29,0,222.56c0,18.41,11.28,29.62,29.77,29.63H397.08c18.46,0,29.77-11.25,29.77-29.65q0-152.36,0-304.7c0-18.1-11.33-29.44-29.37-29.45q-75.75,0-151.48,0h-6.71v7c0,20,.15,40-.08,60C239,187,226.13,202,208.05,205.46a57.46,57.46,0,0,1-10.4.92C178.67,206.46,159.69,206.42,140.08,206.42Zm19.59-35.51c1,1.26,1.21,1.79,1.44,1.79,13.19.09,26.39.34,39.57,0,1.83,0,5.06-3.13,5.12-4.89.42-13.68.23-27.39.23-40.34Z"/><path class="a9fbb7b6-b764-4d39-a9ef-009655db7e3d" d="M283.24,294.76q-37.24,0-74.48,0c-9.75,0-16.18-4.28-18.46-12A16.38,16.38,0,0,1,206,261.43c13.38-.17,26.76,0,40.15,0H358.46c11.38,0,19.1,6.78,19,16.64s-7.88,16.68-19.17,16.71C333.29,294.8,308.26,294.76,283.24,294.76Z"/><path class="a9fbb7b6-b764-4d39-a9ef-009655db7e3d" d="M244.57,374.5c-12.42,0-24.85.07-37.27,0-10.46-.07-17.93-7.11-17.85-16.6.07-9.26,7.39-16.36,17.49-16.41q37.84-.2,75.69,0c10.63.06,17.51,7,17.33,16.92-.17,9.57-7.11,16-17.55,16.1C269.8,374.57,257.18,374.5,244.57,374.5Z"/></svg>