<svg id="e3fba127-a3e7-450d-bc1c-2816cc985135" data-name="Layer 1" xmlns="http://www.w3.org/2000/svg" viewBox="0 0 566.93 566.93"><defs><style>.a4d81c72-e982-4a2f-89b1-f24060d8af5c{stroke:#000;stroke-miterlimit:10;stroke-width:5px;}</style></defs><title>Untitled-1</title><path class="a4d81c72-e982-4a2f-89b1-f24060d8af5c" d="M215.13,340.3H222q102.33,0,204.67,0c5.14,0,9.95.42,13.74,4.45s5.23,8.61,3.51,13.77a14,14,0,0,1-11.43,9.94,38.7,38.7,0,0,1-6.47.3q-114.06,0-228.13,0a29.74,29.74,0,0,1-8.87-.88c-8.23-2.61-11.63-11.25-8-20,6.36-15.5,13-30.91,19.18-46.48a11.66,11.66,0,0,0,.06-7.86c-22-55.37-44.21-110.64-66.21-166-1.49-3.74-3.28-4.9-7.22-4.82-13.48.26-27,.13-40.44.09-9,0-15.19-5.45-15.49-13.4-.31-8.53,5.16-14.84,14.42-15,18.79-.38,37.6-.26,56.4,0,6.8.08,11.39,4,13.89,10.35,4,10.19,8.4,20.25,12,30.58,1.75,5,4.18,6.62,9.57,6.61,100.34-.18,200.68.07,301-.38,13.6-.06,20.17,10,17.32,21.59-9.58,39-18.23,78.2-27.26,117.33-1.83,7.94-6.36,12-15.07,12.77-13.91,1.28-27.84,2.23-41.76,3.33q-34.31,2.72-68.62,5.45-34.55,2.76-69.1,5.53c-14.08,1.12-28.17,2.23-42.27,3.21-3.06.21-4.68,1.51-5.79,4.35C222.38,323.19,218.9,331.24,215.13,340.3ZM182.28,170.4a14.36,14.36,0,0,0,.4,2.11q21.44,53.63,42.84,107.25c1,2.64,2.54,2.9,4.95,2.67,7.27-.72,14.57-1.24,21.86-1.82q33.55-2.66,67.11-5.3,41.74-3.31,83.5-6.69c13.07-1.05,26.14-2.12,39.29-3.19,7.3-31.71,14.55-63.17,21.89-95Z"/><path class="a4d81c72-e982-4a2f-89b1-f24060d8af5c" d="M335.54,424.92c.15-25.83,21.82-47,47.75-46.73a47.47,47.47,0,0,1,47,47.54c-.12,25.77-21.86,47.31-47.56,47.11A47.66,47.66,0,0,1,335.54,424.92Zm66,.31a18.6,18.6,0,0,0-18.65-18.7c-10.6,0-18.77,8.33-18.69,19.13a18.51,18.51,0,0,0,18.62,18.7C393.44,444.38,401.62,436,401.56,425.23Z"/><path class="a4d81c72-e982-4a2f-89b1-f24060d8af5c" d="M193.7,425.4a47.3,47.3,0,0,1,47.22-47.22c26,0,47.41,21.18,47.51,47.06s-21.73,47.8-47.6,47.6A47.58,47.58,0,0,1,193.7,425.4Zm66,.26A18.69,18.69,0,1,0,241,444.35,18.66,18.66,0,0,0,259.7,425.66Z"/></svg>