<svg id="a81f5b07-5e4e-4d28-a98a-4394408be85d" data-name="Layer 1" xmlns="http://www.w3.org/2000/svg" viewBox="0 0 566.93 566.93"><defs><style>.e129873f-91f1-4fee-afb6-cb6321be1d21,.e4af8dc5-da96-4e56-91d6-0030b0a62b6d{stroke:#fff;stroke-miterlimit:10;}.e129873f-91f1-4fee-afb6-cb6321be1d21{stroke-width:10px;}.e4af8dc5-da96-4e56-91d6-0030b0a62b6d{stroke-width:12.21px;}</style></defs><title>Untitled-1</title><path class="e129873f-91f1-4fee-afb6-cb6321be1d21" d="M398.6,417c-10.49-4.84-19.12-11.42-25.52-20.63-6.81-9.79-10.68-20.59-10.71-32.61,0-13.82-.3-27.64,0-41.44.59-25,12.78-42.76,35.11-53.53,3.05-1.47,4.07-2.88,4.08-6.18.05-19.14.17-38.17-6.18-56.68-15.21-44.37-55.5-75.91-102.2-79.52-62-4.8-116.55,37.53-126.23,98.8-2,12.86-1.2,26.2-1.37,39.32,0,1.3,1.93,3.17,3.39,3.85,19.9,9.32,31.92,24.77,35,46.43,1.26,8.65.63,17.61.52,26.42-.13,10.62.56,21.44-1.16,31.83-4.74,28.56-29.66,48.57-58.61,48.25-28.69-.31-53.58-21.11-57.54-49.65C85.5,359,86.17,346,86.45,333.24c.2-9.24.31-18.79,2.67-27.62,4.63-17.31,16.16-29.57,32.52-36.87,3.4-1.52,4.21-3.25,4.14-6.59-.39-19.31.06-38.51,4.84-57.45,15-59.36,65.87-106.47,125.81-116.08,85-13.62,161.48,37.87,181.15,121.9,3.95,16.85,3.85,34,3.54,51.11-.07,3.78.92,5.6,4.59,7.35,21.08,10.05,33.23,26.81,34.5,50.27a422.47,422.47,0,0,1,0,46.4c-1.38,24.55-14.4,41.53-36.71,51.35a8.34,8.34,0,0,0-5.41,6.18c-8.92,33.14-40.61,57.28-75,57.28-11.46,0-20.4-8.34-20.64-19.26s7.94-19.5,19.69-20.13C378.9,440.19,391,432.42,398.6,417ZM165.05,342.8c0-6.49.13-13,0-19.46-.31-11.91-8.39-20.11-19.58-20.08s-19.41,8.42-19.6,20.2c-.21,12.8-.25,25.61,0,38.41.25,11.66,8.94,20.06,20,19.87s18.87-8.31,19.2-20C165.19,355.44,165,349.12,165.05,342.8Zm236.83-.61c0,6.48-.13,13,0,19.45.28,11.69,8.1,19.84,19.08,20.1s19.78-8.1,20.06-19.76q.45-19.44,0-38.91c-.26-11.72-8.79-19.91-20-19.81-10.91.11-18.88,8.31-19.18,20C401.75,329.55,401.88,335.87,401.88,342.19Z"/><circle class="e4af8dc5-da96-4e56-91d6-0030b0a62b6d" cx="335.57" cy="468.64" r="32.83"/></svg>