<svg id="bf088b0e-0b44-4dd5-a22a-5759fcc53e53" data-name="Layer 1" xmlns="http://www.w3.org/2000/svg" viewBox="0 0 566.93 566.93"><title>Untitled-1</title><path d="M283.18,492.2c-43.36,0-86.72-.22-130.08.05-59.88.37-58.32,3.19-57.54-57.36.08-5.81.14-11.65.77-17.41,6.47-59.17,37.31-100.46,91.86-123.89,16.64-7.14,34.31-10.26,52.49-10.22,28.73.07,57.46,0,86.19,0,71.18.1,133.57,53.88,142.65,124.49,2.73,21.19,2,42.88,1.94,64.35,0,11.27-8.78,19.05-20.13,19.86-1.93.14-3.88.09-5.82.09ZM138.09,450H429.64c0-6.87,0-13.37,0-19.87-.1-58.28-45.78-104.4-104-104.77-28.19-.18-56.39-.13-84.58,0-27.08.12-50.63,9.55-70.36,28C142.68,379.53,134.73,412.72,138.09,450Z"/><path d="M283.58,74.55c51.67,0,94,42.06,94.09,93.56a94.06,94.06,0,1,1-94.09-93.56Zm-51.93,94a52,52,0,1,0,52-52.19A52.05,52.05,0,0,0,231.65,168.55Z"/></svg>