<svg id="ee17ce36-37bd-4618-9cad-33cb9e95ac5d" data-name="Layer 1" xmlns="http://www.w3.org/2000/svg" viewBox="0 0 1080 1080"><title>Untitled-1</title><path d="M540.69,952.24c-23.93-26.09-46.55-49.82-68.11-74.47C412,808.53,357.3,735,313.32,653.94,282.81,597.72,259,539.05,246.67,475.8c-28.25-144.43,53.77-287.18,194.56-331,118.82-37,226.52-14.35,316.4,73.67,56.61,55.44,82.73,125,81.18,204.56-1.27,64.73-21.35,124.63-48.24,182.51-42.26,91-99.41,172.33-163.62,248.86C599.51,887.11,570.51,918.52,540.69,952.24Zm-.11-433.77,9.92-.49c73-4,118.61-82.46,85.63-147.5-21.08-41.56-68.93-64-117.24-55-47.75,8.91-84.43,50.25-85.34,96.18C432.36,472.25,478.94,518.74,540.58,518.47Z"/></svg>