<svg id="ec00faae-db77-473f-8efa-1c8f8f27e00a" data-name="Layer 1" xmlns="http://www.w3.org/2000/svg" viewBox="0 0 566.93 566.93"><defs><style>.ab488b28-a431-41f3-b95f-4b8e99fdebeb{fill:#fbc7b4;}.eaacaeec-23ad-4018-88ec-c4c28a545118{fill:#231f20;}.fc1249a5-b694-4ab2-a57c-b32bb57b28c1{fill:#403e3e;}.fc8dc623-3df7-4f92-aee5-0cd5947d3072{fill:#fecf0a;}.ab89b8d1-ebb2-4fb1-8276-af9ccff7bc31{fill:#fee2cb;}.ec490817-b9c9-4304-be82-36cdd22a93a8{fill:#e2a572;}.f02051d5-be14-4399-9009-ce83d5b3c06f{fill:#f29b87;}.a912b38e-e406-4ec8-be6f-7a3057be6777{fill:#f37663;}.b0a6138e-14ed-459b-816f-da3afd0d5f3f{fill:#2c323f;}.bb395577-0808-463e-bee5-45f29d108c1a{fill:#dbe8f7;}</style></defs><title>MVP_Journey</title><path class="ab488b28-a431-41f3-b95f-4b8e99fdebeb" d="M197.6,219v80.74l55,8.8V230.41Z"/><path class="eaacaeec-23ad-4018-88ec-c4c28a545118" d="M184.55,287.8l-2.46,204.7s-17.67,31.91,11.78,31.91H331.55c4.19-9.62,2.8-18.48-6.92-26.18L306.5,302.12Z"/><path class="fc1249a5-b694-4ab2-a57c-b32bb57b28c1" d="M239.92,294.3l-14.8,89.32,48.79,52.7h42.61l2.06-3.41L306.5,302.12Z"/><path class="fc8dc623-3df7-4f92-aee5-0cd5947d3072" d="M459,282.12H252.63V421c19.95,22.15,51.77,52,92,71.52H459Z"/><path class="ab89b8d1-ebb2-4fb1-8276-af9ccff7bc31" d="M327.74,282.12h56.11v52.81H327.74Z"/><path class="fc8dc623-3df7-4f92-aee5-0cd5947d3072" d="M314.21,134.52H459v147.6H314.21Z"/><path class="ab89b8d1-ebb2-4fb1-8276-af9ccff7bc31" d="M366.9,134.52h39.36v37H366.9Z"/><path class="fc1249a5-b694-4ab2-a57c-b32bb57b28c1" d="M183.91,340.81,183,415.5c3.17,4.25,7.67,9.13,11,13.2a4.5,4.5,0,0,1-.21,6,7.93,7.93,0,0,0-.64,10.24c5.82,7.77,17.52,22.3,31.26,33.33a9.38,9.38,0,0,0,11.81-.07,4.47,4.47,0,0,1,5.66,0c9.62,7.81,42.72,33.38,78.48,46.27h11.17c4.19-9.63,2.8-18.49-6.92-26.19l-2.17-23.41c-89.91-32.94-125.42-98.27-138.55-134Z"/><path class="ec490817-b9c9-4304-be82-36cdd22a93a8" d="M383.23,447.88c-32.78-7.16-67.39-29.09-75.33-34.32a2.51,2.51,0,0,1-1-3,9.8,9.8,0,0,0-3-11.05L281.6,382.63,254,423.15c20.91,22.38,52.23,50.52,91.13,69.35h67.71c.14-.69.26-1.38.37-2.06,3.15-19.8-10.39-38.28-30-42.56Z"/><path class="eaacaeec-23ad-4018-88ec-c4c28a545118" d="M272.18,395.51c-29.57-33.44-47.28-72-56.64-97.26a31.71,31.71,0,0,0-59.79,21.12c16.93,50.62,40.06,88.55,65.36,117Z"/><path class="ab488b28-a431-41f3-b95f-4b8e99fdebeb" d="M362,517.16a30.22,30.22,0,0,0,12.71-59.08C337,449.75,307,430.55,283.52,407.47L235,450.77a251.3,251.3,0,0,0,127,66.39Z"/><path class="f02051d5-be14-4399-9009-ce83d5b3c06f" d="M197.6,267.08l55-10.41V230.41L197.6,219Z"/><path class="a912b38e-e406-4ec8-be6f-7a3057be6777" d="M239.31,113.53s16.92-11.81,17.55-31.06a11.15,11.15,0,0,0-14.94-10.73l-7,2.52a49.5,49.5,0,0,0-4-23.65,14,14,0,0,0-18.61-6.79,13.8,13.8,0,0,0-2.72,1.67C197.74,54.62,178.09,68.31,158.8,75c0,0-82.47,28.22-37.31,85.66,0,0-23.21,56,47.06,56l64.87-34.2Z"/><path class="ab488b28-a431-41f3-b95f-4b8e99fdebeb" d="M197.56,156.45c2.05,10.35,2,24.2-7.83,35.14,0,0-15.22-12.77-27.49,0,0,0-14.24,12.27,0,29.94,0,0,13.9,20.13,36.4,4.42L212.07,239a43,43,0,0,0,51.81,6.37l.9-.54a57.22,57.22,0,0,0,21.74-74.67,165.53,165.53,0,0,0-47.2-56.66l-31,18.61a23.09,23.09,0,0,0-10.74,24.31Z"/><path class="b0a6138e-14ed-459b-816f-da3afd0d5f3f" d="M230.55,181.55a5.81,5.81,0,0,1-1.17-.12,6.24,6.24,0,0,1-3.09-1.64,7.51,7.51,0,0,1-.75-.92,6.4,6.4,0,0,1-.54-1,6,6,0,0,1,1.29-6.56,7.19,7.19,0,0,1,.92-.75,6.15,6.15,0,0,1,1-.56,5.44,5.44,0,0,1,1.13-.33,6.08,6.08,0,0,1,5.44,1.64,5.47,5.47,0,0,1,.73.92,4.54,4.54,0,0,1,.56,1,5.48,5.48,0,0,1,.35,1.13,6,6,0,0,1-4.71,7.08,6.78,6.78,0,0,1-1.2.11Z"/><path class="b0a6138e-14ed-459b-816f-da3afd0d5f3f" d="M251.28,164.4a5.83,5.83,0,0,1-1.18-.12,5.68,5.68,0,0,1-1.13-.35,5.46,5.46,0,0,1-1-.55,7.27,7.27,0,0,1-.92-.74,5.9,5.9,0,0,1-.73-.92,5.79,5.79,0,0,1-.56-1,6,6,0,0,1,1.29-6.56,8.24,8.24,0,0,1,.92-.76,6.89,6.89,0,0,1,1-.55,9.15,9.15,0,0,1,1.13-.34,5.81,5.81,0,0,1,2.35,0,6.39,6.39,0,0,1,1.13.34,6.89,6.89,0,0,1,1,.55,7.43,7.43,0,0,1,.92.76,6,6,0,0,1,1.76,4.26,5.74,5.74,0,0,1-.12,1.17,6.12,6.12,0,0,1-.33,1.13,7,7,0,0,1-.56,1,6,6,0,0,1-.75.92,6,6,0,0,1-.92.74,5.18,5.18,0,0,1-1,.55,5.48,5.48,0,0,1-1.13.35,5.81,5.81,0,0,1-1.17.12Z"/><path class="f02051d5-be14-4399-9009-ce83d5b3c06f" d="M190,206.61c-3.24-3.49-8.64-8-15.16-8.54a1.72,1.72,0,0,0-.8,3.3,19,19,0,0,1,8.38,6.89l-.23.05a5.22,5.22,0,0,0,.49,10.18,10.5,10.5,0,0,0,5-.58l.22-.09a7.11,7.11,0,0,0,3.25-9.51A6.9,6.9,0,0,0,190,206.61Z"/><path class="ec490817-b9c9-4304-be82-36cdd22a93a8" d="M314.21,263.75H459v18.37H314.21Z"/><path class="f02051d5-be14-4399-9009-ce83d5b3c06f" d="M283.52,407.47,235,450.77a256.83,256.83,0,0,0,23.55,20.16c20-13.69,38.43-38.47,44.26-46.69a211.62,211.62,0,0,1-19.26-16.77Z"/><path class="bb395577-0808-463e-bee5-45f29d108c1a" d="M214.43,426l50.71-43.77a12.21,12.21,0,0,1,17.23,1.26,11.27,11.27,0,0,1,.89,1.17l11.11,16.52a13.36,13.36,0,0,1-1.78,17l-43,41.84a13.33,13.33,0,0,1-17.69.83,173.29,173.29,0,0,1-18.57-17.47,12.19,12.19,0,0,1,.9-17.21l.22-.19Z"/></svg>