<svg id="fa3fb413-67a3-47ea-b654-92dac85dd634" data-name="Layer 1" xmlns="http://www.w3.org/2000/svg" viewBox="0 0 566.93 566.93"><defs><style>.f00c7c66-310b-4d51-82fd-6492cb905a6f{fill:#fecf0a;}.b0ba6853-7d36-46d2-a96d-51cdc0f040a4{fill:#e4ba22;}.f0230145-d394-4fca-ab2a-5255192b60a4{fill:#4a4345;}.ad1c33ca-55ca-44ed-9441-1db91195988c{fill:#231f20;}</style></defs><title>MVP_Journey</title><path class="f00c7c66-310b-4d51-82fd-6492cb905a6f" d="M427.68,254.24H365.82V191.13a2.17,2.17,0,0,0-2.17-2.17H234.19a2.17,2.17,0,0,0-2.17,2.17V321.44h200.7V259.28A5,5,0,0,0,427.68,254.24Z"/><path class="b0ba6853-7d36-46d2-a96d-51cdc0f040a4" d="M432.72,321.44h-66.9v-67.2h61.86a5,5,0,0,1,5,5v62.16Z"/><rect class="b0ba6853-7d36-46d2-a96d-51cdc0f040a4" x="232.03" y="254.23" width="66.9" height="67.2"/><path class="b0ba6853-7d36-46d2-a96d-51cdc0f040a4" d="M365.82,254.24h-66.9V189h64.73a2.17,2.17,0,0,1,2.17,2.17v63.11Z"/><path class="f00c7c66-310b-4d51-82fd-6492cb905a6f" d="M136.31,176.33V127.75a7.53,7.53,0,1,0-15,0v48.58Z"/><rect class="f00c7c66-310b-4d51-82fd-6492cb905a6f" x="63.47" y="251.72" width="130.63" height="73.04"/><rect class="b0ba6853-7d36-46d2-a96d-51cdc0f040a4" x="138.32" y="251.72" width="55.79" height="73.04"/><path class="f0230145-d394-4fca-ab2a-5255192b60a4" d="M447.66,306.54h0a12.87,12.87,0,0,1-12.87,12.87H42.59A5.43,5.43,0,0,0,37.26,326c4,18.75,13.59,43.59,36.15,68.78a15.79,15.79,0,0,1,2.45,17.32L63.71,437.5a6.43,6.43,0,0,0,5.8,9.21h388a6.41,6.41,0,0,0,5.79-3.68l65.88-140.25a6.4,6.4,0,0,0-5.79-9.12H460.53A12.88,12.88,0,0,0,447.66,306.54Z"/><path class="ad1c33ca-55ca-44ed-9441-1db91195988c" d="M523.38,293.66H472.74l-71.89,153H457.5a6.41,6.41,0,0,0,5.79-3.68l65.88-140.25A6.4,6.4,0,0,0,523.38,293.66Z"/><path class="f00c7c66-310b-4d51-82fd-6492cb905a6f" d="M171.93,245.26H85.64V175.44a3.67,3.67,0,0,1,3.67-3.67h78.95a3.67,3.67,0,0,1,3.67,3.67Z"/><path class="b0ba6853-7d36-46d2-a96d-51cdc0f040a4" d="M168.26,171.77H116.15v73.49h55.78V175.44A3.67,3.67,0,0,0,168.26,171.77Z"/><path class="f0230145-d394-4fca-ab2a-5255192b60a4" d="M201.53,260.56H56.05a2.38,2.38,0,0,1-2.38-2.37V240a2.38,2.38,0,0,1,2.38-2.37H201.53A2.38,2.38,0,0,1,203.9,240v18.19A2.38,2.38,0,0,1,201.53,260.56Z"/><path class="ad1c33ca-55ca-44ed-9441-1db91195988c" d="M201.53,237.63H148.11v22.93h53.42a2.38,2.38,0,0,0,2.37-2.37V240A2.38,2.38,0,0,0,201.53,237.63Z"/><path class="f00c7c66-310b-4d51-82fd-6492cb905a6f" d="M77.11,402.24a15.81,15.81,0,0,1-1.25,9.82L63.71,437.5a6.43,6.43,0,0,0,5.8,9.21h388a6.41,6.41,0,0,0,5.79-3.68l19.16-40.79Z"/><path class="b0ba6853-7d36-46d2-a96d-51cdc0f040a4" d="M421.74,402.24l-20.89,44.47H457.5a5.49,5.49,0,0,0,.91-.07,6.55,6.55,0,0,0,3.24-1.46,6.48,6.48,0,0,0,1.64-2.15l19.16-40.79Z"/></svg>