<svg id="acecdce0-0d8f-4214-99e2-06263dcac3c4" data-name="Layer 1" xmlns="http://www.w3.org/2000/svg" viewBox="0 0 566.93 566.93"><defs><style>.b9c4e15c-ea37-41d4-a9f6-08a0dd9e3557{fill:#231f20;}.a2cb9e64-1e59-4d3c-bd32-ba67ac4660c4{fill:#e4ba22;}.ead83fbe-885b-4902-8ef8-6fac441dc1e9{fill:#fecf0a;}.a2437cdf-9877-4dac-8924-92d5e78dbc51{fill:#4a4345;}.acc36f03-7e93-46c1-a31d-51570cd5ce43{fill:#fff;}.b9d003f1-7a03-4654-82c9-6cc147152bec{fill:#c8c5c9;}</style></defs><title>MVP_Journey</title><path class="b9c4e15c-ea37-41d4-a9f6-08a0dd9e3557" d="M82.09,490.91V204.34a23.24,23.24,0,0,1,23.24-23.23H461.6a23.24,23.24,0,0,1,23.24,23.23V490.91"/><path class="a2cb9e64-1e59-4d3c-bd32-ba67ac4660c4" d="M461.6,459.93H446.11L437,451.32H132.47l-11.65,8.61H105.33a7.75,7.75,0,0,1-7.75-7.74V204.34a7.75,7.75,0,0,1,7.75-7.74H461.6a7.75,7.75,0,0,1,7.75,7.74V452.19A7.75,7.75,0,0,1,461.6,459.93Z"/><path class="ead83fbe-885b-4902-8ef8-6fac441dc1e9" d="M438.37,444.44H128.56A15.49,15.49,0,0,1,113.07,429V227.58a15.49,15.49,0,0,1,15.49-15.49H438.37a15.49,15.49,0,0,1,15.49,15.49V429A15.49,15.49,0,0,1,438.37,444.44Z"/><path class="b9c4e15c-ea37-41d4-a9f6-08a0dd9e3557" d="M220.19,239.44l-24.07,28.08a23.25,23.25,0,0,0-5.6,15.12v9.23A7.75,7.75,0,0,0,202,298.64L235.4,280.1Z"/><path class="a2437cdf-9877-4dac-8924-92d5e78dbc51" d="M235.4,280.1l24.83-13.8L237,219.83l-16.8,19.61A199.68,199.68,0,0,0,235.4,280.1Z"/><path class="b9c4e15c-ea37-41d4-a9f6-08a0dd9e3557" d="M329.93,219.83l40.88,47.69a23.24,23.24,0,0,1,5.59,15.12v9.23a7.74,7.74,0,0,1-11.5,6.77L306.7,266.3Z"/><path class="ead83fbe-885b-4902-8ef8-6fac441dc1e9" d="M51.11,483.17v16.92h457l15.49-9.18v-7.74a7.75,7.75,0,0,0-7.74-7.75h-457A7.75,7.75,0,0,0,51.11,483.17Z"/><path class="acc36f03-7e93-46c1-a31d-51570cd5ce43" d="M324.44,119.15l-67.63-11.93a188.82,188.82,0,0,0,10.71,182.32l49.84-15.49a189.36,189.36,0,0,0,7.08-154.9Z"/><path class="b9d003f1-7a03-4654-82c9-6cc147152bec" d="M278.83,274.05a15.69,15.69,0,0,1-14.31-9.51A188.3,188.3,0,0,1,262,119.15l-4.76-4.77-14.71,4.77a188.18,188.18,0,0,0-13.24,69.7,186.28,186.28,0,0,0,29.19,100.69l23.62,9.53,26.43-9.53c3.18-5,6.16-10.18,8.87-15.49Z"/><path class="acc36f03-7e93-46c1-a31d-51570cd5ce43" d="M305.07,320.52H261.86a7.74,7.74,0,0,1-7.6-9.21l4.18-21.77h50.05l4.19,21.77A7.75,7.75,0,0,1,305.07,320.52Z"/><path class="a2cb9e64-1e59-4d3c-bd32-ba67ac4660c4" d="M304.1,180.9c0,9.42-3,17.75-11.07,21.39a23.24,23.24,0,0,1-30.76-30.71c3.64-8.08,11.76-11.16,21.2-11.16C296.3,160.42,304.1,168.06,304.1,180.9Z"/><path class="a2437cdf-9877-4dac-8924-92d5e78dbc51" d="M58.86,475.42H51.11a7.74,7.74,0,0,0-7.74,7.75v7.74A15.48,15.48,0,0,0,58.86,506.4H508.07a15.48,15.48,0,0,0,15.49-15.49H74.35a15.48,15.48,0,0,1-15.49-15.49Z"/><path class="acc36f03-7e93-46c1-a31d-51570cd5ce43" d="M391.9,405.72a53.92,53.92,0,0,0-17.73,3,38.31,38.31,0,0,0-61.27-17.06,31,31,0,1,0-58.87,0,38.31,38.31,0,0,0-61.27,17.06,54.11,54.11,0,0,0-71.94,51.19H446.11A54.21,54.21,0,0,0,391.9,405.72Z"/><path class="ead83fbe-885b-4902-8ef8-6fac441dc1e9" d="M293.27,67.66S263.53,78,262,119.14h62.48A181.81,181.81,0,0,0,293.27,67.66Z"/><path class="a2cb9e64-1e59-4d3c-bd32-ba67ac4660c4" d="M293.27,67.65c-1.39-1.6-2.79-3.16-4.22-4.71a7.67,7.67,0,0,0-11.17,0,181.25,181.25,0,0,0-35.39,56.21H262A183.75,183.75,0,0,1,293.27,67.65Z"/><path class="ead83fbe-885b-4902-8ef8-6fac441dc1e9" d="M283.46,157.87a23.27,23.27,0,0,0-21.19,13.71A23.23,23.23,0,0,1,293,202.29a23.24,23.24,0,0,0-9.57-44.42Z"/></svg>