<svg id="e4e19d8b-7115-43a6-a84c-df146cae76e6" data-name="Layer 1" xmlns="http://www.w3.org/2000/svg" viewBox="0 0 566.93 566.93"><defs><style>.ba3bc0f4-8b22-4c20-ada4-e1baffa345c1{fill:#e4ba22;}.a3937a13-01bd-46c0-b484-b68bd5ff5366{fill:#fecf0a;}.aaad4f5f-2db8-4506-808d-c03003f7412f{fill:#ffd189;}.a324b4c6-6173-4258-9ecf-677bc2534627{fill:#f8a170;}.eca2e77f-31a1-4a0a-b118-41a7c62291b9{fill:#4a4345;}.adc42943-33a6-4d68-aff7-91e3318a98a2{fill:#231f20;}.b4bb707f-6ad1-4498-b49b-698404484d05{fill:#edf0f1;}</style></defs><title>MVP_Journey</title><path class="ba3bc0f4-8b22-4c20-ada4-e1baffa345c1" d="M94.09,392.9H203.73A39.87,39.87,0,0,0,243.6,353V323.12a69.78,69.78,0,0,0-69.78-69.77H124a69.77,69.77,0,0,0-69.77,69.77h0V353A39.87,39.87,0,0,0,94.09,392.9Z"/><path class="a3937a13-01bd-46c0-b484-b68bd5ff5366" d="M173.82,253.35H124a70.14,70.14,0,0,0-19.94,2.93v2.06a44.86,44.86,0,0,0,89.71,0v-2.06A70.09,70.09,0,0,0,173.82,253.35Z"/><path class="aaad4f5f-2db8-4506-808d-c03003f7412f" d="M148.91,203.52h0a24.91,24.91,0,0,1,24.91,24.91v29.91a24.92,24.92,0,0,1-24.91,24.92h0A24.92,24.92,0,0,1,124,258.34V228.43A24.91,24.91,0,0,1,148.91,203.52Z"/><path class="aaad4f5f-2db8-4506-808d-c03003f7412f" d="M148.91,125.44a54.82,54.82,0,0,0-54.82,54.82V194.1a54.81,54.81,0,0,0,16,38.76l9.79,9.79a36.49,36.49,0,0,0,25.84,10.7h6.28a36.49,36.49,0,0,0,25.83-10.7l9.79-9.79a54.82,54.82,0,0,0,16.06-38.76V180.26a54.83,54.83,0,0,0-54.82-54.82Z"/><path class="a324b4c6-6173-4258-9ecf-677bc2534627" d="M142.21,241.67,131.53,231A59.83,59.83,0,0,1,114,188.72V173.61a59.63,59.63,0,0,1,22.54-46.72,54.81,54.81,0,0,0-42.47,53.37V194.1a54.81,54.81,0,0,0,16,38.76l9.79,9.79a36.49,36.49,0,0,0,25.84,10.7h6.28a36.28,36.28,0,0,0,9-1.25,39.71,39.71,0,0,1-18.81-10.43Z"/><path class="eca2e77f-31a1-4a0a-b118-41a7c62291b9" d="M94.09,183.58s-29.91-49.83,16.73-70.77a62.33,62.33,0,0,1,88.13-.58l.58.58c29.76,26.56,4.2,70.77,4.2,70.77a142.17,142.17,0,0,1-80.3-26.08A54.45,54.45,0,0,0,94.09,183.58Z"/><path class="adc42943-33a6-4d68-aff7-91e3318a98a2" d="M114.11,109.82c-2.08,1.74-3.29,2.94-3.29,2.94-46.64,21-16.73,70.82-16.73,70.82a52.07,52.07,0,0,1,15-17.94A60.55,60.55,0,0,1,114.11,109.82Z"/><path class="ba3bc0f4-8b22-4c20-ada4-e1baffa345c1" d="M363.2,392.9H472.84A39.87,39.87,0,0,0,512.71,353V323.12a69.77,69.77,0,0,0-69.77-69.77H393.11a69.78,69.78,0,0,0-69.78,69.77V353A39.87,39.87,0,0,0,363.2,392.9Z"/><path class="a3937a13-01bd-46c0-b484-b68bd5ff5366" d="M442.94,253.35H393.11a70.09,70.09,0,0,0-19.94,2.93v2.06a44.86,44.86,0,0,0,89.71,0v-2.06A70.14,70.14,0,0,0,442.94,253.35Z"/><path class="aaad4f5f-2db8-4506-808d-c03003f7412f" d="M418,203.52h0a24.91,24.91,0,0,1,24.92,24.91v29.91A24.92,24.92,0,0,1,418,283.26h0a24.92,24.92,0,0,1-24.91-24.92V228.43A24.91,24.91,0,0,1,418,203.52Z"/><path class="aaad4f5f-2db8-4506-808d-c03003f7412f" d="M418,125.44a54.83,54.83,0,0,0-54.82,54.82V194.1a54.82,54.82,0,0,0,16.06,38.76l9.79,9.79a36.49,36.49,0,0,0,25.83,10.7h6.28A36.51,36.51,0,0,0,447,242.65l9.79-9.79a54.81,54.81,0,0,0,16-38.76V180.26A54.82,54.82,0,0,0,418,125.44Z"/><path class="a324b4c6-6173-4258-9ecf-677bc2534627" d="M411.33,241.67,400.65,231a59.83,59.83,0,0,1-17.51-42.28V173.61a59.65,59.65,0,0,1,22.53-46.72,54.82,54.82,0,0,0-42.47,53.37V194.1a54.82,54.82,0,0,0,16.06,38.76l9.79,9.79a36.49,36.49,0,0,0,25.83,10.7h6.28a36.21,36.21,0,0,0,9-1.25A39.73,39.73,0,0,1,411.33,241.67Z"/><path class="eca2e77f-31a1-4a0a-b118-41a7c62291b9" d="M363.2,183.58s-29.9-49.83,16.74-70.77a62.32,62.32,0,0,1,88.12-.58l.59.58c29.76,26.56,4.19,70.77,4.19,70.77a142.14,142.14,0,0,1-80.29-26.08,54.44,54.44,0,0,0-29.35,26.08Z"/><path class="adc42943-33a6-4d68-aff7-91e3318a98a2" d="M383.23,109.82c-2.09,1.74-3.29,2.94-3.29,2.94-46.64,21-16.74,70.82-16.74,70.82a52.29,52.29,0,0,1,14.95-17.94,60.56,60.56,0,0,1,5.08-55.82Z"/><path class="a3937a13-01bd-46c0-b484-b68bd5ff5366" d="M313.37,243.39H253.56a79.74,79.74,0,0,0-79.74,79.73V373a39.87,39.87,0,0,0,39.87,39.87H353.24A39.88,39.88,0,0,0,393.11,373V323.12A79.74,79.74,0,0,0,313.37,243.39Z"/><path class="ba3bc0f4-8b22-4c20-ada4-e1baffa345c1" d="M313.37,243.39H253.56A79.34,79.34,0,0,0,233.63,246v7.35a49.84,49.84,0,1,0,99.67,0V246A79.4,79.4,0,0,0,313.37,243.39Z"/><path class="aaad4f5f-2db8-4506-808d-c03003f7412f" d="M283.46,203.52h0a29.9,29.9,0,0,1,29.91,29.9v19.93a29.91,29.91,0,0,1-29.91,29.91h0a29.91,29.91,0,0,1-29.9-29.91V233.42A29.9,29.9,0,0,1,283.46,203.52Z"/><path class="aaad4f5f-2db8-4506-808d-c03003f7412f" d="M283.46,113.81a59.81,59.81,0,0,0-59.8,59.8v15.11A59.83,59.83,0,0,0,241.17,231l10.68,10.67a39.87,39.87,0,0,0,28.2,11.68h6.83a39.87,39.87,0,0,0,28.2-11.68L325.76,231a59.83,59.83,0,0,0,17.51-42.28V173.61a59.81,59.81,0,0,0-59.81-59.8Z"/><path class="a324b4c6-6173-4258-9ecf-677bc2534627" d="M306.82,243.39H300a39.88,39.88,0,0,1-28.2-11.69L261.11,221a59.81,59.81,0,0,1-17.51-42.28v-15.1a59.61,59.61,0,0,1,23.63-47.55,59.81,59.81,0,0,0-43.57,57.51v15.11A59.83,59.83,0,0,0,241.17,231l10.68,10.67a39.87,39.87,0,0,0,28.2,11.68h6.83a39.74,39.74,0,0,0,26.92-10.66A40,40,0,0,1,306.82,243.39Z"/><path class="eca2e77f-31a1-4a0a-b118-41a7c62291b9" d="M223.66,183.58s-42-59,15.41-88.85a71.93,71.93,0,0,1,100.43,0c33.67,29.25,3.77,79,3.77,79a168.52,168.52,0,0,1-89.93-29.81,69.32,69.32,0,0,0-29.68,39.66Z"/><path class="adc42943-33a6-4d68-aff7-91e3318a98a2" d="M276.72,76l1-.94a80.58,80.58,0,0,0-38.64,19.63c-57.4,29.87-15.41,88.85-15.41,88.85a79.25,79.25,0,0,1,18-30.3C235.15,128.85,236.76,96.87,276.72,76Z"/><path class="eca2e77f-31a1-4a0a-b118-41a7c62291b9" d="M379.54,492.63c-13.85,0-27.91-10-41.92-30H229.31c-17.24,24.5-34.5,34-51.39,28.39-17.56-5.88-25.57-25.14-23.79-57.24a310.43,310.43,0,0,1,16.13-76.69,49.83,49.83,0,0,1,63.07-31.4,47.8,47.8,0,0,1,13.82,7.37h72.63a47.77,47.77,0,0,1,13.82-7.36,49.83,49.83,0,0,1,63.07,31.4,310.42,310.42,0,0,1,16.13,76.63c1.77,32.1-6.23,51.36-23.79,57.24a29.41,29.41,0,0,1-9.47,1.63Z"/><path class="adc42943-33a6-4d68-aff7-91e3318a98a2" d="M401.42,471a33.12,33.12,0,0,1-10.58,1.76c-15.47,0-31.18-11.22-46.84-33.51H222.94c-19.21,27.39-38.55,38.06-57.43,31.75a33.26,33.26,0,0,1-8.64-4.56,33.22,33.22,0,0,0,21,24.66c16.89,5.66,34.15-3.89,51.39-28.39H337.62c14,19.93,28.07,30,41.92,30a29.63,29.63,0,0,0,9.47-1.58,33.19,33.19,0,0,0,21-24.66A33.36,33.36,0,0,1,401.42,471Z"/><circle class="a3937a13-01bd-46c0-b484-b68bd5ff5366" cx="343.27" cy="362.99" r="9.97"/><circle class="a3937a13-01bd-46c0-b484-b68bd5ff5366" cx="343.27" cy="402.86" r="9.97"/><circle class="a3937a13-01bd-46c0-b484-b68bd5ff5366" cx="363.2" cy="382.93" r="9.97" transform="translate(-73.11 679.88) rotate(-80.75)"/><circle class="a3937a13-01bd-46c0-b484-b68bd5ff5366" cx="323.33" cy="382.93" r="9.97" transform="translate(-122.51 154.01) rotate(-22.65)"/><path class="b4bb707f-6ad1-4498-b49b-698404484d05" d="M243.6,373h-10V363a10,10,0,0,0-19.94,0v10h-10a10,10,0,0,0,0,19.94h10v10a10,10,0,0,0,19.94,0v-10h10a10,10,0,0,0,0-19.94Z"/></svg>