<svg id="bd494d52-d9e9-4050-a8b4-62133a8956d7" data-name="Layer 1" xmlns="http://www.w3.org/2000/svg" viewBox="0 0 566.93 566.93"><defs><style>.b74355ee-ca78-4243-b890-a52fb091bb21{fill:#4a4345;}.e417613c-fdeb-4a21-8f40-96d63d9bff7b{fill:#fecf0a;}.fb0ca5d9-478c-41a9-8dc2-24de1b8f6329{fill:#e4ba22;}</style></defs><title>MVP_Journey</title><path class="b74355ee-ca78-4243-b890-a52fb091bb21" d="M479.41,167.87l-67.66-19.32a10.45,10.45,0,0,0-4.38-.24l-318.94,58a9.67,9.67,0,0,0-7.93,9.51v232a9.68,9.68,0,0,0,8,9.51l318.94,58a10.89,10.89,0,0,0,1.72.16,9.86,9.86,0,0,0,2.64-.39l67.66-19.33a9.65,9.65,0,0,0,7-9.28V177.15A9.67,9.67,0,0,0,479.41,167.87Z"/><path class="e417613c-fdeb-4a21-8f40-96d63d9bff7b" d="M235.14,322.12V256.56l-68.71,7.57a9.68,9.68,0,0,0-8.61,9.67v48.32Z"/><path class="e417613c-fdeb-4a21-8f40-96d63d9bff7b" d="M254.47,322.12h96.65V254.47a9.68,9.68,0,0,0-3.23-7.21,9.81,9.81,0,0,0-7.5-2.45l-85.92,9.66Z"/><path class="e417613c-fdeb-4a21-8f40-96d63d9bff7b" d="M254.47,341.45v67.66l85.92,9.66h1.06a9.67,9.67,0,0,0,9.67-9.66V341.45Z"/><path class="e417613c-fdeb-4a21-8f40-96d63d9bff7b" d="M235.14,341.45H157.82v48.33a9.67,9.67,0,0,0,8.61,9.66l68.71,7.73Z"/><path class="e417613c-fdeb-4a21-8f40-96d63d9bff7b" d="M186.82,167.49a9.67,9.67,0,0,1-9.67-9.67V119.16a69.59,69.59,0,0,1,67.66-67.65c39.83,0,67.65,19.87,67.65,48.32v38.66a9.67,9.67,0,1,1-19.33,0V99.83c0-17.06-19.87-29-48.32-29a50.4,50.4,0,0,0-48.33,48.32v38.66A9.66,9.66,0,0,1,186.82,167.49Z"/><path class="fb0ca5d9-478c-41a9-8dc2-24de1b8f6329" d="M244.81,157.82a9.67,9.67,0,0,1-9.67-9.66c0-7,1.16-42.9,24-56.62a9.67,9.67,0,0,1,9.95,16.57,50.28,50.28,0,0,0-14.65,40.05A9.66,9.66,0,0,1,244.81,157.82Z"/><path class="fb0ca5d9-478c-41a9-8dc2-24de1b8f6329" d="M341.45,138.49h-.71a9.66,9.66,0,0,1-8.93-10.34,78,78,0,0,0-2.28-28.57,9.67,9.67,0,0,1,2.26-19.08,15.46,15.46,0,0,1,11.44,5.13,69.24,69.24,0,0,1,7.89,43.89A9.66,9.66,0,0,1,341.45,138.49Z"/></svg>