<svg id="ae36d997-3169-4221-8805-91efce6954ba" data-name="Layer 1" xmlns="http://www.w3.org/2000/svg" viewBox="0 0 566.93 566.93"><defs><style>.ad67655a-ed85-4cdb-997e-ff9e25095a0f{fill:#231f20;}.ff6c8fe4-4160-4944-b01d-862d44fec433{fill:#565b6f;}.f404bed4-cde4-4cc4-8ef5-26c094366aa0{fill:#473d4c;}.f964bf88-ae99-485e-972d-71b39fe661e3{fill:#e4ba22;}.af2fff64-6134-4c0e-9570-ed926114ed0a{fill:#fecf0a;}.a47cfaea-30b1-4038-821b-480005a70de1{fill:#4a4345;}</style></defs><title>MVP_Journey</title><path class="ad67655a-ed85-4cdb-997e-ff9e25095a0f" d="M151.73,318.13a6.93,6.93,0,0,1-6.93-6.93V282.27A40.15,40.15,0,0,0,133,253.7a6.93,6.93,0,0,1,9.81-9.8,53.91,53.91,0,0,1,15.89,38.37V311.2A6.93,6.93,0,0,1,151.73,318.13Z"/><path class="ad67655a-ed85-4cdb-997e-ff9e25095a0f" d="M415.2,318.13a6.94,6.94,0,0,1-6.94-6.93V282.27a53.92,53.92,0,0,1,15.9-38.37,6.93,6.93,0,1,1,9.81,9.8,40.11,40.11,0,0,0-11.84,28.57V311.2a6.93,6.93,0,0,1-6.93,6.93Z"/><path class="ff6c8fe4-4160-4944-b01d-862d44fec433" d="M318.13,304.26H248.8a6.94,6.94,0,0,1-6.94-6.93V283.46h83.2v13.87A6.93,6.93,0,0,1,318.13,304.26Z"/><path class="f404bed4-cde4-4cc4-8ef5-26c094366aa0" d="M241.86,283.46h83.2v6.94h-83.2Z"/><path class="f404bed4-cde4-4cc4-8ef5-26c094366aa0" d="M325.06,290.4h-41.6v13.86h34.67a6.93,6.93,0,0,0,6.93-6.93Z"/><path class="f964bf88-ae99-485e-972d-71b39fe661e3" d="M422.13,491.46H144.8a27.73,27.73,0,0,1-27.74-27.73V311.2h332.8V463.73A27.72,27.72,0,0,1,422.13,491.46Z"/><path class="af2fff64-6134-4c0e-9570-ed926114ed0a" d="M255.73,491.46H144.8a27.73,27.73,0,0,1-27.74-27.73V311.2h166.4V463.73A27.72,27.72,0,0,1,255.73,491.46Z"/><path class="ad67655a-ed85-4cdb-997e-ff9e25095a0f" d="M283.46,311.2a27.73,27.73,0,0,0-27.73,27.73v27.73a6.94,6.94,0,0,1-6.93,6.94H96.26a6.94,6.94,0,0,1-6.93-6.94V338.93a27.73,27.73,0,0,1,27.73-27.73Z"/><path class="a47cfaea-30b1-4038-821b-480005a70de1" d="M283.46,311.2a27.73,27.73,0,0,1,27.74,27.73v27.73a6.94,6.94,0,0,0,6.93,6.94H470.66a6.94,6.94,0,0,0,6.94-6.94V338.93a27.73,27.73,0,0,0-27.74-27.73Z"/><path class="f964bf88-ae99-485e-972d-71b39fe661e3" d="M325.06,283.46h-41.6v-208a33.49,33.49,0,0,1,23.68,9.81A108.59,108.59,0,0,1,338.93,162V269.6A13.86,13.86,0,0,1,325.06,283.46Z"/><path class="af2fff64-6134-4c0e-9570-ed926114ed0a" d="M241.86,283.46h41.6v-208a33.49,33.49,0,0,0-23.67,9.81A108.55,108.55,0,0,0,228,162V269.6A13.86,13.86,0,0,0,241.86,283.46Z"/><circle class="ad67655a-ed85-4cdb-997e-ff9e25095a0f" cx="283.46" cy="165.6" r="34.67"/><path class="a47cfaea-30b1-4038-821b-480005a70de1" d="M318.13,165.6a34.67,34.67,0,0,0-34.67-34.67v69.33A34.66,34.66,0,0,0,318.13,165.6Z"/><circle class="af2fff64-6134-4c0e-9570-ed926114ed0a" cx="283.46" cy="165.6" r="20.8"/><path class="ad67655a-ed85-4cdb-997e-ff9e25095a0f" d="M283.46,214.13a6.94,6.94,0,0,0-6.93,6.93V290.4a6.94,6.94,0,0,0,13.87,0V221.06A6.94,6.94,0,0,0,283.46,214.13Z"/><path class="ad67655a-ed85-4cdb-997e-ff9e25095a0f" d="M338.93,269.6l24.86,24.86a9.81,9.81,0,0,0,16.74-6.93V264.35a20.8,20.8,0,0,0-6.09-14.71l-35.51-35.51Z"/><path class="ad67655a-ed85-4cdb-997e-ff9e25095a0f" d="M228,269.6l-24.86,24.86a9.81,9.81,0,0,1-16.74-6.93V264.35a20.8,20.8,0,0,1,6.09-14.71L228,214.13Z"/><path class="ad67655a-ed85-4cdb-997e-ff9e25095a0f" d="M283.46,75.46V103.2H245.32A108.21,108.21,0,0,1,259.8,85.27a33.47,33.47,0,0,1,23.66-9.81Z"/><path class="a47cfaea-30b1-4038-821b-480005a70de1" d="M321.61,103.2H283.46V75.46a33.47,33.47,0,0,1,23.67,9.81A108.21,108.21,0,0,1,321.61,103.2Z"/><path class="af2fff64-6134-4c0e-9570-ed926114ed0a" d="M248.8,304.26h69.33v6.94H248.8Z"/><path class="ad67655a-ed85-4cdb-997e-ff9e25095a0f" d="M380.53,207.2a6.94,6.94,0,0,1-6.93-6.94v-41.6a6.93,6.93,0,0,1,13.86,0v41.6A6.94,6.94,0,0,1,380.53,207.2Z"/><path class="a47cfaea-30b1-4038-821b-480005a70de1" d="M380.53,234.93A6.93,6.93,0,0,1,373.6,228v-6.94a6.93,6.93,0,0,1,13.86,0V228A6.93,6.93,0,0,1,380.53,234.93Z"/><path class="af2fff64-6134-4c0e-9570-ed926114ed0a" d="M117.06,214.13H103.2v-20.8a6.93,6.93,0,0,1,13.86,0Z"/><path class="af2fff64-6134-4c0e-9570-ed926114ed0a" d="M110.13,255.73a6.93,6.93,0,0,1-6.93-6.93V228h13.86v20.8A6.93,6.93,0,0,1,110.13,255.73Z"/><path class="af2fff64-6134-4c0e-9570-ed926114ed0a" d="M117.06,228V214.13h20.8a6.94,6.94,0,1,1,0,13.87Z"/><path class="af2fff64-6134-4c0e-9570-ed926114ed0a" d="M75.46,221.06a6.94,6.94,0,0,1,6.94-6.93h20.8V228H82.4A6.94,6.94,0,0,1,75.46,221.06Z"/><path class="af2fff64-6134-4c0e-9570-ed926114ed0a" d="M449.86,214.13h13.87v-20.8a6.94,6.94,0,0,0-13.87,0Z"/><path class="af2fff64-6134-4c0e-9570-ed926114ed0a" d="M456.8,255.73a6.93,6.93,0,0,0,6.93-6.93V228H449.86v20.8A6.94,6.94,0,0,0,456.8,255.73Z"/><path class="af2fff64-6134-4c0e-9570-ed926114ed0a" d="M449.86,228V214.13h-20.8a6.94,6.94,0,0,0,0,13.87Z"/><path class="af2fff64-6134-4c0e-9570-ed926114ed0a" d="M491.46,221.06a6.93,6.93,0,0,0-6.93-6.93h-20.8V228h20.8A6.94,6.94,0,0,0,491.46,221.06Z"/><path class="af2fff64-6134-4c0e-9570-ed926114ed0a" d="M373.6,103.2h13.86V89.33a6.93,6.93,0,0,0-13.86,0Z"/><path class="af2fff64-6134-4c0e-9570-ed926114ed0a" d="M380.53,137.86a6.93,6.93,0,0,0,6.93-6.93V117.06H373.6v13.87A6.93,6.93,0,0,0,380.53,137.86Z"/><path class="af2fff64-6134-4c0e-9570-ed926114ed0a" d="M373.6,117.06V103.2H359.73a6.93,6.93,0,0,0,0,13.86Z"/><path class="af2fff64-6134-4c0e-9570-ed926114ed0a" d="M408.26,110.13a6.93,6.93,0,0,0-6.93-6.93H387.46v13.86h13.87A6.93,6.93,0,0,0,408.26,110.13Z"/><path class="af2fff64-6134-4c0e-9570-ed926114ed0a" d="M179.46,103.2h13.87V89.33a6.94,6.94,0,0,0-13.87,0Z"/><path class="af2fff64-6134-4c0e-9570-ed926114ed0a" d="M186.4,137.86a6.93,6.93,0,0,0,6.93-6.93V117.06H179.46v13.87A6.94,6.94,0,0,0,186.4,137.86Z"/><path class="af2fff64-6134-4c0e-9570-ed926114ed0a" d="M179.46,117.06V103.2H165.6a6.93,6.93,0,1,0,0,13.86Z"/><path class="af2fff64-6134-4c0e-9570-ed926114ed0a" d="M214.13,110.13a6.93,6.93,0,0,0-6.93-6.93H193.33v13.86H207.2A6.93,6.93,0,0,0,214.13,110.13Z"/><path class="ad67655a-ed85-4cdb-997e-ff9e25095a0f" d="M186.4,207.2a6.94,6.94,0,0,1-6.94-6.94v-41.6a6.94,6.94,0,0,1,13.87,0v41.6A6.94,6.94,0,0,1,186.4,207.2Z"/><path class="a47cfaea-30b1-4038-821b-480005a70de1" d="M186.4,234.93a6.94,6.94,0,0,1-6.94-6.93v-6.94a6.94,6.94,0,0,1,13.87,0V228A6.93,6.93,0,0,1,186.4,234.93Z"/><circle class="a47cfaea-30b1-4038-821b-480005a70de1" cx="449.86" cy="144.8" r="13.87"/><circle class="a47cfaea-30b1-4038-821b-480005a70de1" cx="117.06" cy="144.8" r="13.87"/></svg>