<svg id="b5bcff41-015a-462f-9639-2f9f676b4aef" data-name="Layer 1" xmlns="http://www.w3.org/2000/svg" viewBox="0 0 566.93 566.93"><defs><style>.bb27a94f-a2a7-460a-9530-ff32f3e6b36a{fill:#231f20;}.b37a7674-9484-4f3f-afb9-ab2c5a12cd46{fill:#394a4a;}.beb1a3ff-2d91-426c-b805-5b8fae80501b{fill:#fecf0a;}.b9e99f53-5865-4d56-b91c-4ccda71269c8{fill:#e4ba22;}.b940a50f-df8b-42a7-a15a-6b6d15aae9ed{fill:#4a4345;}.a51ab9dc-63c7-4b29-9700-cf8c1b51d6cc{fill:#fbc7b4;}.ec46b048-2c3f-43c3-89c6-9255801ecdbb{fill:#fab89c;}.b29bc20f-a5a7-4c39-b39f-d96adbe7feb7{fill:#4b6970;}.baab83dc-74a9-4652-b4b5-c6dace4b588e{fill:#f6936a;}</style></defs><title>MVP_Journey</title><path class="bb27a94f-a2a7-460a-9530-ff32f3e6b36a" d="M482.1,256.1v7.15a13.25,13.25,0,0,1-26.49,0V256.1C455.61,161.28,378.28,84,283.46,84S111.32,161.28,111.32,256.1v7.15a13.25,13.25,0,0,1-26.49,0V256.1c0-109.65,89-198.64,198.63-198.64S482.1,146.45,482.1,256.1Z"/><path class="b37a7674-9484-4f3f-afb9-ab2c5a12cd46" d="M482.1,256.1v7.15a13.25,13.25,0,0,1-26.49,0V256.1C455.61,161.28,378.28,84,283.46,84V57.46C393.11,57.46,482.1,146.45,482.1,256.1Z"/><path class="beb1a3ff-2d91-426c-b805-5b8fae80501b" d="M415.89,256.1H151a132.43,132.43,0,0,1,264.85,0Z"/><path class="b9e99f53-5865-4d56-b91c-4ccda71269c8" d="M415.89,256.1H283.46V123.68A132.47,132.47,0,0,1,415.89,256.1Z"/><path class="b940a50f-df8b-42a7-a15a-6b6d15aae9ed" d="M509.46,309.07c0,29.13-24.71,53-53.85,53H415.89l-13.25-53,13.25-53h39.72C484.75,256.1,509.46,279.93,509.46,309.07Z"/><path class="a51ab9dc-63c7-4b29-9700-cf8c1b51d6cc" d="M415.89,256.1V377A132.43,132.43,0,0,1,151,377V362l-13.24-53,13.24-53h53a79.34,79.34,0,0,0,79.45-79.46,79.35,79.35,0,0,0,79.46,79.46Z"/><path class="ec46b048-2c3f-43c3-89c6-9255801ecdbb" d="M415.89,256.1V377A132.47,132.47,0,0,1,283.46,509.46V176.64a79.35,79.35,0,0,0,79.46,79.46Z"/><path class="b940a50f-df8b-42a7-a15a-6b6d15aae9ed" d="M283.46,390.28A39.73,39.73,0,1,0,323.19,430,39.67,39.67,0,0,0,283.46,390.28Z"/><path class="bb27a94f-a2a7-460a-9530-ff32f3e6b36a" d="M323.19,430a39.68,39.68,0,0,1-39.73,39.73V390.28A39.68,39.68,0,0,1,323.19,430Z"/><path class="b29bc20f-a5a7-4c39-b39f-d96adbe7feb7" d="M217.25,309.07A13.24,13.24,0,1,1,204,295.82,13.24,13.24,0,0,1,217.25,309.07Z"/><path class="b37a7674-9484-4f3f-afb9-ab2c5a12cd46" d="M376.16,309.07a13.24,13.24,0,1,1-13.24-13.25A13.24,13.24,0,0,1,376.16,309.07Z"/><path class="ec46b048-2c3f-43c3-89c6-9255801ecdbb" d="M323.19,335.55c0,22-17.74,41.49-39.73,41.49s-39.72-19.51-39.72-41.49a13.24,13.24,0,1,1,26.48,0,13.25,13.25,0,0,0,26.49,0,13.24,13.24,0,0,1,26.48,0Z"/><path class="baab83dc-74a9-4652-b4b5-c6dace4b588e" d="M323.19,335.55c0,22-17.74,41.49-39.73,41.49V348.79a13.12,13.12,0,0,0,13.25-13.24,13.24,13.24,0,0,1,26.48,0Z"/><path class="bb27a94f-a2a7-460a-9530-ff32f3e6b36a" d="M111.32,377A39.77,39.77,0,0,0,151,416.77H257a13.24,13.24,0,0,1,0,26.48H151A66.29,66.29,0,0,1,84.83,377V335.55h26.49Z"/><path class="b940a50f-df8b-42a7-a15a-6b6d15aae9ed" d="M111.32,256.1c-29.26,0-53.86,23.71-53.86,53s24.6,53,53.86,53H151V256.1Z"/></svg>