<svg id="f2bb27d3-1cf1-4fb2-84e9-62f255e12b83" data-name="Layer 1" xmlns="http://www.w3.org/2000/svg" viewBox="0 0 566.93 566.93"><defs><style>.b1994a8c-379f-429a-a6f8-ecbc83dd684e{fill:#fecf0a;}.a7b2f81b-9435-4f26-bd5e-5199c948783f{fill:#231f20;}.f137751a-2d1a-4064-8c81-5724ca518ac6{fill:#b4e4fa;}.e702d95b-d648-4be0-bb34-057d1f1f8522{fill:#8aceb2;}.b9ce9e41-e439-492c-aebd-88702307794c{fill:#3eaf91;}.b8c52075-9435-4970-9286-f3e16c7c59cb,.bd6ee151-14e8-4edc-888e-98f20115de05{opacity:0.1;}.b8c52075-9435-4970-9286-f3e16c7c59cb{isolation:isolate;}</style></defs><title>MVP_Journey</title><path class="b1994a8c-379f-429a-a6f8-ecbc83dd684e" d="M516.28,350.54H453.05a5,5,0,0,0-5,5v11.37a5,5,0,0,0,2,4,5,5,0,0,1,3-1h63.23a5,5,0,0,1,3,1,5,5,0,0,0,2-4V355.54A5,5,0,0,0,516.28,350.54Z"/><path class="a7b2f81b-9435-4f26-bd5e-5199c948783f" d="M521.09,387.57a5.19,5.19,0,0,0,.19-1.32V374.88a5,5,0,0,0-5-5H453.05a5,5,0,0,0-5,5v11.37a4.79,4.79,0,0,0,.2,1.32Z"/><path class="b1994a8c-379f-429a-a6f8-ecbc83dd684e" d="M437.36,454.36v20.76a5,5,0,0,0,5,5h9a5,5,0,0,0,5-5V454.36Z"/><path class="b1994a8c-379f-429a-a6f8-ecbc83dd684e" d="M513,475.12a5,5,0,0,0,5,5h9a5,5,0,0,0,5-5V454.36H513Z"/><rect class="b1994a8c-379f-429a-a6f8-ecbc83dd684e" x="437.36" y="433.14" width="94.6" height="21.21"/><path class="b1994a8c-379f-429a-a6f8-ecbc83dd684e" d="M526.88,387.57H442.45a5.1,5.1,0,0,0-5.09,5.09v40.49H532V392.66A5.1,5.1,0,0,0,526.88,387.57Z"/><path class="b1994a8c-379f-429a-a6f8-ecbc83dd684e" d="M103.25,475V456.64H47.58a5,5,0,0,0-5,5v13.55a5,5,0,0,0,5,5h56a5,5,0,0,0,2.42-.65A5.09,5.09,0,0,1,103.25,475Z"/><path class="b1994a8c-379f-429a-a6f8-ecbc83dd684e" d="M116.23,258.31a5,5,0,0,1-5,5H40a5,5,0,0,1-5-5V167.55a5,5,0,0,1,5-5h71.27a5,5,0,0,1,5,5Z"/><path class="b1994a8c-379f-429a-a6f8-ecbc83dd684e" d="M389.25,295.57H148.85a10,10,0,0,0-10,10V365.5A10.22,10.22,0,0,1,148,375.63V403H390.1V375.63a10.22,10.22,0,0,1,9.15-10.13V305.57A10,10,0,0,0,389.25,295.57Z"/><path class="a7b2f81b-9435-4f26-bd5e-5199c948783f" d="M181.52,403h48.92a5,5,0,0,0,3-4.57v-45a5,5,0,0,0-5-5H183.52a5,5,0,0,0-5,5v45A5,5,0,0,0,181.52,403Z"/><path class="a7b2f81b-9435-4f26-bd5e-5199c948783f" d="M311.73,403h48.91a5,5,0,0,0,3-4.57v-45a5,5,0,0,0-5-5H313.72a5,5,0,0,0-5,5v45A5,5,0,0,0,311.73,403Z"/><rect class="b1994a8c-379f-429a-a6f8-ecbc83dd684e" x="148" y="403.04" width="242.09" height="51.45"/><path class="b1994a8c-379f-429a-a6f8-ecbc83dd684e" d="M137.83,365.45H113.42a10.2,10.2,0,0,0-10.17,10.18V475a5.1,5.1,0,0,0,5.08,5.09h34.59A5.1,5.1,0,0,0,148,475v-99.4A10.2,10.2,0,0,0,137.83,365.45Z"/><path class="b1994a8c-379f-429a-a6f8-ecbc83dd684e" d="M424.68,365.45H400.27a10.2,10.2,0,0,0-10.17,10.18V475a5.1,5.1,0,0,0,5.08,5.09h34.59a5.1,5.1,0,0,0,5.08-5.09v-99.4A10.2,10.2,0,0,0,424.68,365.45Z"/><path class="b1994a8c-379f-429a-a6f8-ecbc83dd684e" d="M381.42,109.78H156.68a5.32,5.32,0,0,0-5.3,5.31V239.2a5.32,5.32,0,0,0,5.3,5.31H381.42a5.32,5.32,0,0,0,5.3-5.31V115.09A5.32,5.32,0,0,0,381.42,109.78Z"/><rect class="f137751a-2d1a-4064-8c81-5724ca518ac6" x="172.57" y="130.99" width="192.94" height="92.29"/><path class="e702d95b-d648-4be0-bb34-057d1f1f8522" d="M357.48,223.29c1.65,0,2.27-1.13,1.36-2.51L328,173.57a1.82,1.82,0,0,0-3.28,0l-30.87,47.21c-.9,1.38-.29,2.51,1.36,2.51Z"/><path class="b1994a8c-379f-429a-a6f8-ecbc83dd684e" d="M437.3,295.46a2.66,2.66,0,0,1-2.54-1.89c-4.17-13.55-7-16.44-20.43-20.66a2.71,2.71,0,0,1,0-5.15c13.4-4.21,16.26-7.11,20.43-20.66a2.65,2.65,0,0,1,5.09,0c4.17,13.55,7,16.45,20.42,20.66a2.71,2.71,0,0,1,0,5.15c-13.39,4.22-16.25,7.11-20.42,20.66A2.67,2.67,0,0,1,437.3,295.46Z"/><path class="b1994a8c-379f-429a-a6f8-ecbc83dd684e" d="M474,188.46a2.92,2.92,0,0,1-2.81-2.09c-4.62-15-7.8-18.21-22.63-22.89a3,3,0,0,1,0-5.69c14.83-4.67,18-7.88,22.63-22.89a2.93,2.93,0,0,1,5.62,0c4.62,15,7.79,18.22,22.62,22.89a3,3,0,0,1,0,5.69c-14.83,4.68-18,7.89-22.62,22.89A2.93,2.93,0,0,1,474,188.46Z"/><path class="b1994a8c-379f-429a-a6f8-ecbc83dd684e" d="M104.46,128.33a2.21,2.21,0,0,1-2.1-1.57c-3.45-11.21-5.82-13.61-16.9-17.1a2.24,2.24,0,0,1,0-4.26c11.08-3.49,13.45-5.89,16.9-17.1a2.2,2.2,0,0,1,4.21,0c3.45,11.21,5.82,13.61,16.9,17.1a2.24,2.24,0,0,1,0,4.26c-11.08,3.49-13.45,5.89-16.9,17.1A2.22,2.22,0,0,1,104.46,128.33Z"/><path class="b9ce9e41-e439-492c-aebd-88702307794c" d="M270.33,151.17a1.82,1.82,0,0,0-3.28,0l-45.52,69.61c-.9,1.38-.29,2.51,1.36,2.51h91.6c1.65,0,2.26-1.13,1.35-2.51Z"/><path class="e702d95b-d648-4be0-bb34-057d1f1f8522" d="M214.08,172.55a1.82,1.82,0,0,0-3.29,0l-31.53,48.23c-.91,1.38-.3,2.51,1.35,2.51h63.64c1.65,0,2.27-1.13,1.36-2.51Z"/><g class="bd6ee151-14e8-4edc-888e-98f20115de05"><path class="a7b2f81b-9435-4f26-bd5e-5199c948783f" d="M50.08,477.69h-2.5a2.5,2.5,0,0,1-2.5-2.5v-2.5A5,5,0,0,0,50.08,477.69Z"/><path class="a7b2f81b-9435-4f26-bd5e-5199c948783f" d="M50.08,459.13a5,5,0,0,0-5,5v-2.5a2.5,2.5,0,0,1,2.5-2.5Z"/><path class="a7b2f81b-9435-4f26-bd5e-5199c948783f" d="M65.14,477.69H50.08a5,5,0,0,1-5-5v-8.56a5,5,0,0,1,5-5H65.14a5,5,0,0,1,4.32-2.5H47.58a5,5,0,0,0-5,5v13.56a5,5,0,0,0,5,5H69.46A5,5,0,0,1,65.14,477.69Z"/></g><g class="bd6ee151-14e8-4edc-888e-98f20115de05"><path class="a7b2f81b-9435-4f26-bd5e-5199c948783f" d="M42.46,260.81H40a2.5,2.5,0,0,1-2.5-2.5v-2.5A5,5,0,0,0,42.46,260.81Z"/><path class="a7b2f81b-9435-4f26-bd5e-5199c948783f" d="M37.46,170v-2.5A2.5,2.5,0,0,1,40,165h2.5A5,5,0,0,0,37.46,170Z"/><path class="a7b2f81b-9435-4f26-bd5e-5199c948783f" d="M57.14,260.81H42.46a5,5,0,0,1-5-5V170a5,5,0,0,1,5-5H57.14a5,5,0,0,1,4.32-2.5H40a5,5,0,0,0-5,5v90.77a5,5,0,0,0,5,5h21.5A5,5,0,0,1,57.14,260.81Z"/></g><g class="b8c52075-9435-4970-9286-f3e16c7c59cb"><path class="a7b2f81b-9435-4f26-bd5e-5199c948783f" d="M143.73,364.4a12.18,12.18,0,0,0-2.39-1v-3.29A5,5,0,0,0,143.73,364.4Z"/><path class="a7b2f81b-9435-4f26-bd5e-5199c948783f" d="M155.5,400.54h-5v-5A5,5,0,0,0,155.5,400.54Z"/><path class="a7b2f81b-9435-4f26-bd5e-5199c948783f" d="M159,300.57a12.54,12.54,0,0,0-.79,2.5h-2.54a13.91,13.91,0,0,1,.65-2.5Z"/><path class="a7b2f81b-9435-4f26-bd5e-5199c948783f" d="M156.32,300.57a13.91,13.91,0,0,0-.65,2.5h5.11a9.83,9.83,0,0,1,1-2.5,10.07,10.07,0,0,1,8.65-5H148.84a10,10,0,0,0-10,10V365.5A10.21,10.21,0,0,1,148,375.63V403h13.86a9.53,9.53,0,0,1-1.05-2.5H155.5a5,5,0,0,1-5-5V375.63c0-.29,0-.58,0-.86s-.05-.57-.09-.85a8.17,8.17,0,0,0-.14-.84c0-.2-.08-.39-.13-.58l0-.1c-.05-.21-.12-.42-.18-.63s-.12-.37-.19-.56a4.5,4.5,0,0,0-.2-.51c-.07-.17-.15-.34-.23-.51a.36.36,0,0,1,0-.09,9.25,9.25,0,0,0-.47-.88c-.14-.24-.29-.48-.45-.71s-.28-.4-.43-.59a9.89,9.89,0,0,0-.95-1.09,12,12,0,0,0-2.91-2.24,1.09,1.09,0,0,0-.23-.14l-.05,0,0,0a5,5,0,0,1-2.39-4.25V305.57a7.51,7.51,0,0,1,7.5-7.5h11.63a12.52,12.52,0,0,0-1.47,2.5Z"/></g><g class="bd6ee151-14e8-4edc-888e-98f20115de05"><path class="a7b2f81b-9435-4f26-bd5e-5199c948783f" d="M110.74,477.62h-2.41a2.6,2.6,0,0,1-2.59-2.59v-2.41A5,5,0,0,0,110.74,477.62Z"/><path class="a7b2f81b-9435-4f26-bd5e-5199c948783f" d="M125.42,477.62H110.74a5,5,0,0,1-5-5v-97a7.68,7.68,0,0,1,7.67-7.68h14.8a10.16,10.16,0,0,1,6.66-2.5H113.41a10.21,10.21,0,0,0-10.17,10.18V475a5.1,5.1,0,0,0,5.09,5.09h21.46A5.1,5.1,0,0,1,125.42,477.62Z"/></g><g class="bd6ee151-14e8-4edc-888e-98f20115de05"><path class="a7b2f81b-9435-4f26-bd5e-5199c948783f" d="M397.59,477.62h-2.41a2.6,2.6,0,0,1-2.59-2.59v-2.41A5,5,0,0,0,397.59,477.62Z"/><path class="a7b2f81b-9435-4f26-bd5e-5199c948783f" d="M407.18,477.62h-9.59a5,5,0,0,1-5-5v-97a7.68,7.68,0,0,1,7.67-7.68H410a10.16,10.16,0,0,1,6.66-2.5H400.26a10.21,10.21,0,0,0-10.17,10.18V475a5.1,5.1,0,0,0,5.09,5.09h16.37A5.1,5.1,0,0,1,407.18,477.62Z"/></g><g class="bd6ee151-14e8-4edc-888e-98f20115de05"><path class="a7b2f81b-9435-4f26-bd5e-5199c948783f" d="M180.07,133.49a5,5,0,0,0-5,5v-5Z"/><path class="a7b2f81b-9435-4f26-bd5e-5199c948783f" d="M187,213.65a4.91,4.91,0,0,0,0,4.25v2.88H175.07v-15a5,5,0,0,0,2.5,4.32,5.19,5.19,0,0,0,1.08.47,5,5,0,0,0,5.61-2l.2-.31,2.5-3.82Z"/><path class="a7b2f81b-9435-4f26-bd5e-5199c948783f" d="M180.07,133.49h9.39V131H172.57v92.29h16.89v-2.92a4.93,4.93,0,0,1-2.38-2.2,1.23,1.23,0,0,1-.12-.26,4.91,4.91,0,0,1,0-4.25,3.93,3.93,0,0,1,.33-.6l2.17-3.32V200.6l-5,7.64v10h-6.89v-8.15a5,5,0,0,1-2.5-4.32V138.49A5,5,0,0,1,180.07,133.49Z"/></g><path class="a7b2f81b-9435-4f26-bd5e-5199c948783f" d="M496.82,413.73a2.5,2.5,0,0,1-2.5,2.5H475a2.5,2.5,0,0,1,0-5h19.32A2.5,2.5,0,0,1,496.82,413.73Z"/><path class="a7b2f81b-9435-4f26-bd5e-5199c948783f" d="M528,385.17a5,5,0,0,1-4.24-4.95V355.53a7.51,7.51,0,0,0-7.5-7.5H453a7.52,7.52,0,0,0-7.5,7.5c0,4.33,0,11.4,0,12.25a5,5,0,0,1-9.5,2.38A12.55,12.55,0,0,0,424.68,363H406.75a5,5,0,0,1-5-5V305.57a12.52,12.52,0,0,0-12.5-12.5H148.84a12.52,12.52,0,0,0-12.5,12.5V358a5,5,0,0,1-5,5H113.41a12.69,12.69,0,0,0-12.67,12.68v73.5a5,5,0,0,1-5,5H83.1a5,5,0,0,1-5-5V270.81a5,5,0,0,1,5-5h28.13a7.5,7.5,0,0,0,7.5-7.5V229.46a2.5,2.5,0,0,0-5,0v26.35a5,5,0,0,1-5,5H42.46a5,5,0,0,1-5-5V170a5,5,0,0,1,5-5h66.27a5,5,0,0,1,5,5v22.42a2.5,2.5,0,0,0,5,0V167.54a7.51,7.51,0,0,0-7.5-7.5H40a7.51,7.51,0,0,0-7.5,7.5v90.77a7.5,7.5,0,0,0,7.5,7.5H68.1a5,5,0,0,1,5,5V449.13a5,5,0,0,1-5,5H47.58a7.51,7.51,0,0,0-7.5,7.5v13.56a7.51,7.51,0,0,0,7.5,7.5l95.33-.07A7.6,7.6,0,0,0,150.5,475V462a5,5,0,0,1,5-5h166a2.5,2.5,0,1,0,0-5h-166a5,5,0,0,1-5-5V410.54a5,5,0,0,1,5-5H382.59a5,5,0,0,1,5,5V447a5,5,0,0,1-5,5H361.46a2.5,2.5,0,0,0,0,5h21.13a5,5,0,0,1,5,5v13a7.61,7.61,0,0,0,7.59,7.59h56.19a7.52,7.52,0,0,0,7.5-7.5V461.86a5,5,0,0,1,5-5h41.59a5,5,0,0,1,5,5v13.26a7.51,7.51,0,0,0,7.5,7.5h9a7.51,7.51,0,0,0,7.5-7.5V392.65A7.63,7.63,0,0,0,528,385.17ZM100.74,472.69a5,5,0,0,1-5,5H50.08a5,5,0,0,1-5-5v-8.56a5,5,0,0,1,5-5H95.74a5,5,0,0,1,5,5Zm44.76-.07a5,5,0,0,1-5,5H110.74a5,5,0,0,1-5-5v-97a7.68,7.68,0,0,1,7.67-7.68h24.42a7.68,7.68,0,0,1,7.67,7.68Zm85.44-77.08a5,5,0,0,1-5,5H186a5,5,0,0,1-5-5V356a5,5,0,0,1,5-5h39.93a5,5,0,0,1,5,5Zm130.21,0a5,5,0,0,1-5,5H316.22a5,5,0,0,1-5-5V356a5,5,0,0,1,5-5h39.93a5,5,0,0,1,5,5Zm26.44-19.91v19.91a5,5,0,0,1-5,5H371.14a5,5,0,0,1-5-4.65c0-.11,0-.23,0-.35v-42a7.51,7.51,0,0,0-7.5-7.5H313.72a7.5,7.5,0,0,0-7.5,7.5v42a5,5,0,0,1-5,5H276.54a5,5,0,0,1-5-5V352.46a2.5,2.5,0,0,0-5,0v43.08a5,5,0,0,1-5,5h-20.6a5,5,0,0,1-5-5v-42a7.5,7.5,0,0,0-7.5-7.5H183.51a7.51,7.51,0,0,0-7.5,7.5v42a5,5,0,0,1-5,5H155.5a5,5,0,0,1-5-5V375.63c0-.29,0-.58,0-.86s-.05-.57-.09-.85a8.17,8.17,0,0,0-.14-.84c0-.2-.08-.39-.13-.58l0-.1c-.05-.21-.12-.42-.18-.63s-.12-.37-.19-.56a4.5,4.5,0,0,0-.2-.51c-.07-.17-.15-.34-.23-.51a.36.36,0,0,1,0-.09,9.25,9.25,0,0,0-.47-.88c-.14-.24-.29-.48-.45-.71s-.28-.4-.43-.59a9.89,9.89,0,0,0-.95-1.09,12,12,0,0,0-2.91-2.24,1.09,1.09,0,0,0-.23-.14l-.05,0,0,0a5,5,0,0,1-2.39-4.25V305.57a7.51,7.51,0,0,1,7.5-7.5h11.63a12.52,12.52,0,0,0-1.47,2.5h2.81a9.93,9.93,0,0,1,2.06-2.5h97.67a5,5,0,0,1,5,5v16.39a2.5,2.5,0,0,0,5,0V303.07a5,5,0,0,1,5-5H389.25a7.51,7.51,0,0,1,7.5,7.5v54.57a5,5,0,0,1-2.58,4.38A12.7,12.7,0,0,0,387.59,375.63Zm44.76,97a5,5,0,0,1-5,5H397.59a5,5,0,0,1-5-5v-97a7.68,7.68,0,0,1,7.67-7.68h24.42a7.68,7.68,0,0,1,7.67,7.68ZM450.54,358a5,5,0,0,1,5-5h58.24a5,5,0,0,1,5,5v4.34a5,5,0,0,1-5,5H455.54a5,5,0,0,1-5-5Zm0,19.34a5,5,0,0,1,5-5h58.24a5,5,0,0,1,5,5v2.69a5,5,0,0,1-5,5H455.54a5,5,0,0,1-5-5Zm3.33,95.25a5,5,0,0,1-5,5h-4a5,5,0,0,1-5-5V461.86a5,5,0,0,1,5-5h4a5,5,0,0,1,5,5Zm75.59,0a5,5,0,0,1-5,5h-4a5,5,0,0,1-5-5V461.86a5,5,0,0,1,5-5h4a5,5,0,0,1,5,5Zm0-25.76a5,5,0,0,1-5,5h-79.6a5,5,0,0,1-5-5v-6.22a5,5,0,0,1,5-5h79.6a5,5,0,0,1,5,5Zm0-21.22a5,5,0,0,1-5,5h-79.6a5,5,0,0,1-5-5V395.06a5,5,0,0,1,5-5h79.6a5,5,0,0,1,5,5Z"/><path class="a7b2f81b-9435-4f26-bd5e-5199c948783f" d="M381.42,107.28H156.67a7.81,7.81,0,0,0-7.8,7.8V239.2a7.81,7.81,0,0,0,7.8,7.8H381.42a7.81,7.81,0,0,0,7.8-7.8V115.08A7.81,7.81,0,0,0,381.42,107.28ZM384.22,237a5,5,0,0,1-5,5H158.87a5,5,0,0,1-5-5V117.28a5,5,0,0,1,5-5H379.22a5,5,0,0,1,5,5Z"/><path class="a7b2f81b-9435-4f26-bd5e-5199c948783f" d="M461,265.37c-12.58-4-14.86-6.27-18.79-19a5.15,5.15,0,0,0-9.86,0c-3.92,12.75-6.2,15.06-18.79,19a5.21,5.21,0,0,0,0,9.92c12.58,4,14.87,6.27,18.78,19a5.15,5.15,0,0,0,9.87,0c3.93-12.74,6.21-15.05,18.79-19a5.21,5.21,0,0,0,0-9.92Zm-11.78,9.31a18.74,18.74,0,0,0-7.58,7.6,5,5,0,0,1-8.71,0,18.83,18.83,0,0,0-7.59-7.6,5,5,0,0,1,0-8.7,18.83,18.83,0,0,0,7.59-7.6,5,5,0,0,1,8.71,0,18.74,18.74,0,0,0,7.58,7.6,5,5,0,0,1,0,8.7Z"/><path class="a7b2f81b-9435-4f26-bd5e-5199c948783f" d="M500.14,155.4c-14.05-4.43-16.6-7-21-21.25a5.43,5.43,0,0,0-10.39,0c-4.39,14.24-6.94,16.82-21,21.25a5.49,5.49,0,0,0,0,10.46c14.06,4.43,16.61,7,21,21.22a5.44,5.44,0,0,0,10.42,0c4.38-14.23,6.93-16.81,21-21.24a5.49,5.49,0,0,0,0-10.46Zm-11.78,9.68a20.81,20.81,0,0,0-9.95,10,5,5,0,0,1-8.91,0,20.83,20.83,0,0,0-9.95-10,5,5,0,0,1,0-8.9,20.81,20.81,0,0,0,9.95-10,5,5,0,0,1,8.91,0,20.81,20.81,0,0,0,9.95,10,5,5,0,0,1,0,8.9Z"/><path class="a7b2f81b-9435-4f26-bd5e-5199c948783f" d="M124.22,103c-10.33-3.26-12-5-15.27-15.47a4.69,4.69,0,0,0-9,0C96.75,98,95,99.76,84.71,103a4.74,4.74,0,0,0,0,9c10.33,3.25,12,5,15.26,15.44a4.7,4.7,0,0,0,9,0c3.23-10.46,4.94-12.2,15.26-15.45a4.73,4.73,0,0,0,0-9Zm-11.52,8.63a15.2,15.2,0,0,0-4.11,4.12,5,5,0,0,1-8.26,0,15.2,15.2,0,0,0-4.11-4.12,5,5,0,0,1,0-8.25,15.31,15.31,0,0,0,4.11-4.11,5,5,0,0,1,8.26,0,15.31,15.31,0,0,0,4.11,4.11,5,5,0,0,1,0,8.25Z"/><path class="a7b2f81b-9435-4f26-bd5e-5199c948783f" d="M184.26,208.55a5,5,0,0,1-5.61,2,5.19,5.19,0,0,1-1.08-.47v8.15h6.89v-10Zm0,0a5,5,0,0,1-5.61,2,5.19,5.19,0,0,1-1.08-.47v8.15h6.89v-10Zm0,0a5,5,0,0,1-5.61,2,5.19,5.19,0,0,1-1.08-.47v8.15h6.89v-10Zm0,0a5,5,0,0,1-5.61,2,5.19,5.19,0,0,1-1.08-.47v8.15h6.89v-10Zm0,0a5,5,0,0,1-5.61,2,5.19,5.19,0,0,1-1.08-.47v8.15h6.89v-10Zm0,0a5,5,0,0,1-5.61,2,5.19,5.19,0,0,1-1.08-.47v8.15h6.89v-10Zm0,0a5,5,0,0,1-5.61,2,5.19,5.19,0,0,1-1.08-.47v8.15h6.89v-10Zm0,0a5,5,0,0,1-5.61,2,5.19,5.19,0,0,1-1.08-.47v8.15h6.89v-10Zm0,0a5,5,0,0,1-5.61,2,5.19,5.19,0,0,1-1.08-.47v8.15h6.89v-10Zm0,0a5,5,0,0,1-5.61,2,5.19,5.19,0,0,1-1.08-.47v8.15h6.89v-10Zm0,0a5,5,0,0,1-5.61,2,5.19,5.19,0,0,1-1.08-.47v8.15h6.89v-10Zm0,0a5,5,0,0,1-5.61,2,5.19,5.19,0,0,1-1.08-.47v8.15h6.89v-10Zm0,0a5,5,0,0,1-5.61,2,5.19,5.19,0,0,1-1.08-.47v8.15h6.89v-10Zm0,0a5,5,0,0,1-5.61,2,5.19,5.19,0,0,1-1.08-.47v8.15h6.89v-10Zm0,0a5,5,0,0,1-5.61,2,5.19,5.19,0,0,1-1.08-.47v8.15h6.89v-10Zm0,0a5,5,0,0,1-5.61,2,5.19,5.19,0,0,1-1.08-.47v8.15h6.89v-10Zm0,0a5,5,0,0,1-5.61,2,5.19,5.19,0,0,1-1.08-.47v8.15h6.89v-10Zm0,0a5,5,0,0,1-5.61,2,5.19,5.19,0,0,1-1.08-.47v8.15h6.89v-10Zm0,0a5,5,0,0,1-5.61,2,5.19,5.19,0,0,1-1.08-.47v8.15h6.89v-10Zm0,0a5,5,0,0,1-5.61,2,5.19,5.19,0,0,1-1.08-.47v8.15h6.89v-10Zm183-79.32a2.44,2.44,0,0,0-1.76-.74H172.57a2.51,2.51,0,0,0-2.5,2.5v92.29a2.51,2.51,0,0,0,2.5,2.5h193a2.51,2.51,0,0,0,2.5-2.5V131A2.44,2.44,0,0,0,367.28,129.23Zm-129.5,88.93a5,5,0,0,1-4.39,2.62H191.48a5.11,5.11,0,0,1-2-.42,4.93,4.93,0,0,1-2.38-2.2,1.23,1.23,0,0,1-.12-.26,4.91,4.91,0,0,1,0-4.25,3.93,3.93,0,0,1,.33-.6l2.17-3.32L208.25,181a5,5,0,0,1,8.37,0l20.95,32.05A5,5,0,0,1,237.78,218.16Zm70.23,0a5,5,0,0,1-4.39,2.62H251.31a5,5,0,0,1-4.19-2.26l-8.77-13.42a5,5,0,0,1,0-5.48l26.15-40a5,5,0,0,1,8.37,0l34.93,53.42A5,5,0,0,1,308,218.16Zm43,0a5,5,0,0,1-4.4,2.62H321.54a5,5,0,0,1-4.19-2.26l-7.75-11.86a5,5,0,0,1,0-5.47L322.14,182a5,5,0,0,1,8.37,0l20.29,31A5,5,0,0,1,351,218.16Zm12-12.43a4.91,4.91,0,0,1-.58,2.42,5,5,0,0,1-4.32,2.66H358a5,5,0,0,1-3.51-1.43,4.92,4.92,0,0,1-.73-.92L330.06,172.2a4.3,4.3,0,0,0-7.47,0L309,193a5,5,0,0,1-8.37,0L272.42,149.8a4.31,4.31,0,0,0-7.47,0l-27.2,41.59a5,5,0,0,1-8.37,0l-13.22-20.21a4.29,4.29,0,0,0-7.46,0L189.46,200.6l-5,7.64-.2.31a5,5,0,0,1-5.61,2,5.19,5.19,0,0,1-1.08-.47,5,5,0,0,1-2.5-4.32V138.49a5,5,0,0,1,5-5H358a5,5,0,0,1,5,5Zm-178.75,2.82a5,5,0,0,1-5.61,2,5.19,5.19,0,0,1-1.08-.47v8.15h6.89v-10Zm0,0a5,5,0,0,1-5.61,2,5.19,5.19,0,0,1-1.08-.47v8.15h6.89v-10Zm0,0a5,5,0,0,1-5.61,2,5.19,5.19,0,0,1-1.08-.47v8.15h6.89v-10Zm0,0a5,5,0,0,1-5.61,2,5.19,5.19,0,0,1-1.08-.47v8.15h6.89v-10Zm0,0a5,5,0,0,1-5.61,2,5.19,5.19,0,0,1-1.08-.47v8.15h6.89v-10Zm0,0a5,5,0,0,1-5.61,2,5.19,5.19,0,0,1-1.08-.47v8.15h6.89v-10Zm0,0a5,5,0,0,1-5.61,2,5.19,5.19,0,0,1-1.08-.47v8.15h6.89v-10Zm0,0a5,5,0,0,1-5.61,2,5.19,5.19,0,0,1-1.08-.47v8.15h6.89v-10Zm0,0a5,5,0,0,1-5.61,2,5.19,5.19,0,0,1-1.08-.47v8.15h6.89v-10Zm0,0a5,5,0,0,1-5.61,2,5.19,5.19,0,0,1-1.08-.47v8.15h6.89v-10Zm0,0a5,5,0,0,1-5.61,2,5.19,5.19,0,0,1-1.08-.47v8.15h6.89v-10Zm0,0a5,5,0,0,1-5.61,2,5.19,5.19,0,0,1-1.08-.47v8.15h6.89v-10Zm0,0a5,5,0,0,1-5.61,2,5.19,5.19,0,0,1-1.08-.47v8.15h6.89v-10Zm0,0a5,5,0,0,1-5.61,2,5.19,5.19,0,0,1-1.08-.47v8.15h6.89v-10Zm0,0a5,5,0,0,1-5.61,2,5.19,5.19,0,0,1-1.08-.47v8.15h6.89v-10Zm0,0a5,5,0,0,1-5.61,2,5.19,5.19,0,0,1-1.08-.47v8.15h6.89v-10Zm0,0a5,5,0,0,1-5.61,2,5.19,5.19,0,0,1-1.08-.47v8.15h6.89v-10Zm0,0a5,5,0,0,1-5.61,2,5.19,5.19,0,0,1-1.08-.47v8.15h6.89v-10Zm0,0a5,5,0,0,1-5.61,2,5.19,5.19,0,0,1-1.08-.47v8.15h6.89v-10Zm0,0a5,5,0,0,1-5.61,2,5.19,5.19,0,0,1-1.08-.47v8.15h6.89v-10Z"/></svg>