<svg id="e636dcc0-f051-4887-940b-abb2e59ea9d3" data-name="Layer 1" xmlns="http://www.w3.org/2000/svg" viewBox="0 0 566.93 566.93"><defs><style>.eca52ba4-730d-4313-9b2f-4b512e303da0{fill:#4a4345;}.afe2704f-2616-451c-a27a-cfa623e93cf9{fill:#fecf0a;}.fa9ded0c-9ba4-4b16-9075-3f43b582c98a{fill:#e4ba22;}.fac41746-9a63-42ff-ab51-73f28f487f4f{fill:#fff;}</style></defs><title>MVP_Journey</title><path class="eca52ba4-730d-4313-9b2f-4b512e303da0" d="M507,281.77V470a21.5,21.5,0,0,1-21.49,21.5H357.86A21.48,21.48,0,0,1,336.37,470h0V281.77a21.47,21.47,0,0,1,21.48-21.49h29v.06a16,16,0,0,0,16,16h37.6a16,16,0,0,0,16-16h0v-.06h29A21.49,21.49,0,0,1,507,281.77ZM396.06,400.92V370.2h-30.7v30.72Z"/><path class="afe2704f-2616-451c-a27a-cfa623e93cf9" d="M386.88,260.28v-1a16,16,0,0,1,16-16h37.6a16,16,0,0,1,16,16h0v1a16,16,0,0,1-16,16h-37.6a16,16,0,0,1-16-16h0Z"/><path class="fa9ded0c-9ba4-4b16-9075-3f43b582c98a" d="M409.46,176.36v67h-6.6a16,16,0,0,0-16,16h0v1h-29a21.48,21.48,0,0,0-21.49,21.48h0V420.33L234.72,479V277.23L409.45,176.35Z"/><polygon class="afe2704f-2616-451c-a27a-cfa623e93cf9" points="234.72 277.23 145.64 225.8 320.36 124.91 320.37 124.91 409.44 176.35 234.72 277.23"/><rect class="fac41746-9a63-42ff-ab51-73f28f487f4f" x="365.36" y="370.2" width="30.7" height="30.71"/><polygon class="fa9ded0c-9ba4-4b16-9075-3f43b582c98a" points="320.36 124.91 145.64 225.8 60 176.35 234.72 75.47 320.36 124.91"/><polygon class="afe2704f-2616-451c-a27a-cfa623e93cf9" points="234.72 277.23 234.72 479.01 59.98 378.13 59.98 176.36 60 176.35 145.64 225.8 234.72 277.23"/><path class="fac41746-9a63-42ff-ab51-73f28f487f4f" d="M372.19,347.73h-6.83a6.52,6.52,0,0,1-6.52-6.52V310.5a6.52,6.52,0,0,1,6.52-6.52h30.7a6.52,6.52,0,0,1,6.52,6.52v4.38A6.52,6.52,0,0,1,389.9,317h-18v17.67h.31a6.52,6.52,0,0,1,0,13Z"/><path class="fac41746-9a63-42ff-ab51-73f28f487f4f" d="M372.19,467.13h-6.83a6.52,6.52,0,0,1-6.52-6.52h0v-30.7a6.52,6.52,0,0,1,6.52-6.52h30.7a6.52,6.52,0,0,1,6.52,6.52v6.28a6.52,6.52,0,1,1-13,.24H371.88V454.1h.31a6.52,6.52,0,1,1,0,13Z"/><path class="afe2704f-2616-451c-a27a-cfa623e93cf9" d="M392,346.78a6.52,6.52,0,0,1-4.61-1.91L377,334.46a6.52,6.52,0,0,1,9.21-9.22l5.82,5.81L411.08,312a6.52,6.52,0,0,1,9.21,9.22L396.6,344.87A6.52,6.52,0,0,1,392,346.78Z"/><path class="afe2704f-2616-451c-a27a-cfa623e93cf9" d="M392,467.13a6.47,6.47,0,0,1-4.61-1.9L377,454.81a6.51,6.51,0,0,1,9.21-9.21l5.82,5.8,19.09-19.09a6.52,6.52,0,1,1,9.21,9.22l-23.69,23.7A6.51,6.51,0,0,1,392,467.13Z"/><path class="fac41746-9a63-42ff-ab51-73f28f487f4f" d="M478,332.37H437a6.52,6.52,0,0,1,0-13H478a6.52,6.52,0,1,1,0,13Z"/><path class="fac41746-9a63-42ff-ab51-73f28f487f4f" d="M478,392.08H437a6.52,6.52,0,0,1,0-13H478a6.52,6.52,0,1,1,0,13Z"/><path class="fac41746-9a63-42ff-ab51-73f28f487f4f" d="M478,451.79H437a6.52,6.52,0,1,1,0-13H478a6.52,6.52,0,1,1,0,13Z"/></svg>