<svg id="e18b9295-c9e1-4125-99e0-650d5fe3bc2c" data-name="Layer 1" xmlns="http://www.w3.org/2000/svg" viewBox="0 0 566.93 566.93"><defs><style>.f8551d21-c9c3-4e79-9eae-50c89df74907{fill:#231f20;}.e916e8a4-daab-4f30-8b3c-5121da48d8ee{fill:#4a4345;}.b211fcba-8b57-4352-bd98-ff00c80c531b{fill:#fecf0a;}.b0e309f1-a9c3-47bb-8b23-e624b7fd7eae{fill:#e4ba22;}.bc947f74-f0b2-4775-bfd0-3995a55d1b80{fill:#fff;}</style></defs><title>MVP_Journey</title><rect class="f8551d21-c9c3-4e79-9eae-50c89df74907" x="209.08" y="397.36" width="98.73" height="42.21"/><rect class="e916e8a4-daab-4f30-8b3c-5121da48d8ee" x="209.08" y="397.36" width="18.14" height="42.21"/><path class="b211fcba-8b57-4352-bd98-ff00c80c531b" d="M354,461.5a4.58,4.58,0,0,1-4.57,4.57H167.49a4.58,4.58,0,0,1-4.57-4.57V443.22a4.59,4.59,0,0,1,4.57-4.57H349.4a4.58,4.58,0,0,1,4.57,4.57Z"/><path class="b0e309f1-a9c3-47bb-8b23-e624b7fd7eae" d="M181.06,461.5V443.22a4.58,4.58,0,0,1,4.57-4.57H167.49a4.59,4.59,0,0,0-4.57,4.57V461.5a4.58,4.58,0,0,0,4.57,4.57h18.14A4.58,4.58,0,0,1,181.06,461.5Z"/><path class="b211fcba-8b57-4352-bd98-ff00c80c531b" d="M49.45,389.14a9.17,9.17,0,0,0,9.14,9.14H333V337.07H49.45Z"/><path class="b0e309f1-a9c3-47bb-8b23-e624b7fd7eae" d="M67.59,389.14V337.07H49.45v52.07a9.17,9.17,0,0,0,9.14,9.14H76.73A9.17,9.17,0,0,1,67.59,389.14Z"/><path class="f8551d21-c9c3-4e79-9eae-50c89df74907" d="M333,312.49a3.66,3.66,0,0,1,3.65-3.66H467.45V110.9a10.08,10.08,0,0,0-10.05-10H59.5a10.07,10.07,0,0,0-10,10V338H333Z"/><path class="bc947f74-f0b2-4775-bfd0-3995a55d1b80" d="M333,312.49a3.66,3.66,0,0,1,3.65-3.66H447.35V125.52a4.59,4.59,0,0,0-4.57-4.57H74.12a4.59,4.59,0,0,0-4.58,4.57v187.8a4.58,4.58,0,0,0,4.58,4.57H333v-5.4Z"/><circle class="f8551d21-c9c3-4e79-9eae-50c89df74907" cx="258.45" cy="368.45" r="12.72"/><path class="b211fcba-8b57-4352-bd98-ff00c80c531b" d="M430.05,238.8a4.58,4.58,0,0,1-4.57,4.57H280.63a4.59,4.59,0,0,1-4.57-4.57V172.33a4.58,4.58,0,0,1,4.57-4.57H425.48a4.58,4.58,0,0,1,4.57,4.57V238.8Z"/><path class="b0e309f1-a9c3-47bb-8b23-e624b7fd7eae" d="M294.2,238.8V172.33a4.58,4.58,0,0,1,4.57-4.57H280.64a4.58,4.58,0,0,0-4.58,4.57V238.8a4.59,4.59,0,0,0,4.58,4.57h18.13A4.59,4.59,0,0,1,294.2,238.8Z"/><path class="f8551d21-c9c3-4e79-9eae-50c89df74907" d="M323,269.65H283.61a6.86,6.86,0,1,1,0-13.71H323a6.86,6.86,0,0,1,0,13.71Z"/><path class="b211fcba-8b57-4352-bd98-ff00c80c531b" d="M323,290.48H283.61a6.86,6.86,0,1,1,0-13.71H323a6.86,6.86,0,0,1,0,13.71Z"/><path class="f8551d21-c9c3-4e79-9eae-50c89df74907" d="M370.56,269.65h-29.3a6.86,6.86,0,1,1,0-13.71h29.3a6.86,6.86,0,1,1,0,13.71Z"/><path class="b211fcba-8b57-4352-bd98-ff00c80c531b" d="M370.56,290.48h-29.3a6.86,6.86,0,1,1,0-13.71h29.3a6.86,6.86,0,1,1,0,13.71Z"/><path class="f8551d21-c9c3-4e79-9eae-50c89df74907" d="M425.86,269.65H388.53a6.86,6.86,0,1,1,0-13.71h37.33a6.86,6.86,0,1,1,0,13.71Z"/><path class="b211fcba-8b57-4352-bd98-ff00c80c531b" d="M425.86,290.48H388.53a6.86,6.86,0,1,1,0-13.71h37.33a6.86,6.86,0,1,1,0,13.71Z"/><path class="b211fcba-8b57-4352-bd98-ff00c80c531b" d="M378,151.69a4.58,4.58,0,0,1-4.57,4.57H363.33a4.58,4.58,0,0,1-4.57-4.57V141.64a4.58,4.58,0,0,1,4.57-4.57h10.05a4.58,4.58,0,0,1,4.57,4.57Z"/><path class="b211fcba-8b57-4352-bd98-ff00c80c531b" d="M403.55,151.69a4.59,4.59,0,0,1-4.57,4.57H388.92a4.59,4.59,0,0,1-4.57-4.57V141.64a4.58,4.58,0,0,1,4.57-4.57H399a4.58,4.58,0,0,1,4.57,4.57Z"/><path class="b211fcba-8b57-4352-bd98-ff00c80c531b" d="M429.14,151.69a4.59,4.59,0,0,1-4.57,4.57H414.52a4.59,4.59,0,0,1-4.58-4.57V141.64a4.58,4.58,0,0,1,4.58-4.57h10.05a4.58,4.58,0,0,1,4.57,4.57Z"/><path class="b211fcba-8b57-4352-bd98-ff00c80c531b" d="M224,285.08h-8.22a6.86,6.86,0,1,1,0-13.71H224a6.86,6.86,0,1,1,0,13.71Z"/><path class="b211fcba-8b57-4352-bd98-ff00c80c531b" d="M192.87,285.08h-8.22a6.86,6.86,0,1,1,0-13.71h8.22a6.86,6.86,0,1,1,0,13.71Z"/><path class="b211fcba-8b57-4352-bd98-ff00c80c531b" d="M161.79,285.08h-8.23a6.86,6.86,0,0,1,0-13.71h8.23a6.86,6.86,0,1,1,0,13.71Z"/><path class="b211fcba-8b57-4352-bd98-ff00c80c531b" d="M130.71,285.08h-8.23a6.86,6.86,0,0,1,0-13.71h8.23a6.86,6.86,0,1,1,0,13.71Z"/><path class="b211fcba-8b57-4352-bd98-ff00c80c531b" d="M250.69,256.84a6.86,6.86,0,0,1-6.85-6.86v-8.23a6.86,6.86,0,0,1,13.71,0V250A6.86,6.86,0,0,1,250.69,256.84Z"/><path class="b211fcba-8b57-4352-bd98-ff00c80c531b" d="M250.69,225.76a6.86,6.86,0,0,1-6.85-6.86v-8.23a6.86,6.86,0,0,1,13.71,0v8.23A6.86,6.86,0,0,1,250.69,225.76Z"/><path class="b211fcba-8b57-4352-bd98-ff00c80c531b" d="M250.69,194.68a6.86,6.86,0,0,1-6.85-6.86v-8.23a6.86,6.86,0,0,1,13.71,0v8.23A6.86,6.86,0,0,1,250.69,194.68Z"/><path class="b211fcba-8b57-4352-bd98-ff00c80c531b" d="M95.29,256.84A6.86,6.86,0,0,1,88.43,250v-8.23a6.86,6.86,0,0,1,13.72,0V250A6.86,6.86,0,0,1,95.29,256.84Z"/><path class="b211fcba-8b57-4352-bd98-ff00c80c531b" d="M95.29,225.76a6.86,6.86,0,0,1-6.86-6.86v-8.23a6.86,6.86,0,0,1,13.72,0v8.23A6.86,6.86,0,0,1,95.29,225.76Z"/><path class="b211fcba-8b57-4352-bd98-ff00c80c531b" d="M95.29,194.68a6.86,6.86,0,0,1-6.86-6.86v-8.23a6.86,6.86,0,0,1,13.72,0v8.23A6.86,6.86,0,0,1,95.29,194.68Z"/><path class="b211fcba-8b57-4352-bd98-ff00c80c531b" d="M224,160.76h-8.22a6.86,6.86,0,1,1,0-13.71H224a6.86,6.86,0,1,1,0,13.71Z"/><path class="b211fcba-8b57-4352-bd98-ff00c80c531b" d="M192.87,160.76h-8.22a6.86,6.86,0,1,1,0-13.71h8.22a6.86,6.86,0,1,1,0,13.71Z"/><path class="b211fcba-8b57-4352-bd98-ff00c80c531b" d="M161.79,160.76h-8.23a6.86,6.86,0,0,1,0-13.71h8.23a6.86,6.86,0,1,1,0,13.71Z"/><path class="b211fcba-8b57-4352-bd98-ff00c80c531b" d="M130.71,160.76h-8.23a6.86,6.86,0,0,1,0-13.71h8.23a6.86,6.86,0,1,1,0,13.71Z"/><path class="f8551d21-c9c3-4e79-9eae-50c89df74907" d="M232.41,255.37a4.58,4.58,0,0,1-4.57,4.57H118.14a4.58,4.58,0,0,1-4.57-4.57V176.76a4.58,4.58,0,0,1,4.57-4.57h109.7a4.58,4.58,0,0,1,4.57,4.57Z"/><path class="e916e8a4-daab-4f30-8b3c-5121da48d8ee" d="M131.71,255.37V176.76a4.58,4.58,0,0,1,4.57-4.57H118.14a4.58,4.58,0,0,0-4.57,4.57v78.61a4.58,4.58,0,0,0,4.57,4.57h18.14A4.58,4.58,0,0,1,131.71,255.37Z"/><path class="f8551d21-c9c3-4e79-9eae-50c89df74907" d="M263.49,160.76a4.58,4.58,0,0,1-4.57,4.57h-19.2a4.58,4.58,0,0,1-4.57-4.57V141.57a4.58,4.58,0,0,1,4.57-4.57h19.2a4.58,4.58,0,0,1,4.57,4.57Z"/><path class="f8551d21-c9c3-4e79-9eae-50c89df74907" d="M111.74,162.59a4.58,4.58,0,0,1-4.57,4.57H88a4.58,4.58,0,0,1-4.57-4.57V143.4A4.59,4.59,0,0,1,88,138.82h19.2a4.59,4.59,0,0,1,4.57,4.58Z"/><path class="f8551d21-c9c3-4e79-9eae-50c89df74907" d="M263.49,288.63a4.59,4.59,0,0,1-4.57,4.57h-19.2a4.59,4.59,0,0,1-4.57-4.57v-19.2a4.59,4.59,0,0,1,4.57-4.57h19.2a4.59,4.59,0,0,1,4.57,4.57Z"/><path class="f8551d21-c9c3-4e79-9eae-50c89df74907" d="M111.74,288.63a4.59,4.59,0,0,1-4.57,4.57H88a4.59,4.59,0,0,1-4.57-4.57v-19.2A4.59,4.59,0,0,1,88,264.86h19.2a4.59,4.59,0,0,1,4.57,4.57Z"/><path class="e916e8a4-daab-4f30-8b3c-5121da48d8ee" d="M245.22,160.76V141.57a4.58,4.58,0,0,1,4.57-4.57H239.72a4.58,4.58,0,0,0-4.57,4.57v19.19a4.58,4.58,0,0,0,4.57,4.57h10.07A4.58,4.58,0,0,1,245.22,160.76Z"/><path class="e916e8a4-daab-4f30-8b3c-5121da48d8ee" d="M93.48,162.59V143.4a4.59,4.59,0,0,1,4.57-4.58H88a4.59,4.59,0,0,0-4.57,4.58v19.19A4.58,4.58,0,0,0,88,167.16H98.05A4.58,4.58,0,0,1,93.48,162.59Z"/><path class="e916e8a4-daab-4f30-8b3c-5121da48d8ee" d="M245.22,288.63v-19.2a4.59,4.59,0,0,1,4.57-4.57H239.72a4.59,4.59,0,0,0-4.57,4.57v19.2a4.59,4.59,0,0,0,4.57,4.57h10.07A4.59,4.59,0,0,1,245.22,288.63Z"/><path class="e916e8a4-daab-4f30-8b3c-5121da48d8ee" d="M93.48,288.63v-19.2a4.59,4.59,0,0,1,4.57-4.57H88a4.59,4.59,0,0,0-4.57,4.57v19.2A4.59,4.59,0,0,0,88,293.2H98.05A4.59,4.59,0,0,1,93.48,288.63Z"/><path class="f8551d21-c9c3-4e79-9eae-50c89df74907" d="M447.51,385.42a1.26,1.26,0,0,1-.11-.67h.11a1.67,1.67,0,0,1,.56.12L486.56,399V312.49a4.59,4.59,0,0,0-4.57-4.57H336.64a4.59,4.59,0,0,0-4.57,4.57V417.43a4.59,4.59,0,0,0,4.57,4.57H461Z"/><path class="e916e8a4-daab-4f30-8b3c-5121da48d8ee" d="M350.21,417.43V312.49a4.58,4.58,0,0,1,4.57-4.57H336.64a4.58,4.58,0,0,0-4.57,4.57V417.43a4.59,4.59,0,0,0,4.57,4.57h18.14A4.59,4.59,0,0,1,350.21,417.43Z"/><path class="b211fcba-8b57-4352-bd98-ff00c80c531b" d="M448.39,384c-1.51-.55-2.29.23-1.74,1.74l24.1,65.62a1.73,1.73,0,0,0,3.07.67l12.8-12.79a2.92,2.92,0,0,1,4.13,0L505.49,454a2.91,2.91,0,0,0,4.12,0l7-7a2.94,2.94,0,0,0,0-4.13L501.89,428.1a2.92,2.92,0,0,1,0-4.13l12.79-12.8a1.72,1.72,0,0,0-.68-3.06Z"/></svg>