<svg id="a2337d7e-92c5-458a-a1c2-e80c3fa95e37" data-name="Layer 1" xmlns="http://www.w3.org/2000/svg" viewBox="0 0 566.93 566.93"><defs><style>.f803ce49-7d54-4ad9-a26d-ae8b0e79b0ec{fill:#4a4345;}.a90e72d8-3973-4893-9da5-5c1eef7d49d1{fill:#231f20;}.bff41e54-1464-41d2-b1e2-c7bf59ef0b32{fill:#fecf0a;}.bbe909eb-5a36-48db-adf4-d0edf5e57f2b{fill:#e4ba22;}.b0a0f46b-ea59-4866-9748-ebf252e87255{fill:#fff;}.f9d239fb-b345-4bee-9478-54fc02e07243{fill:#c8c5c9;}.ff807f73-d792-4c11-9996-9ae6d1b78ccf{fill:#a3bdcd;}.b799816d-f968-49ff-b64f-9a5a514f2e42{fill:#769fb7;}.f7d9cd9c-d50e-4b5c-b7e7-a3dc136e3c5d{fill:#555b64;}.f000fbb1-9592-48e2-a156-e51f848914be{fill:#eaf1f2;}.e10dfb46-e0a4-4e4f-a587-b2273f831e28{fill:#b8bebf;}.e70ebfe6-6b6e-4c3f-b51b-46df60d1ffc1{fill:#fee2cb;}.a045244d-ab87-4d22-a0b6-987f97834fbc{fill:#f3d3ba;}</style></defs><title>MVP_Journey</title><path class="f803ce49-7d54-4ad9-a26d-ae8b0e79b0ec" d="M325.51,411.46h-248v-232l128-64,120,64Z"/><path class="a90e72d8-3973-4893-9da5-5c1eef7d49d1" d="M229.51,267.46a127.91,127.91,0,0,1-119.6-82.71l95.6-45.29,120,56.84V179.46l-120-64-128,64v232h248v-144Z"/><path class="bff41e54-1464-41d2-b1e2-c7bf59ef0b32" d="M149.51,323.46h104v88h-104Z"/><path class="bff41e54-1464-41d2-b1e2-c7bf59ef0b32" d="M357.51,195.46l-152-72v-32l152,72Z"/><path class="bff41e54-1464-41d2-b1e2-c7bf59ef0b32" d="M205.51,123.46l-152,72v-32l152-72Z"/><path class="bbe909eb-5a36-48db-adf4-d0edf5e57f2b" d="M205.51,123.46l152,72v-16l-152-72Z"/><path class="bbe909eb-5a36-48db-adf4-d0edf5e57f2b" d="M205.51,107.46l-152,72v16l152-72Z"/><path class="b0a0f46b-ea59-4866-9748-ebf252e87255" d="M173.51,171.46h32v32h-32Z"/><path class="b0a0f46b-ea59-4866-9748-ebf252e87255" d="M205.51,171.46h32v32h-32Z"/><path class="f9d239fb-b345-4bee-9478-54fc02e07243" d="M237.51,203.46h-32v-32Z"/><path class="f9d239fb-b345-4bee-9478-54fc02e07243" d="M205.51,203.46h-32v-32Z"/><path class="b0a0f46b-ea59-4866-9748-ebf252e87255" d="M173.51,203.46h32v32h-32Z"/><path class="b0a0f46b-ea59-4866-9748-ebf252e87255" d="M205.51,203.46h32v32h-32Z"/><path class="f9d239fb-b345-4bee-9478-54fc02e07243" d="M237.51,235.46h-32v-32Z"/><path class="f9d239fb-b345-4bee-9478-54fc02e07243" d="M205.51,235.46h-32v-32Z"/><path class="bff41e54-1464-41d2-b1e2-c7bf59ef0b32" d="M197.51,283.46h208v160h-208Z"/><path class="bbe909eb-5a36-48db-adf4-d0edf5e57f2b" d="M389.51,339.46v48h-40a96,96,0,0,1-96-96v-8h-56v160h208V316.94A23.9,23.9,0,0,0,389.51,339.46Z"/><path class="bff41e54-1464-41d2-b1e2-c7bf59ef0b32" d="M517.51,443.46h-112v-128h56l56,64Z"/><path class="a90e72d8-3973-4893-9da5-5c1eef7d49d1" d="M437.51,395.46a16,16,0,0,1-16-16v-64h-16v128h112v-48Z"/><path class="ff807f73-d792-4c11-9996-9ae6d1b78ccf" d="M517.51,379.46h-80v-64h24Z"/><path class="b799816d-f968-49ff-b64f-9a5a514f2e42" d="M517.51,379.46h-80v-64l24,40Z"/><circle class="f7d9cd9c-d50e-4b5c-b7e7-a3dc136e3c5d" cx="461.51" cy="443.46" r="32"/><circle class="f7d9cd9c-d50e-4b5c-b7e7-a3dc136e3c5d" cx="277.51" cy="443.46" r="32"/><circle class="f000fbb1-9592-48e2-a156-e51f848914be" cx="461.51" cy="443.46" r="16"/><circle class="f000fbb1-9592-48e2-a156-e51f848914be" cx="277.51" cy="443.46" r="16"/><circle class="e10dfb46-e0a4-4e4f-a587-b2273f831e28" cx="277.51" cy="443.46" r="8"/><circle class="e10dfb46-e0a4-4e4f-a587-b2273f831e28" cx="461.51" cy="443.46" r="8"/><path class="a90e72d8-3973-4893-9da5-5c1eef7d49d1" d="M333.51,331.46h-96a8,8,0,0,1,0-16h96a8,8,0,0,1,0,16Z"/><path class="a90e72d8-3973-4893-9da5-5c1eef7d49d1" d="M357.51,363.46h-88a8,8,0,0,1,0-16h88a8,8,0,0,1,0,16Z"/><path class="a90e72d8-3973-4893-9da5-5c1eef7d49d1" d="M373.51,395.46h-56a8,8,0,0,1,0-16h56a8,8,0,0,1,0,16Z"/><path class="f803ce49-7d54-4ad9-a26d-ae8b0e79b0ec" d="M229.51,323.46a8,8,0,0,0,8,8h24.81a94.87,94.87,0,0,1-5.66-16H237.51A8,8,0,0,0,229.51,323.46Z"/><path class="f803ce49-7d54-4ad9-a26d-ae8b0e79b0ec" d="M261.51,355.46a8,8,0,0,0,8,8h16.65a95.54,95.54,0,0,1-14.52-16h-2.13a8,8,0,0,0-8,8Z"/><path class="f803ce49-7d54-4ad9-a26d-ae8b0e79b0ec" d="M309.51,387.46a8,8,0,0,0,8,8h56a8,8,0,0,0,8-8h-32a95.5,95.5,0,0,1-35.75-6.95A7.92,7.92,0,0,0,309.51,387.46Z"/><path class="bbe909eb-5a36-48db-adf4-d0edf5e57f2b" d="M49.42,378.7h96v96h-96Z"/><path class="bff41e54-1464-41d2-b1e2-c7bf59ef0b32" d="M89.42,394.7v-16h-40v96h96v-24A56,56,0,0,1,89.42,394.7Z"/><path class="e70ebfe6-6b6e-4c3f-b51b-46df60d1ffc1" d="M81.42,378.7h32v32h-32Z"/><path class="a045244d-ab87-4d22-a0b6-987f97834fbc" d="M91.77,410.7a56,56,0,0,1-2.35-16v-16h-8v32Z"/><path class="bff41e54-1464-41d2-b1e2-c7bf59ef0b32" d="M453.51,131.46a48,48,0,0,0-48,48c0,48,48,80,48,80s48-32,48-80A48,48,0,0,0,453.51,131.46Zm0,64a16,16,0,1,1,16-16A16,16,0,0,1,453.51,195.46Z"/><path class="bbe909eb-5a36-48db-adf4-d0edf5e57f2b" d="M427.55,184.88a78.82,78.82,0,0,1-5.39-19.75,53.83,53.83,0,0,1,2.11-23.67,47.87,47.87,0,0,0-18.76,38c0,48,48,80,48,80s32.57-21.79,44-56.32c-22.09,17.57-57.5,11.93-70-18.26Z"/></svg>