<svg id="b172b3ff-1a09-4e5a-953f-9edb02be5797" data-name="Layer 1" xmlns="http://www.w3.org/2000/svg" viewBox="0 0 566.93 566.93"><defs><style>.ada8569d-2b7e-4777-857e-f7e047e96a6a{fill:#4a4345;}.ac69c8ca-f5da-4939-8254-44f6d9a2980d{fill:#fecf0a;}.b980924d-912a-4952-82d3-191e7ed5eda7{fill:#231f20;}</style></defs><title>MVP_Journey</title><polygon class="ada8569d-2b7e-4777-857e-f7e047e96a6a" points="437.06 427.46 456.26 465.86 110.67 465.86 129.87 427.46 437.06 427.46"/><path class="ac69c8ca-f5da-4939-8254-44f6d9a2980d" d="M504.26,120.27v288a19.26,19.26,0,0,1-19.2,19.2H81.87a19.26,19.26,0,0,1-19.2-19.2v-288a19.26,19.26,0,0,1,19.2-19.2H485.06A19.26,19.26,0,0,1,504.26,120.27ZM350.66,369.86V158.67h-48v93.88l-38.39-93.88h-48v209a195.86,195.86,0,0,1,48-7.2V275.21l35.23,85.53a177,177,0,0,1,48.28,9.12Z"/><path class="b980924d-912a-4952-82d3-191e7ed5eda7" d="M302.66,252.55l48,117.31h-2.88a177,177,0,0,0-48.28-9.12l-35.23-85.53-48-116.54h48Z"/><path class="ada8569d-2b7e-4777-857e-f7e047e96a6a" d="M264.27,275.21v85.24a195.86,195.86,0,0,0-48,7.2v-209Z"/><polygon class="ada8569d-2b7e-4777-857e-f7e047e96a6a" points="350.66 158.67 350.66 369.86 302.66 252.55 302.66 158.67 350.66 158.67"/><polygon class="b980924d-912a-4952-82d3-191e7ed5eda7" points="437.06 427.46 129.87 427.46 120.27 446.66 446.66 446.66 437.06 427.46"/></svg>