<svg id="ab4da57b-14f4-4da3-a477-5acecec01b8e" data-name="Layer 1" xmlns="http://www.w3.org/2000/svg" viewBox="0 0 566.93 566.93"><defs><style>.f238e5d2-01d5-4f1f-bdff-b2829a2b4d72{fill:#fecf0a;}.a7ab1893-d44e-449f-8095-b962939082ef{fill:#e4ba22;}.bded809b-929e-444e-b79d-e294554fdae1{fill:#fee2cb;}.a98c31d2-8223-4fa4-b2c2-2b90725fe3a8{fill:#f8eae1;}.aa706cc6-978f-4678-a255-224a31b511a2{fill:#231f20;}.b914fe1f-0c27-4873-bd00-49b7dfcd1637{fill:#403e3e;}</style></defs><title>MVP_Journey</title><path class="f238e5d2-01d5-4f1f-bdff-b2829a2b4d72" d="M476.6,55.91H395.33l-32.5,12.45L330.32,55.91H249.05V381l113.78,12.45L476.6,381Z"/><path class="a7ab1893-d44e-449f-8095-b962939082ef" d="M476.6,381,362.83,393.43V68.36l32.5-12.45H476.6Z"/><path class="a7ab1893-d44e-449f-8095-b962939082ef" d="M249.05,218.45V381l98.26,10.75,9.85-3.56,12.5,4.51L476.6,381V218.45Z"/><path class="f238e5d2-01d5-4f1f-bdff-b2829a2b4d72" d="M362.83,390.22l6.83,2.46L383,391.22,476.6,381V218.45H362.83Z"/><path class="bded809b-929e-444e-b79d-e294554fdae1" d="M395.33,55.91v83.78l-32.5-18.76-32.51,18.76V55.91Z"/><path class="a98c31d2-8223-4fa4-b2c2-2b90725fe3a8" d="M395.33,55.91v83.78l-32.5-18.76v-65Z"/><path class="bded809b-929e-444e-b79d-e294554fdae1" d="M395.33,218.45v83.78l-32.5-18.77-32.51,18.77V218.45Z"/><path class="a98c31d2-8223-4fa4-b2c2-2b90725fe3a8" d="M395.33,218.45v83.78l-32.5-18.77v-65Z"/><path class="aa706cc6-978f-4678-a255-224a31b511a2" d="M511,381v65H117.12V99.85A17.29,17.29,0,0,0,99.85,82.58H55.91V55.91H99.85a44,44,0,0,1,43.94,43.94V381Z"/><path class="b914fe1f-0c27-4873-bd00-49b7dfcd1637" d="M314.07,381H511v65H314.07Z"/><circle class="b914fe1f-0c27-4873-bd00-49b7dfcd1637" cx="184.04" cy="478.51" r="32.51"/><circle class="b914fe1f-0c27-4873-bd00-49b7dfcd1637" cx="444.1" cy="478.51" r="32.51"/></svg>