<svg id="fd30ee7d-81c0-4e40-aadc-9dfcbb1f1654" data-name="Layer 1" xmlns="http://www.w3.org/2000/svg" viewBox="0 0 566.93 566.93"><defs><style>.e83e006b-0fc4-4887-95d9-dbc216720e97{fill:#4a4345;}.b4250a5f-7f48-48ab-9bab-1a4cc3d55f39{fill:#fed7a7;}.b386b672-14b5-4789-b427-d1c8bbcf3914{fill:#fecf0a;}.b1c5c795-5331-465e-be86-421bdd94cea5{fill:#e4ba22;}.b9345be3-d697-4630-b2a7-5611d83f767a{fill:#231f20;}</style></defs><title>MVP_Journey</title><path class="e83e006b-0fc4-4887-95d9-dbc216720e97" d="M423,420.13a7.38,7.38,0,0,0,9.85,3.35l35.81-17.63A7.35,7.35,0,0,0,472,396l-47.4-96.35a7.37,7.37,0,0,0-9.84-3.36l-35.81,17.63a7.37,7.37,0,0,0-3.36,9.85l4.34,8.89c-10.17,3.57-30.56,4.67-69.36-11.08-66.1-26.85-101.14,56.64-101.14,69.53,0,13.39,37,15.84,58.88-22.85l119.93,75.21a74.91,74.91,0,0,1,30.6-31.7Z"/><path class="e83e006b-0fc4-4887-95d9-dbc216720e97" d="M391.2,445.36,268.25,368.25l-41.7-15.77a82.29,82.29,0,0,1-31.45-14.64l1.24-2.16a7.36,7.36,0,0,0-2.7-10.06l-34.66-20a7.37,7.37,0,0,0-10.07,2.69l-53.72,93a7.37,7.37,0,0,0,2.7,10.06h0l34.67,20a7.37,7.37,0,0,0,10.06-2.7h0l1.93-3.34L169.85,444l96.72,57.27,24.74,14.93a14.11,14.11,0,0,0,19.29-4.76,14.49,14.49,0,0,0,2-7.23A14.17,14.17,0,0,0,306,492.23l11.83,7.13a14,14,0,0,0,15-23.71l-.51-.31,12,7.23a14,14,0,1,0,14.51-24l18,10.81A14,14,0,0,0,396,464.66l0,0a13.91,13.91,0,0,0-4.86-19.27Z"/><path class="b4250a5f-7f48-48ab-9bab-1a4cc3d55f39" d="M195.08,337.84h0Z"/><path class="b386b672-14b5-4789-b427-d1c8bbcf3914" d="M391.2,445.36,268.25,368.25l-41.7-15.77a81.13,81.13,0,0,1-31.45-14.64l-50.55,87.48L169.85,444l96.72,57.27,24.74,14.93a14.11,14.11,0,0,0,19.29-4.76,14.49,14.49,0,0,0,2-7.23A14.17,14.17,0,0,0,306,492.23l11.83,7.13a14,14,0,0,0,15-23.71l-.51-.31,12,7.23a14,14,0,1,0,14.51-24l18,10.81A14,14,0,0,0,396,464.66l0,0a13.91,13.91,0,0,0-4.86-19.27Z"/><path class="b1c5c795-5331-465e-be86-421bdd94cea5" d="M314.25,464.45l30.28,18.25a14,14,0,0,0,13.74.09l-40.42-24.35Z"/><path class="b1c5c795-5331-465e-be86-421bdd94cea5" d="M338.49,438.3l-3.61,6,24.68,14.86c-.26-.19-.49-.41-.76-.58l18,10.81a14.06,14.06,0,0,0,13.91.3Z"/><path class="b1c5c795-5331-465e-be86-421bdd94cea5" d="M287.71,481.17l30.51,18.39a14,14,0,0,0,13.63,0l-40.49-24.39Z"/><path class="b1c5c795-5331-465e-be86-421bdd94cea5" d="M266.35,476.9a20.89,20.89,0,0,0-10-3.62,20.89,20.89,0,0,0-20.08-21.68,20.59,20.59,0,0,0-3.68.18A20.86,20.86,0,0,0,208.39,436a21.55,21.55,0,0,0-4.37,1.31,21,21,0,0,0-36.21-2.68l-3.58,5.21,5.62,4.14,6.05,3.6,3.44-5a7,7,0,0,1,11.56,7.93l11.54,8v0l3.95-5.75a6.94,6.94,0,0,1,4.5-2.9,7,7,0,0,1,7,10.84l-5.78,8.4,12.12,7.16,5.24-7.61a7,7,0,1,1,11.59,7.94l-4,5.77,11.54,8a7,7,0,0,1,11.8,7.37l6.11,3.62,5.92,3.57,18.92,11.41a14,14,0,0,0,13.88.18L275,498.08a20.88,20.88,0,0,0-8.62-21.18Z"/><rect class="b386b672-14b5-4789-b427-d1c8bbcf3914" x="160.09" y="438.38" width="42.07" height="28.04" rx="13.81" transform="translate(-294.23 345.14) rotate(-55.47)"/><rect class="b386b672-14b5-4789-b427-d1c8bbcf3914" x="181.67" y="451.39" width="49.08" height="28.04" rx="13.81" transform="translate(-294.1 371.45) rotate(-55.47)"/><rect class="b386b672-14b5-4789-b427-d1c8bbcf3914" x="210.26" y="464.4" width="42.07" height="28.04" rx="13.81" transform="translate(-293.95 397.76) rotate(-55.47)"/><rect class="b386b672-14b5-4789-b427-d1c8bbcf3914" x="234.88" y="483.19" width="35.05" height="28.04" rx="13.81" transform="translate(-300.28 423.28) rotate(-55.47)"/><path class="e83e006b-0fc4-4887-95d9-dbc216720e97" d="M366.58,169.9l-30.87-25.74C330,90.61,283.3,48.77,283.3,48.77s-46.72,41.84-52.42,95.39L200,169.9v45.42l35.64-23.75a139.25,139.25,0,0,0,12.18,31.32h70.92a139.7,139.7,0,0,0,12.17-31.32l35.65,23.75Z"/><path class="b386b672-14b5-4789-b427-d1c8bbcf3914" d="M430.26,391.41l12.56-6.17,6.5,13.21-12.56,6.18Z"/><path class="b386b672-14b5-4789-b427-d1c8bbcf3914" d="M318.76,222.89a156.06,156.06,0,0,0,17.53-68.13c0-58.54-53-106-53-106s-53,47.45-53,106a156.07,156.07,0,0,0,17.54,68.13Z"/><circle class="b9345be3-d697-4630-b2a7-5611d83f767a" cx="283.3" cy="154.76" r="22.71"/><path class="b9345be3-d697-4630-b2a7-5611d83f767a" d="M253,238h15.15v30.28H253Z"/><path class="b9345be3-d697-4630-b2a7-5611d83f767a" d="M298.44,238h15.14v30.28H298.44Z"/><path class="b9345be3-d697-4630-b2a7-5611d83f767a" d="M275.73,253.18h15.14v30.28H275.73Z"/><path class="b386b672-14b5-4789-b427-d1c8bbcf3914" d="M379.9,332.67c-10.17,3.57-30.56,4.67-69.36-11.08-66.1-26.85-101.14,56.64-101.14,69.53,0,13.39,37,15.84,58.88-22.85l119.93,75.21a74.91,74.91,0,0,1,30.6-31.7Z"/><path class="b1c5c795-5331-465e-be86-421bdd94cea5" d="M392.51,436.55l-3.37-2.1v0l-47.55-29.8a65.2,65.2,0,0,0,8.9-7.35,52.31,52.31,0,0,0,8.55-10.6l-6.1-3.5a48.56,48.56,0,0,1-8.62,10.23,60.44,60.44,0,0,1-9.3,7.09l-65.87-41.29c-20.55,36.34-54.47,36.38-58.47,25.13a26.71,26.71,0,0,0-1.31,6.69c0,13.39,37,15.84,58.88-22.85L326.8,405l7,4.42,54.35,34.07c1.47-2.46,2.91-4.74,4.35-6.9Z"/></svg>