<svg id="a9afab5d-8772-41a5-a11f-d3516a8add91" data-name="Layer 1" xmlns="http://www.w3.org/2000/svg" viewBox="0 0 566.93 566.93"><defs><style>.a25147fb-b30e-4864-b2d9-987a1f47437b{fill:#4a4345;}.e158b1ba-7f4d-4fcc-bf88-425e65980664{fill:#231f20;}.b3031d55-120a-403a-a6f0-8ad770347cbd{fill:#fecf0a;}.a2eea18e-7bcd-4c0b-afff-ef15fdaa7588{fill:#edf0f1;}.e90ccc48-ca8b-4893-8d5e-b58804cedccf{fill:#fff;}.a4ed9515-9642-4587-af36-dbcdf2c90295{fill:#e4ba22;}</style></defs><title>MVP_Journey</title><rect class="a25147fb-b30e-4864-b2d9-987a1f47437b" x="67.08" y="67.08" width="276.07" height="253.69" rx="14.92"/><path class="e158b1ba-7f4d-4fcc-bf88-425e65980664" d="M379.72,193.93H306.6a271,271,0,0,1,27.08-47.31,11.58,11.58,0,0,1,18.95,0,271.08,271.08,0,0,1,27.09,47.31Z"/><path class="b3031d55-120a-403a-a6f0-8ad770347cbd" d="M395.39,261.08a206.47,206.47,0,0,1-29.85,104.46H320.77a206.46,206.46,0,0,1-29.84-104.46,169.91,169.91,0,0,1,15.67-67.15h73.12a170.08,170.08,0,0,1,15.67,67.15Z"/><path class="a25147fb-b30e-4864-b2d9-987a1f47437b" d="M365.54,365.54A47.51,47.51,0,0,1,387.46,393a7.52,7.52,0,0,1-7.5,9.85h-73.6a7.51,7.51,0,0,1-7.51-9.85,47.55,47.55,0,0,1,21.92-27.46"/><path class="e158b1ba-7f4d-4fcc-bf88-425e65980664" d="M303.46,329.43a70.64,70.64,0,0,0-38.2,26.19,6.54,6.54,0,0,1-11.64-4.11V320.85a37.32,37.32,0,0,1,37.23-37.39h1.42"/><path class="e158b1ba-7f4d-4fcc-bf88-425e65980664" d="M394,283.46h1.35a37.31,37.31,0,0,1,37.3,37.31v30.74a6.54,6.54,0,0,1-11.64,4.11,70.61,70.61,0,0,0-38.2-26.19"/><path class="a2eea18e-7bcd-4c0b-afff-ef15fdaa7588" d="M499.85,484.92a15,15,0,0,1-14.93,14.93H201.39a14.93,14.93,0,0,1,0-29.85h7.46a15,15,0,0,1,14.92-14.92,14.67,14.67,0,0,1,8.36,2.54,14.85,14.85,0,0,1,14-10,14.5,14.5,0,0,1,10.22,4.1A22.31,22.31,0,0,1,276,440.16a22,22,0,0,1,16.34,7.16,22.28,22.28,0,0,1,21-14.63V402.85H373v29.84a22.28,22.28,0,0,1,21,14.63,22.07,22.07,0,0,1,16.34-7.16,22.31,22.31,0,0,1,19.62,11.56,14.51,14.51,0,0,1,10.23-4.1,14.85,14.85,0,0,1,14,10,14.67,14.67,0,0,1,8.36-2.54A15,15,0,0,1,477.46,470h7.46A15,15,0,0,1,499.85,484.92Z"/><circle class="e90ccc48-ca8b-4893-8d5e-b58804cedccf" cx="134.24" cy="134.23" r="37.31"/><circle class="e90ccc48-ca8b-4893-8d5e-b58804cedccf" cx="134.24" cy="246.16" r="37.31"/><circle class="e90ccc48-ca8b-4893-8d5e-b58804cedccf" cx="343.16" cy="238.7" r="14.92" transform="translate(32 517.83) rotate(-76.72)"/><path class="a25147fb-b30e-4864-b2d9-987a1f47437b" d="M350.62,290.93H335.7a7.47,7.47,0,1,1,0-14.93h14.92a7.47,7.47,0,0,1,0,14.93Z"/><path class="e90ccc48-ca8b-4893-8d5e-b58804cedccf" d="M343.16,380.46A7.46,7.46,0,0,1,335.7,373V313.31a7.46,7.46,0,1,1,14.92,0V373A7.46,7.46,0,0,1,343.16,380.46Z"/><path class="e90ccc48-ca8b-4893-8d5e-b58804cedccf" d="M313.31,417.77a29.77,29.77,0,0,1,19.9,7.6,7.46,7.46,0,0,1-9.85,11.21l-.1-.09a15,15,0,0,0-9.95-3.8Z"/><path class="e90ccc48-ca8b-4893-8d5e-b58804cedccf" d="M328.23,477.46a7.37,7.37,0,0,1-5-1.9,14.92,14.92,0,0,0-9.95-3.8,7.46,7.46,0,1,1,0-14.92,29.77,29.77,0,0,1,19.9,7.6,7.46,7.46,0,0,1-5,13Z"/><path class="e90ccc48-ca8b-4893-8d5e-b58804cedccf" d="M358.08,477.46a7.46,7.46,0,0,1-5-13,29.83,29.83,0,0,1,19.9-7.61,7.46,7.46,0,0,1,0,14.92,15,15,0,0,0-9.94,3.79A7.33,7.33,0,0,1,358.08,477.46Z"/><path class="e90ccc48-ca8b-4893-8d5e-b58804cedccf" d="M373,432.69a14.93,14.93,0,0,0-9.94,3.8,7.46,7.46,0,0,1-10-11.12,29.77,29.77,0,0,1,19.9-7.6Z"/><path class="b3031d55-120a-403a-a6f0-8ad770347cbd" d="M132.24,149.16a7.44,7.44,0,0,1-4.62-1.61l-5.47-4.3a7.46,7.46,0,0,1,8.15-12.43l5.09-8a7.46,7.46,0,1,1,12.61,8l-9.46,14.92a7.48,7.48,0,0,1-5,3.36A7.66,7.66,0,0,1,132.24,149.16Z"/><path class="b3031d55-120a-403a-a6f0-8ad770347cbd" d="M132.24,261.08a7.49,7.49,0,0,1-4.62-1.6l-5.47-4.31a7.46,7.46,0,0,1,8.15-12.43l5.09-8a7.46,7.46,0,1,1,12.61,8l-9.46,14.92a7.48,7.48,0,0,1-5,3.36A7.66,7.66,0,0,1,132.24,261.08Z"/><path class="a4ed9515-9642-4587-af36-dbcdf2c90295" d="M313.31,111.85H253.62a7.46,7.46,0,0,1,0-14.92h59.69a7.46,7.46,0,0,1,0,14.92Z"/><path class="a4ed9515-9642-4587-af36-dbcdf2c90295" d="M223.77,111.85H201.39a7.46,7.46,0,1,1,0-14.92h22.38a7.46,7.46,0,0,1,0,14.92Z"/><path class="a4ed9515-9642-4587-af36-dbcdf2c90295" d="M305.85,141.7H238.7a7.47,7.47,0,1,1,0-14.93h67.15a7.47,7.47,0,0,1,0,14.93Z"/><path class="a4ed9515-9642-4587-af36-dbcdf2c90295" d="M208.85,141.7h-7.46a7.47,7.47,0,0,1,0-14.93h7.46a7.47,7.47,0,0,1,0,14.93Z"/><path class="a4ed9515-9642-4587-af36-dbcdf2c90295" d="M283.46,171.54H201.39a7.46,7.46,0,0,1,0-14.92h82.07a7.46,7.46,0,1,1,0,14.92Z"/><path class="a4ed9515-9642-4587-af36-dbcdf2c90295" d="M268.54,223.77H253.62a7.46,7.46,0,0,1,0-14.92h14.92a7.46,7.46,0,0,1,0,14.92Z"/><path class="a4ed9515-9642-4587-af36-dbcdf2c90295" d="M223.77,223.77H201.39a7.46,7.46,0,1,1,0-14.92h22.38a7.46,7.46,0,0,1,0,14.92Z"/><path class="a4ed9515-9642-4587-af36-dbcdf2c90295" d="M261.08,253.62H238.7a7.46,7.46,0,1,1,0-14.92h22.38a7.46,7.46,0,1,1,0,14.92Z"/><path class="a4ed9515-9642-4587-af36-dbcdf2c90295" d="M208.85,253.62h-7.46a7.46,7.46,0,1,1,0-14.92h7.46a7.46,7.46,0,0,1,0,14.92Z"/><path class="a4ed9515-9642-4587-af36-dbcdf2c90295" d="M238.7,283.46H201.39a7.46,7.46,0,0,1,0-14.92H238.7a7.46,7.46,0,1,1,0,14.92Z"/><path class="e90ccc48-ca8b-4893-8d5e-b58804cedccf" d="M276,477.46a7.46,7.46,0,0,1-7.46,7.46,7.47,7.47,0,0,0-7.46,7.47,8,8,0,0,0,1,3.73,7.41,7.41,0,0,1,1,3.73H247.5a21.16,21.16,0,0,1-1.34-7.46A22.45,22.45,0,0,1,268.54,470a7.46,7.46,0,0,1,7.46,7.46Z"/><path class="e90ccc48-ca8b-4893-8d5e-b58804cedccf" d="M440.16,492.39a21.4,21.4,0,0,1-1.35,7.46H423.22a7.41,7.41,0,0,1,1-3.73,7.88,7.88,0,0,0,1-3.73,7.47,7.47,0,0,0-7.46-7.47,7.46,7.46,0,1,1,0-14.92A22.46,22.46,0,0,1,440.16,492.39Z"/></svg>