<svg id="fe2a7618-eb6e-4a02-9448-3bb2960766e6" data-name="Layer 1" xmlns="http://www.w3.org/2000/svg" viewBox="0 0 103 103"><defs><style>.a1f53434-8b8e-48f4-a95f-33a781dce137{fill:#e40914;}</style></defs><title>LOGO</title><circle cx="51.5" cy="51.5" r="51.5"/><path class="a1f53434-8b8e-48f4-a95f-33a781dce137" d="M63.51,59.06h-.37c-.13,0-.27,0-.4,0h-.42a3.1,3.1,0,0,0-.43,0h-.45a4.32,4.32,0,0,0-.5,0c-.38,0-.38,0-.38-.41V41.87c0-.07,0-.14,0-.22s.12,0,.17,0h2.75c.2,0,.2,0,.2.2v14c0,.07,0,.14,0,.2a6.59,6.59,0,0,0,1,.07c1.39.09,2.77.17,4.16.24.11,0,.13.05.13.15v2.78c0,.07,0,.15-.1.15s-.19,0-.28,0h-.25c-.09,0-.19,0-.28,0l-.28,0c-.09,0-.19,0-.28,0h-.31c-.1,0-.2,0-.29,0h-.31c-.1,0-.2,0-.29,0H66c-.11,0-.24,0-.35,0h-.31c-.11,0-.22,0-.33,0h-.35c-.11,0-.23,0-.35,0h-.38C63.78,59,63.64,59.09,63.51,59.06Z"/><path class="a1f53434-8b8e-48f4-a95f-33a781dce137" d="M24.86,41.65q0,9.16,0,18.32c0,.06.06.16-.06.18s-.13,0-.18,0a2,2,0,0,0-.49,0c-.06,0-.13,0-.18,0l-.81.08c-.06,0-.12,0-.18,0h-.14s-.12,0-.18,0c-.35,0-.7.08-1.05.1a.14.14,0,0,1-.18-.11c-.23-.71-.48-1.4-.72-2.1s-.57-1.63-.85-2.45L19,53.51c-.28-.81-.56-1.62-.85-2.43l-.23-.66c-.08,0,0,.1,0,.15V60.74a.49.49,0,0,1,0,.21l-1.67.22L15,61.34l-.12,0c-.09,0-.14,0-.14-.09a.65.65,0,0,0,0-.14V41.66s.08,0,.12,0h2.74a.18.18,0,0,1,.1,0l4,11h.05v-11s.07,0,.11,0h2.87A.17.17,0,0,1,24.86,41.65Z"/><path class="a1f53434-8b8e-48f4-a95f-33a781dce137" d="M82.6,46.81,83.37,45q.7-1.6,1.38-3.21a.25.25,0,0,1,.28-.17h3c.22,0,.22,0,.14.2q-1.95,4.48-3.88,9a.4.4,0,0,0,0,.32q2,5,3.89,10a.51.51,0,0,1,.06.22l-1.31-.18-2-.27a.26.26,0,0,1-.23-.17q-1.08-2.82-2.18-5.64c-.07,0-.07.1-.1.16-.7,1.63-1.41,3.26-2.11,4.9a.22.22,0,0,1-.28.16c-1-.11-1.91-.2-2.87-.3-.2,0-.2,0-.12-.21l3.78-8.73a.47.47,0,0,0,0-.35Q79,46.27,77.3,41.82c-.06-.16,0-.18.12-.18h3a.26.26,0,0,1,.29.19q.93,2.43,1.88,4.85A.79.79,0,0,0,82.6,46.81Z"/><path class="a1f53434-8b8e-48f4-a95f-33a781dce137" d="M29.47,59.72H29.3c-.08,0-.16,0-.23,0h-.2c-.07,0-.14,0-.21,0h-.17c-.08,0-.15,0-.22,0h-.21c-.06,0-.12,0-.18,0s-.06,0-.06,0V41.65c.06,0,.12,0,.19,0h8.22c.2,0,.2,0,.2.21v2.68c0,.23,0,.21-.22.21H31.14c-.21,0-.21,0-.21.21,0,1.25,0,2.5,0,3.75,0,.06,0,.12,0,.17h.67c.56,0,1.12,0,1.68,0a.4.4,0,0,0,.19,0H35c.13,0,.16,0,.16.15,0,.92,0,1.83,0,2.75,0,.12,0,.16-.16.16h-2.1c-.36,0-.72,0-1.08,0a.45.45,0,0,0-.2,0H31c0,.05,0,.1,0,.15,0,1.43,0,2.85,0,4.27,0,0,0,.1,0,.15a.7.7,0,0,0,.25,0c.07,0,.15,0,.22,0h.24c.08,0,.17,0,.25,0h.21c.08,0,.17,0,.25,0h.24c.08,0,.17,0,.25,0h.24c.09,0,.17,0,.26,0h.24c.09,0,.19,0,.28,0h.25c.09,0,.19,0,.28,0h.24c.1,0,.2,0,.29,0h.28c.09,0,.19,0,.29,0h.27c.11,0,.22,0,.32,0h.28c.06,0,0,.06,0,.1v2.91a.08.08,0,0,1,0,.06h-.28c-.1,0-.21,0-.32,0h-.28c-.09,0-.19,0-.29,0H35c-.09,0-.19,0-.29,0H34.4c-.08,0-.17,0-.25,0l-.27,0c-.09,0-.17,0-.25,0h-.25c-.08,0-.17,0-.25,0h-.24c-.08,0-.17,0-.26,0H32.4c-.09,0-.18,0-.26,0H31.9c-.07,0-.15,0-.22,0h-.24c-.07,0-.15,0-.22,0l-.23,0c-.07,0-.15,0-.22,0h-.21c-.07,0-.15,0-.22,0h-.23c-.07,0-.15,0-.22,0h-.21C29.61,59.72,29.54,59.68,29.47,59.72Z"/><path class="a1f53434-8b8e-48f4-a95f-33a781dce137" d="M53.06,44.75c0,.5,0,1,0,1.51,0,.76,0,1.52,0,2.27,0,.13,0,.17.16.17h3.86c.15,0,.18,0,.18.18v2.71c0,.14,0,.18-.17.18H53.21c-.14,0-.17,0-.17.17q0,3.44,0,6.85c-1,0-2.07,0-3.1,0V41.65a.32.32,0,0,1,.17,0H58.4c.2,0,.2,0,.2.2,0,.91,0,1.82,0,2.73,0,.14,0,.17-.18.17H53.25C53.18,44.73,53.12,44.71,53.06,44.75Z"/><path class="a1f53434-8b8e-48f4-a95f-33a781dce137" d="M44.74,44.75c0,.07,0,.14,0,.21V58.58c0,.29,0,.29-.28.29h-.11c-.21,0-.42,0-.64,0h-.56c-.18,0-.36,0-.54,0h-.51a2.36,2.36,0,0,1-.46,0V44.89s0-.09,0-.14a.31.31,0,0,0-.19,0H38.57c-.06,0-.12,0-.18,0v-3s.11,0,.17,0H47.8a.32.32,0,0,1,.17,0v3.06c-.06,0-.12,0-.19,0H44.93A.31.31,0,0,0,44.74,44.75Z"/><path class="a1f53434-8b8e-48f4-a95f-33a781dce137" d="M74.61,50.72q0,4.44,0,8.89c0,.15,0,.19-.19.18-.92-.09-1.84-.17-2.76-.23-.14,0-.16-.06-.16-.19V41.84c0-.17,0-.2.2-.2H74.4c.17,0,.22,0,.22.2Q74.6,46.28,74.61,50.72Z"/></svg>