<svg id="b76f476a-9d6d-4849-834b-4e01ae89688f" data-name="Layer 1" xmlns="http://www.w3.org/2000/svg" viewBox="0 0 1080 1080"><defs><style>.b7fa990d-38e4-48c2-9628-6a3d1fc9ef45{fill:#010101;}</style></defs><title>Untitled-1</title><path class="b7fa990d-38e4-48c2-9628-6a3d1fc9ef45" d="M133.89,308.64c1.75-8.73,3.24-17.69,5.48-26.41C165,186.55,285.62,139,369.58,191.79c6.23,4,12.21,12.2,13.21,19.43q12,80.71,21.43,161.69c.74,7.23-4,16.95-9.47,22.93-15.45,17.19-32.64,32.88-48.83,49.82-2.74,3-5.24,9.22-4.24,12.46,28.15,82.47,67.52,158,138.28,212.77,45.84,35.38,97.16,60.05,151.73,78.73,6.72,2.24,10.46.5,14.94-4.23,15.7-16.2,31.89-31.65,47.34-47.84,8.22-8.72,17.69-11.46,29.15-10,51.82,6.73,103.65,13,155.47,20.43,7.47,1,16.69,7.23,20.43,13.71,29.15,50.57,30.39,102.89,2.24,154.22-28.15,51.07-72.5,81.22-131.3,80-148.74-3.23-283.53-50.57-401.37-141.26C257.47,729.19,192.19,613.59,159.06,479.3c-11.46-46.09-15.7-93.93-23.42-141a66,66,0,0,0-1.75-9.71Z"/><path class="b7fa990d-38e4-48c2-9628-6a3d1fc9ef45" d="M946.11,522.9a34.09,34.09,0,0,0-2.25,4.24c-7.47,26.4-27.4,40.61-53.56,38.11-23.92-2.24-41.86-21.92-43.6-48.08C842,447.41,817.3,385.62,772,332.3c-52.57-62-119.83-97.91-200.31-110.37-30.15-4.73-48.58-29.15-43.85-57.3,4.74-27.41,30.15-44.35,59.55-39.86,182.87,28.4,321.89,164.68,353,346.31,2.24,12.95,3.73,26.16,5.73,39.11Z"/><path class="b7fa990d-38e4-48c2-9628-6a3d1fc9ef45" d="M764.48,511.94c0,27.9-16.94,47.58-41.61,51.82-23.42,4-46.09-9.47-54.06-33.63-13.95-42.36-37.87-77.24-74.25-102.9-11.46-8-24.16-14.7-36.62-20.68-26.16-12.71-37.62-39.86-26.66-65.28,11.21-25.66,39.86-36.62,66.77-24.66q121.83,54.93,163.69,181.87C763.23,503.72,764,509.7,764.48,511.94Z"/></svg>