<?xml version="1.0" encoding="utf-8"?>
<!-- Generator: Adobe Illustrator 16.0.0, SVG Export Plug-In . SVG Version: 6.00 Build 0)  -->
<!DOCTYPE svg PUBLIC "-//W3C//DTD SVG 1.1//EN" "http://www.w3.org/Graphics/SVG/1.1/DTD/svg11.dtd">
<svg version="1.1" id="Layer_1" xmlns="http://www.w3.org/2000/svg" xmlns:xlink="http://www.w3.org/1999/xlink" x="0px" y="0px"
	 width="245.367px" height="344.479px" viewBox="0 0 245.367 344.479" enable-background="new 0 0 245.367 344.479"
	 xml:space="preserve">
<g>
	<defs>
		<rect id="SVGID_1_" width="245.367" height="344.479"/>
	</defs>
	<clipPath id="SVGID_2_">
		<use xlink:href="#SVGID_1_"  overflow="visible"/>
	</clipPath>
	<path clip-path="url(#SVGID_2_)" fill-rule="evenodd" clip-rule="evenodd" d="M167.73,4.94V170.9c-3.41,0.56-6.711,1.43-9.87,2.59
		V9.871H9.87v276.25h115.89c0.37,0.52,0.76,1.03,1.15,1.54c2.34,3.05,5,5.84,7.92,8.33H4.93c-2.72,0-4.93-2.21-4.93-4.931V4.94
		C0,2.22,2.21,0,4.93,0h157.86C165.51,0,167.73,2.22,167.73,4.94"/>
	<path clip-path="url(#SVGID_2_)" fill-rule="evenodd" clip-rule="evenodd" d="M83.862,236.792c-8.168,0-14.801,6.633-14.801,14.802
		c0,8.168,6.633,14.801,14.801,14.801s14.801-6.633,14.801-14.801C98.663,243.425,92.03,236.792,83.862,236.792"/>
	<path clip-path="url(#SVGID_2_)" fill-rule="evenodd" clip-rule="evenodd" d="M83.862,167.73c-16.34,0-29.598,13.262-29.598,29.598
		c0,16.34,13.258,29.598,29.598,29.598s29.598-13.258,29.598-29.598C113.46,180.993,100.202,167.73,83.862,167.73"/>
	<path clip-path="url(#SVGID_2_)" fill-rule="evenodd" clip-rule="evenodd" d="M133.192,78.934h-9.867
		c-2.723,0-4.934,2.211-4.934,4.934c0,2.722,2.211,4.933,4.934,4.933h9.867c2.723,0,4.934-2.211,4.934-4.933
		C138.126,81.145,135.915,78.934,133.192,78.934"/>
	<path clip-path="url(#SVGID_2_)" fill-rule="evenodd" clip-rule="evenodd" d="M133.19,29.601H34.53c-2.72,0-4.94,2.21-4.94,4.94
		V64.13c0,2.73,2.22,4.94,4.94,4.94h98.661c2.72,0,4.939-2.21,4.939-4.94V34.541C138.13,31.811,135.91,29.601,133.19,29.601
		 M128.26,59.2h-88.8V39.47h88.8V59.2z"/>
	<path clip-path="url(#SVGID_2_)" d="M243.838,248.664c0.997-0.896,1.555-2.174,1.528-3.509c-0.026-1.336-0.631-2.591-1.653-3.439
		l-8.612-7.207c-0.271-0.225-0.362-0.597-0.229-0.926l4.228-10.393c0.504-1.235,0.449-2.628-0.151-3.818
		c-0.6-1.189-1.684-2.06-2.978-2.389l-10.883-2.746c-0.345-0.088-0.592-0.384-0.613-0.733l-0.697-11.217
		c-0.082-1.329-0.738-2.558-1.798-3.369s-2.419-1.122-3.719-0.856l-10.991,2.251c-0.344,0.07-0.706-0.091-0.874-0.394l-5.489-9.791
		c-0.646-1.169-1.766-1.996-3.069-2.271c-1.307-0.277-2.673,0.03-3.743,0.844l-8.935,6.796c-0.279,0.212-0.673,0.218-0.955,0.022
		l-9.191-6.443c-1.096-0.77-2.464-1.023-3.758-0.702c-1.293,0.323-2.383,1.19-2.987,2.381l-5.097,9.992
		c-0.168,0.321-0.515,0.497-0.854,0.442l-11.092-1.822c-1.316-0.215-2.657,0.148-3.684,0.999c-1.025,0.851-1.632,2.104-1.662,3.439
		l-0.253,11.211c-0.012,0.363-0.247,0.673-0.589,0.773l-10.767,3.176c-1.28,0.37-2.333,1.282-2.892,2.498
		c-0.557,1.217-0.559,2.611-0.006,3.819l4.642,10.245c0.144,0.311,0.063,0.683-0.196,0.918l-8.333,7.522
		c-0.986,0.894-1.538,2.172-1.512,3.508c0.025,1.335,0.625,2.591,1.645,3.447l8.626,7.207c0.263,0.219,0.357,0.594,0.229,0.912
		l-4.241,10.406c-0.503,1.229-0.447,2.618,0.154,3.81c0.602,1.193,1.688,2.067,2.987,2.396l10.883,2.745
		c0.345,0.089,0.591,0.387,0.613,0.734l0.697,11.205c0.081,1.336,0.735,2.568,1.795,3.381c1.055,0.81,2.412,1.124,3.723,0.857
		l2.948-0.605v47.793c0,1.862,1.823,3.165,3.583,2.571l26.057-21.563l25.486,21.537c1.76,0.608,3.608-0.696,3.608-2.557v-49.358
		l5.342,0.879c1.318,0.215,2.664-0.151,3.693-1.006c1.026-0.852,1.633-2.103,1.663-3.434l0.254-11.231
		c0.007-0.352,0.236-0.652,0.575-0.753l10.775-3.177c1.28-0.379,2.332-1.29,2.888-2.5c0.555-1.209,0.56-2.598,0.012-3.817
		l-4.642-10.221c-0.147-0.331-0.075-0.708,0.183-0.938L243.838,248.664z M231.864,258.694l4.644,10.225
		c0.131,0.291,0.055,0.543-0.003,0.668c-0.058,0.126-0.201,0.349-0.512,0.44l-10.77,3.178c-1.932,0.563-3.259,2.298-3.303,4.312
		l-0.253,11.23c-0.008,0.314-0.188,0.51-0.293,0.598c-0.108,0.089-0.336,0.232-0.655,0.179l-11.079-1.822
		c-1.99-0.319-3.939,0.664-4.847,2.455l-5.103,10.004c-0.144,0.281-0.387,0.38-0.52,0.413c-0.134,0.031-0.399,0.063-0.661-0.121
		l-9.194-6.437c-1.653-1.175-3.842-1.132-5.44,0.101l-8.936,6.796c-0.252,0.19-0.514,0.173-0.649,0.143
		c-0.134-0.027-0.381-0.115-0.536-0.394l-5.49-9.791c-0.824-1.487-2.359-2.367-3.997-2.367c-0.313,0-0.628,0.032-0.943,0.097
		l-11,2.254c-0.314,0.066-0.543-0.064-0.651-0.147c-0.108-0.084-0.296-0.274-0.315-0.604l-0.697-11.21
		c-0.129-2-1.521-3.677-3.469-4.176l-10.886-2.746c-0.315-0.08-0.468-0.3-0.53-0.424c-0.062-0.123-0.147-0.372-0.027-0.664
		l4.242-10.41c0.757-1.863,0.229-3.979-1.313-5.261l-8.62-7.203c-0.242-0.203-0.282-0.466-0.285-0.606
		c-0.003-0.14,0.027-0.405,0.262-0.617l8.337-7.527c1.498-1.366,1.936-3.508,1.098-5.314l-4.639-10.235
		c-0.13-0.286-0.054-0.538,0.003-0.663c0.058-0.124,0.198-0.346,0.505-0.436l10.77-3.177c1.918-0.56,3.251-2.285,3.315-4.313
		l0.255-11.229c0.007-0.321,0.185-0.515,0.289-0.603c0.106-0.088,0.327-0.228,0.644-0.176l11.09,1.824
		c1.973,0.325,3.918-0.658,4.85-2.455l5.104-10.004c0.146-0.288,0.389-0.386,0.521-0.419c0.134-0.033,0.396-0.06,0.659,0.126
		l9.196,6.447c1.643,1.146,3.823,1.102,5.426-0.109l8.938-6.799c0.261-0.196,0.525-0.18,0.661-0.151
		c0.132,0.028,0.377,0.116,0.535,0.403l5.491,9.793c0.973,1.749,2.954,2.659,4.94,2.269l11.003-2.254
		c0.311-0.059,0.538,0.066,0.648,0.15c0.109,0.085,0.297,0.272,0.315,0.588l0.697,11.222c0.128,2,1.52,3.678,3.469,4.177
		l10.886,2.746c0.308,0.078,0.457,0.295,0.519,0.416c0.063,0.123,0.148,0.374,0.025,0.674l-4.229,10.395
		c-0.76,1.867-0.231,3.987,1.313,5.273l8.615,7.21c0.244,0.204,0.285,0.459,0.287,0.594c0.003,0.136-0.028,0.396-0.272,0.613
		l-8.327,7.531C231.481,254.708,231.036,256.842,231.864,258.694"/>
	<path clip-path="url(#SVGID_2_)" d="M185.669,213.128c-18.33,0-33.188,14.859-33.188,33.188c0,18.328,14.857,33.187,33.188,33.187
		c18.329,0,33.188-14.858,33.188-33.187C218.857,227.988,203.998,213.128,185.669,213.128"/>
	<polygon clip-path="url(#SVGID_2_)" fill="#FFFFFF" points="204.318,237.748 198.984,232.415 181.824,249.574 172.353,240.102 
		167.02,245.436 181.801,260.218 181.824,260.193 181.849,260.218 	"/>
</g>
</svg>
