<?xml version="1.0" encoding="utf-8"?>
<!-- Generator: Adobe Illustrator 16.0.0, SVG Export Plug-In . SVG Version: 6.00 Build 0)  -->
<!DOCTYPE svg PUBLIC "-//W3C//DTD SVG 1.1//EN" "http://www.w3.org/Graphics/SVG/1.1/DTD/svg11.dtd">
<svg version="1.1" id="Layer_1" xmlns="http://www.w3.org/2000/svg" xmlns:xlink="http://www.w3.org/1999/xlink" x="0px" y="0px"
	 width="450.608px" height="434.634px" viewBox="0 0 450.608 434.634" enable-background="new 0 0 450.608 434.634"
	 xml:space="preserve">
<g>
	<defs>
		<rect id="SVGID_1_" width="450.608" height="434.634"/>
	</defs>
	<clipPath id="SVGID_2_">
		<use xlink:href="#SVGID_1_"  overflow="visible"/>
	</clipPath>
	<path clip-path="url(#SVGID_2_)" d="M363.375,143.388v-104c0-4.262,0.094-8.523,0-12.785c-0.38-14.68-11.841-26.141-26.521-26.52
		c-6.628-0.187-13.354,0-19.984,0h-113.75H74.4H35.189c-2.559,0-5.211-0.093-7.766,0C16.433,0.461,6.581,6.431,2.417,16.657
		c-3.79,9.281-1.989,21.973-1.989,31.824v58.25v117.64c0,3.031-0.094,6.063,0,9.095c0.285,13.543,10.133,25.102,23.867,26.52
		c11.367,1.138,23.301,0.188,34.668,0.188h117.54h89.789h13.355c6.063,0,6.063-9.474,0-9.474h-96.328h-87.52H39.064
		c-3.977,0-7.957,0.095-11.934,0c-9.851-0.187-17.145-7.483-17.43-17.332c-0.758-30.401,0-60.901,0-91.305v-109.4
		c0-2.938-0.285-6.25,0.285-9.188c1.703-8.714,9.282-13.641,17.809-13.733c8.622-0.094,17.145,0,25.762,0h115.36h124.36h36.371
		c2.274,0,4.547-0.094,6.821,0c9.944,0.285,17.051,7.671,17.237,17.522c0.759,35.047,0,70.185,0,105.32v10.989
		c0.188,5.968,9.66,5.968,9.66-0.188L363.375,143.388z"/>
	<path clip-path="url(#SVGID_2_)" d="M177.165,255.438v44.328c0.473-1.137,0.945-2.272,1.422-3.315
		c-21.973,18.561-43.949,37.222-65.828,55.789c-3.219,2.746-6.348,5.397-9.567,8.144c-4.64,3.978,2.082,10.609,6.727,6.728
		c15.344-12.979,30.594-25.953,45.938-38.932c8.523-7.199,16.953-14.396,25.48-21.594c1.515-1.23,3.695-2.652,4.734-4.355
		c1.61-2.746,0.664-7.957,0.664-10.987V255.44C186.638,249.281,177.165,249.281,177.165,255.438L177.165,255.438z"/>
	<path clip-path="url(#SVGID_2_)" d="M181.895,304.497c6.062,0,6.062-9.473,0-9.473
		C175.738,295.024,175.738,304.497,181.895,304.497"/>
	<path clip-path="url(#SVGID_2_)" d="M179.524,303.838c25.102,18.659,50.293,37.224,75.395,55.884
		c3.599,2.651,7.294,5.397,10.892,8.051c4.926,3.597,9.661-4.547,4.734-8.146c-25.103-18.659-50.292-37.224-75.396-55.883
		c-3.597-2.651-7.292-5.397-10.891-8.051C179.337,291.998,174.599,300.24,179.524,303.838"/>
	<path clip-path="url(#SVGID_2_)" d="M110.469,114.463H44.34l4.147,4.147V52.482l-4.147,4.147h66.129l-4.147-4.147v66.128
		c0,5.311,8.298,5.311,8.298,0V52.482c0-2.242-1.91-4.148-4.148-4.148H44.343c-2.241,0-4.147,1.909-4.147,4.148v66.128
		c0,2.242,1.909,4.148,4.147,4.148h66.129C115.78,122.761,115.78,114.463,110.469,114.463"/>
	<path clip-path="url(#SVGID_2_)" d="M111.896,205.37H45.767l4.148,4.147v-66.128l-4.148,4.147h66.129l-4.147-4.147v66.128
		c0,5.311,8.298,5.311,8.298,0v-66.128c0-2.242-1.91-4.148-4.148-4.148H45.771c-2.242,0-4.148,1.909-4.148,4.148v66.128
		c0,2.242,1.909,4.148,4.148,4.148h66.128C117.203,213.667,117.289,205.37,111.896,205.37"/>
	<polygon clip-path="url(#SVGID_2_)" points="98.366,76.405 92.78,70.819 74.808,88.791 64.888,78.871 59.302,84.457 74.783,99.938 
		74.808,99.913 74.833,99.938 	"/>
	<polygon clip-path="url(#SVGID_2_)" points="98.366,166.067 92.78,160.481 74.808,178.453 64.888,168.533 59.302,174.119 
		74.783,189.6 74.808,189.575 74.833,189.6 	"/>
	<rect x="124.75" y="56.819" clip-path="url(#SVGID_2_)" width="115.064" height="8.295"/>
	<rect x="124.75" y="74.861" clip-path="url(#SVGID_2_)" width="115.064" height="8.295"/>
	<rect x="124.75" y="92.904" clip-path="url(#SVGID_2_)" width="86.468" height="8.295"/>
	<rect x="124.75" y="156.263" clip-path="url(#SVGID_2_)" width="115.064" height="8.294"/>
	<rect x="124.75" y="174.305" clip-path="url(#SVGID_2_)" width="115.064" height="8.295"/>
	<rect x="124.75" y="192.348" clip-path="url(#SVGID_2_)" width="86.468" height="8.295"/>
	<path clip-path="url(#SVGID_2_)" fill-rule="evenodd" clip-rule="evenodd" d="M387.813,394.276c0,7.418-6.026,13.455-13.454,13.455
		c-7.43,0-13.456-6.037-13.456-13.455c0-7.429,6.026-13.465,13.456-13.465C381.786,380.812,387.813,386.848,387.813,394.276"/>
	<path clip-path="url(#SVGID_2_)" fill-rule="evenodd" clip-rule="evenodd" d="M401.268,344.936
		c0,14.856-12.055,26.911-26.909,26.911c-14.857,0-26.911-12.055-26.911-26.911c0-14.854,12.054-26.911,26.911-26.911
		C389.213,318.024,401.268,330.081,401.268,344.936"/>
	<path clip-path="url(#SVGID_2_)" fill-rule="evenodd" clip-rule="evenodd" d="M423.697,241.783c0,2.474-2.01,4.481-4.49,4.481
		h-8.966c-2.481,0-4.49-2.008-4.49-4.481s2.009-4.481,4.49-4.481h8.966C421.688,237.302,423.697,239.31,423.697,241.783"/>
	<path clip-path="url(#SVGID_2_)" fill-rule="evenodd" clip-rule="evenodd" d="M419.207,192.453h-89.699
		c-2.472,0-4.48,2.009-4.48,4.482v26.911c0,2.473,2.009,4.482,4.48,4.482h89.699c2.48,0,4.491-2.01,4.491-4.482v-26.911
		C423.698,194.462,421.688,192.453,419.207,192.453 M414.724,219.354h-80.732v-17.937h80.732V219.354z"/>
	<path clip-path="url(#SVGID_2_)" fill-rule="evenodd" clip-rule="evenodd" d="M446.118,165.542H302.598
		c-2.474,0-4.481,2.009-4.481,4.482v260.127c0,2.474,2.008,4.482,4.481,4.482h143.521c2.48,0,4.491-2.009,4.491-4.482V170.024
		C450.609,167.551,448.599,165.542,446.118,165.542 M441.635,425.661H307.089V174.506h134.546V425.661z"/>
	<path clip-path="url(#SVGID_2_)" fill-rule="evenodd" clip-rule="evenodd" d="M387.813,394.276c0,7.418-6.026,13.455-13.454,13.455
		c-7.43,0-13.456-6.037-13.456-13.455c0-7.429,6.026-13.465,13.456-13.465C381.786,380.812,387.813,386.848,387.813,394.276"/>
	<path clip-path="url(#SVGID_2_)" fill-rule="evenodd" clip-rule="evenodd" d="M401.268,344.936
		c0,14.856-12.055,26.911-26.909,26.911c-14.857,0-26.911-12.055-26.911-26.911c0-14.854,12.054-26.911,26.911-26.911
		C389.213,318.024,401.268,330.081,401.268,344.936"/>
	<path clip-path="url(#SVGID_2_)" fill-rule="evenodd" clip-rule="evenodd" d="M423.697,241.783c0,2.474-2.01,4.481-4.49,4.481
		h-8.966c-2.481,0-4.49-2.008-4.49-4.481s2.009-4.481,4.49-4.481h8.966C421.688,237.302,423.697,239.31,423.697,241.783"/>
	<path clip-path="url(#SVGID_2_)" fill-rule="evenodd" clip-rule="evenodd" d="M419.207,192.453h-89.699
		c-2.472,0-4.48,2.009-4.48,4.482v26.911c0,2.473,2.009,4.482,4.48,4.482h89.699c2.48,0,4.491-2.01,4.491-4.482v-26.911
		C423.698,194.462,421.688,192.453,419.207,192.453 M414.724,219.354h-80.732v-17.937h80.732V219.354z"/>
	<path clip-path="url(#SVGID_2_)" fill-rule="evenodd" clip-rule="evenodd" d="M387.813,394.276c0,7.418-6.026,13.455-13.454,13.455
		c-7.43,0-13.456-6.037-13.456-13.455c0-7.429,6.026-13.465,13.456-13.465C381.786,380.812,387.813,386.848,387.813,394.276"/>
	<path clip-path="url(#SVGID_2_)" fill-rule="evenodd" clip-rule="evenodd" d="M401.268,344.936
		c0,14.856-12.055,26.911-26.909,26.911c-14.857,0-26.911-12.055-26.911-26.911c0-14.854,12.054-26.911,26.911-26.911
		C389.213,318.024,401.268,330.081,401.268,344.936"/>
	<path clip-path="url(#SVGID_2_)" fill-rule="evenodd" clip-rule="evenodd" d="M423.697,241.783c0,2.474-2.01,4.481-4.49,4.481
		h-8.966c-2.481,0-4.49-2.008-4.49-4.481s2.009-4.481,4.49-4.481h8.966C421.688,237.302,423.697,239.31,423.697,241.783"/>
	<path clip-path="url(#SVGID_2_)" fill-rule="evenodd" clip-rule="evenodd" d="M419.207,192.453h-89.699
		c-2.472,0-4.48,2.009-4.48,4.482v26.911c0,2.473,2.009,4.482,4.48,4.482h89.699c2.48,0,4.491-2.01,4.491-4.482v-26.911
		C423.698,194.462,421.688,192.453,419.207,192.453 M414.724,219.354h-80.732v-17.937h80.732V219.354z"/>
</g>
</svg>
