<?xml version="1.0" encoding="utf-8"?>
<!-- Generator: Adobe Illustrator 16.0.0, SVG Export Plug-In . SVG Version: 6.00 Build 0)  -->
<!DOCTYPE svg PUBLIC "-//W3C//DTD SVG 1.1//EN" "http://www.w3.org/Graphics/SVG/1.1/DTD/svg11.dtd">
<svg version="1.1" id="Layer_1" xmlns="http://www.w3.org/2000/svg" xmlns:xlink="http://www.w3.org/1999/xlink" x="0px" y="0px"
	 width="436px" height="473.588px" viewBox="0 0 436 473.588" enable-background="new 0 0 436 473.588" xml:space="preserve">
<g>
	<defs>
		<rect id="SVGID_1_" y="0.001" width="436" height="473.58"/>
	</defs>
	<clipPath id="SVGID_2_">
		<use xlink:href="#SVGID_1_"  overflow="visible"/>
	</clipPath>
	<path clip-path="url(#SVGID_2_)" fill-rule="evenodd" clip-rule="evenodd" d="M267.34,463.721v4.934
		c0,2.722,2.211,4.933,4.934,4.933h138.13c2.723,0,4.93-2.211,4.93-4.933v-4.934h14.802c2.723,0,4.934-2.211,4.934-4.934v-69.062
		c0-2.724-2.211-4.935-4.934-4.935H252.544c-2.723,0-4.934,2.211-4.934,4.935v69.062c0,2.723,2.211,4.934,4.934,4.934H267.34z
		 M425.2,414.389H257.47v39.466h9.867v-19.731c0-2.722,2.211-4.933,4.934-4.933H410.4c2.723,0,4.93,2.211,4.93,4.933v19.731h9.867
		L425.2,414.389z M346.27,404.522H425.2v-9.863H346.27V404.522z M257.473,404.522h78.931v-9.863h-78.931V404.522z M168.676,93.732
		c0-2.723-2.211-4.934-4.934-4.934H5.882c-2.723,0-4.933,2.211-4.933,4.934v286.12c0,2.723,2.21,4.934,4.933,4.934h157.86
		c2.723,0,4.934-2.211,4.934-4.934V93.732z M158.808,374.915H10.818V98.666h147.99V374.915z M84.813,325.585
		c-8.168,0-14.801,6.634-14.801,14.802s6.632,14.801,14.801,14.801c8.168,0,14.801-6.633,14.801-14.801
		S92.981,325.585,84.813,325.585 M257.473,300.921h4.934c19.063,0,34.531,15.47,34.531,34.532c0,2.723,2.211,4.934,4.934,4.934
		s4.933-2.211,4.933-4.934c0-24.508-19.89-44.398-44.397-44.398h-4.934v-19.729c0-1.797-0.977-3.446-2.547-4.313
		c-1.566-0.867-3.48-0.82-5,0.129l-39.465,24.664c-1.442,0.898-2.321,2.487-2.321,4.184c0,1.695,0.879,3.285,2.321,4.183
		l39.465,24.664c1.52,0.95,3.434,0.996,5,0.129c1.57-0.866,2.547-2.515,2.547-4.312V300.921z M84.813,256.523
		c-16.341,0-29.598,13.263-29.598,29.598c0,16.34,13.257,29.599,29.598,29.599c16.34,0,29.597-13.259,29.597-29.599
		C114.41,269.786,101.153,256.523,84.813,256.523 M257.473,212.125v-19.733c0-1.793-0.977-3.442-2.547-4.309
		c-1.566-0.871-3.48-0.82-5,0.125l-39.465,24.668c-1.442,0.898-2.321,2.484-2.321,4.183c0,1.696,0.879,3.286,2.321,4.184
		l39.465,24.664c1.52,0.949,3.434,0.996,5,0.129c1.57-0.868,2.547-2.516,2.547-4.313v-19.729h4.934
		c24.508,0,44.397-19.892,44.397-44.399c0-2.723-2.21-4.933-4.933-4.933s-4.934,2.21-4.934,4.933
		c0,19.062-15.469,34.531-34.531,34.531L257.473,212.125z M134.142,167.728h-9.867c-2.722,0-4.933,2.211-4.933,4.934
		c0,2.723,2.211,4.934,4.933,4.934h9.867c2.724,0,4.934-2.211,4.934-4.934C139.076,169.938,136.866,167.728,134.142,167.728
		 M139.076,123.33c0-2.723-2.21-4.934-4.934-4.934H35.479c-2.723,0-4.934,2.211-4.934,4.934v29.597c0,2.723,2.211,4.934,4.934,4.934
		h98.663c2.724,0,4.934-2.211,4.934-4.934V123.33z M129.209,147.993H40.412v-19.73h88.797V147.993z M351.199,24.663h-9.867V4.933
		c0-2.723-2.211-4.934-4.934-4.934s-4.934,2.211-4.934,4.934v19.73h-9.863V4.933c0-2.723-2.211-4.934-4.934-4.934
		s-4.934,2.211-4.934,4.934v19.73h-9.867c-2.723,0-4.934,2.211-4.934,4.934v9.867h-19.73c-2.727,0-4.934,2.211-4.934,4.933
		c0,2.723,2.207,4.934,4.934,4.934h19.73v9.867h-19.73c-2.727,0-4.934,2.207-4.934,4.93c0,2.726,2.207,4.933,4.934,4.933h19.73
		v9.868h-19.73c-2.727,0-4.934,2.211-4.934,4.933c0,2.723,2.207,4.934,4.934,4.934h19.73v9.867c0,2.723,2.211,4.934,4.934,4.934
		h9.867v19.73c0,2.722,2.211,4.933,4.934,4.933s4.934-2.211,4.934-4.933v-19.73h9.863v19.73c0,2.722,2.211,4.933,4.934,4.933
		s4.934-2.211,4.934-4.933v-19.73h9.867v19.73c0,2.722,2.211,4.933,4.934,4.933s4.934-2.211,4.934-4.933v-19.73h9.862
		c2.728,0,4.935-2.211,4.935-4.934v-9.867h19.734c2.723,0,4.934-2.211,4.934-4.934c0-2.722-2.211-4.933-4.934-4.933h-19.734v-9.868
		h19.734c2.723,0,4.934-2.207,4.934-4.933c0-2.723-2.211-4.93-4.934-4.93h-19.734v-9.867h19.734c2.723,0,4.934-2.211,4.934-4.934
		c0-2.722-2.211-4.933-4.934-4.933h-19.734v-9.867c0-2.723-2.207-4.934-4.935-4.934h-9.862V4.933c0-2.723-2.211-4.934-4.934-4.934
		s-4.934,2.211-4.934,4.934V24.663z"/>
</g>
</svg>
