<?xml version="1.0" encoding="utf-8"?>
<!-- Generator: Adobe Illustrator 16.0.0, SVG Export Plug-In . SVG Version: 6.00 Build 0)  -->
<!DOCTYPE svg PUBLIC "-//W3C//DTD SVG 1.1//EN" "http://www.w3.org/Graphics/SVG/1.1/DTD/svg11.dtd">
<svg version="1.1" id="Layer_1" xmlns="http://www.w3.org/2000/svg" xmlns:xlink="http://www.w3.org/1999/xlink" x="0px" y="0px"
	 width="278.627px" height="336.65px" viewBox="0 0 278.627 336.65" enable-background="new 0 0 278.627 336.65"
	 xml:space="preserve">
<g>
	<defs>
		<rect id="SVGID_1_" width="278.627" height="336.65"/>
	</defs>
	<clipPath id="SVGID_2_">
		<use xlink:href="#SVGID_1_"  overflow="visible"/>
	</clipPath>
	<path clip-path="url(#SVGID_2_)" d="M274.205,312.409l-44.368-41.628c5.412-8.512,8.599-18.619,8.599-29.417
		c0-30.411-24.722-55.106-55.105-55.106c-8.085,0-15.764,1.746-22.685,4.885c-2.314,1.049-4.547,2.261-6.679,3.613
		c-15.438,9.763-25.708,26.995-25.708,46.608c0,9.742,2.544,18.903,7.003,26.853c1.305,2.334,2.78,4.566,4.411,6.678
		c10.067,13.091,25.892,21.541,43.658,21.541c10.832,0,20.905-3.187,29.45-8.599l41.602,44.396
		c2.611,2.794,6.164,4.357,10.014,4.417h0.243c3.728,0,7.246-1.44,9.892-4.119c2.713-2.706,4.188-6.313,4.093-10.135
		C278.563,318.573,276.999,315.027,274.205,312.409 M183.33,290.42c-14.086,0-26.812-5.974-35.763-15.526
		c-1.942-2.063-3.708-4.303-5.264-6.678c-5.075-7.72-8.031-16.948-8.031-26.853c0-16.055,7.747-30.337,19.694-39.294
		c2.104-1.584,4.337-2.991,6.679-4.223c6.785-3.559,14.505-5.575,22.685-5.575c27.076,0,49.091,22.022,49.091,49.092
		C232.421,268.406,210.399,290.42,183.33,290.42"/>
	<path clip-path="url(#SVGID_2_)" d="M221.023,239.829c-7.789-13.416-22.228-21.777-37.688-21.777
		c-15.46,0-29.898,8.361-37.688,21.777c-0.542,0.932-0.542,2.104,0,3.038c7.789,13.415,22.228,21.776,37.688,21.776
		c15.461,0,29.899-8.361,37.688-21.776C221.564,241.935,221.564,240.761,221.023,239.829 M183.334,253.244
		c-6.557,0-11.912-5.323-11.912-11.881c0-6.587,5.355-11.912,11.912-11.912c6.558,0,11.912,5.323,11.912,11.912
		C195.246,247.92,189.892,253.244,183.334,253.244"/>
	<path clip-path="url(#SVGID_2_)" fill-rule="evenodd" clip-rule="evenodd" d="M167.73,4.94V170.9c-3.41,0.56-6.711,1.43-9.87,2.59
		V9.87H9.87v276.25h115.89c0.37,0.521,0.76,1.03,1.15,1.54c2.34,3.05,5,5.84,7.92,8.33H4.93c-2.72,0-4.93-2.21-4.93-4.93V4.94
		C0,2.22,2.21,0,4.93,0h157.86C165.51,0,167.73,2.22,167.73,4.94"/>
	<path clip-path="url(#SVGID_2_)" fill-rule="evenodd" clip-rule="evenodd" d="M83.862,236.792c-8.168,0-14.801,6.633-14.801,14.802
		c0,8.168,6.633,14.801,14.801,14.801s14.801-6.633,14.801-14.801C98.663,243.424,92.03,236.792,83.862,236.792"/>
	<path clip-path="url(#SVGID_2_)" fill-rule="evenodd" clip-rule="evenodd" d="M83.862,167.73c-16.34,0-29.598,13.262-29.598,29.598
		c0,16.34,13.258,29.599,29.598,29.599s29.598-13.259,29.598-29.599C113.46,180.992,100.202,167.73,83.862,167.73"/>
	<path clip-path="url(#SVGID_2_)" fill-rule="evenodd" clip-rule="evenodd" d="M133.192,78.934h-9.867
		c-2.723,0-4.934,2.211-4.934,4.934c0,2.722,2.211,4.933,4.934,4.933h9.867c2.723,0,4.934-2.211,4.934-4.933
		C138.126,81.145,135.915,78.934,133.192,78.934"/>
	<path clip-path="url(#SVGID_2_)" fill-rule="evenodd" clip-rule="evenodd" d="M133.19,29.6H34.53c-2.72,0-4.94,2.21-4.94,4.94
		v29.59c0,2.73,2.22,4.94,4.94,4.94h98.66c2.72,0,4.94-2.21,4.94-4.94V34.54C138.13,31.81,135.91,29.6,133.19,29.6 M128.26,59.2
		h-88.8V39.47h88.8V59.2z"/>
</g>
</svg>
