<?xml version="1.0" encoding="utf-8"?>
<!-- Generator: Adobe Illustrator 16.0.0, SVG Export Plug-In . SVG Version: 6.00 Build 0)  -->
<!DOCTYPE svg PUBLIC "-//W3C//DTD SVG 1.1//EN" "http://www.w3.org/Graphics/SVG/1.1/DTD/svg11.dtd">
<svg version="1.1" id="Layer_1" xmlns="http://www.w3.org/2000/svg" xmlns:xlink="http://www.w3.org/1999/xlink" x="0px" y="0px"
	 width="383.796px" height="469.146px" viewBox="0 0 383.796 469.146" enable-background="new 0 0 383.796 469.146"
	 xml:space="preserve">
<g>
	<defs>
		<rect id="SVGID_1_" width="383.796" height="469.146"/>
	</defs>
	<clipPath id="SVGID_2_">
		<use xlink:href="#SVGID_1_"  overflow="visible"/>
	</clipPath>
	<path clip-path="url(#SVGID_2_)" d="M354.198,0h-324.6C13.317,0,0,13.32,0,29.597v409.951c0,16.28,13.32,29.598,29.598,29.598
		h324.6c16.28,0,29.598-13.32,29.598-29.598l-0.003-409.94C383.3,13.327,370.476,0.006,354.194,0.006L354.198,0z M364.065,439.05
		c0,5.426-4.441,9.867-9.867,9.867h-324.6c-5.426,0-9.867-4.441-9.867-9.867V29.6c0-5.425,4.441-9.867,9.867-9.867h324.6
		c5.426,0,9.867,4.442,9.867,9.867V439.05z"/>
	<path clip-path="url(#SVGID_2_)" d="M227.418,310.29l4.44,4.441l-1.972-1.973C228.897,311.77,228.405,311.274,227.418,310.29"/>
	<path clip-path="url(#SVGID_2_)" d="M147.998,380.839l74.492-74.491c-8.879-5.918-19.239-9.371-30.094-9.371
		c-14.305,0-27.625,5.426-37.984,15.785C135.666,331.016,133.689,359.628,147.998,380.839"/>
	<path clip-path="url(#SVGID_2_)" d="M235.809,320.16l-73.997,74.488c8.879,5.918,19.238,9.371,30.094,9.371
		c14.304,0,27.625-5.425,37.984-15.785C248.141,369.488,250.113,340.879,235.809,320.16"/>
	<path clip-path="url(#SVGID_2_)" d="M153.918,388.23c0.492,0.492,1.48,1.48,2.465,1.973l-4.442-4.441
		C152.934,386.75,153.426,387.738,153.918,388.23"/>
	<rect x="182.038" y="273.78" clip-path="url(#SVGID_2_)" width="19.734" height="12.332"/>
	<rect x="182.038" y="414.38" clip-path="url(#SVGID_2_)" width="19.734" height="12.332"/>
	<rect x="256.028" y="340.38" clip-path="url(#SVGID_2_)" width="12.332" height="19.733"/>
	<rect x="115.438" y="340.38" clip-path="url(#SVGID_2_)" width="12.332" height="19.733"/>
	
		<rect x="231.535" y="294.498" transform="matrix(0.7071 0.7071 -0.7071 0.7071 283.3061 -82.6342)" clip-path="url(#SVGID_2_)" width="19.733" height="12.33"/>
	
		<rect x="131.959" y="393.818" transform="matrix(0.707 0.7072 -0.7072 0.707 324.4244 16.8931)" clip-path="url(#SVGID_2_)" width="19.73" height="12.333"/>
	
		<rect x="235.468" y="390.239" transform="matrix(0.707 0.7072 -0.7072 0.707 353.7658 -53.6553)" clip-path="url(#SVGID_2_)" width="12.334" height="19.73"/>
	
		<rect x="136.134" y="290.665" transform="matrix(0.7073 0.7069 -0.7069 0.7073 254.1081 -12.6265)" clip-path="url(#SVGID_2_)" width="12.333" height="19.733"/>
	<path clip-path="url(#SVGID_2_)" d="M333.969,255.04c0,11.445-9.273,20.725-20.721,20.725c-11.439,0-20.718-9.278-20.718-20.725
		c0-11.439,9.277-20.719,20.718-20.719C324.694,234.321,333.969,243.599,333.969,255.04"/>
	<path clip-path="url(#SVGID_2_)" d="M91.268,255.04c0,11.445-9.277,20.725-20.723,20.725c-11.441,0-20.719-9.278-20.719-20.725
		c0-11.439,9.277-20.719,20.719-20.719C81.99,234.321,91.268,243.599,91.268,255.04"/>
	<path clip-path="url(#SVGID_2_)" d="M191.898,54.26c-78.438,0-142.07,63.637-142.07,142.07h103.1
		c0-18.746,13.32-34.039,30.586-37.984l21.707-64.625l18.746,6.414l-20.227,59.691c15.293,4.934,26.641,19.734,26.641,37h103.101
		c0.491-79.426-63.146-142.57-141.58-142.57L191.898,54.26z"/>
</g>
</svg>
