<?xml version="1.0" encoding="utf-8"?>
<!-- Generator: Adobe Illustrator 16.0.0, SVG Export Plug-In . SVG Version: 6.00 Build 0)  -->
<!DOCTYPE svg PUBLIC "-//W3C//DTD SVG 1.1//EN" "http://www.w3.org/Graphics/SVG/1.1/DTD/svg11.dtd">
<svg version="1.1" id="Layer_1" xmlns="http://www.w3.org/2000/svg" xmlns:xlink="http://www.w3.org/1999/xlink" x="0px" y="0px"
	 width="623.266px" height="500.044px" viewBox="0 0 623.266 500.044" enable-background="new 0 0 623.266 500.044"
	 xml:space="preserve">
<g>
	<defs>
		<rect id="SVGID_1_" width="623.266" height="500.044"/>
	</defs>
	<clipPath id="SVGID_2_">
		<use xlink:href="#SVGID_1_"  overflow="visible"/>
	</clipPath>
	<path clip-path="url(#SVGID_2_)" d="M311.477,500.034c-60.083-0.001-120.166,0.016-180.249-0.007
		c-36.356-0.014-64.247-28.364-62.798-64.597c0.471-11.766,2.87-23.464,4.543-35.171c3.77-26.38,7.474-52.77,11.514-79.107
		c3.341-21.776,16.488-35.226,37.029-41.965c12.825-4.208,26.058-7.438,38.439-12.685c40.236-17.051,61.969-48.224,67.341-91.237
		c0.403-3.225,0.833-6.46,0.952-9.702c0.101-2.76,0.942-4.222,3.988-4.486c15.273-1.325,30.505-3.402,45.803-4.132
		c30.544-1.459,61.107-1.135,91.6,1.506c6.856,0.593,13.656,1.814,20.512,2.453c3.523,0.328,4.712,1.766,4.943,5.332
		c0.974,15.008,3.987,29.618,9.779,43.559c10.843,26.098,30.077,44.069,55.477,55.353c11.577,5.143,23.789,9.132,36.041,12.417
		c20.36,5.459,35.226,16.485,41.074,37.369c1.881,6.715,2.482,13.802,3.49,20.744c4.408,30.358,8.709,60.731,13.127,91.087
		c4.861,33.401-14.512,63.838-45.758,71.302c-5.382,1.286-11.057,1.874-16.598,1.886
		C431.644,500.084,371.561,500.035,311.477,500.034 M311.482,421.541c43.556,0.134,78.928-34.621,79.139-77.758
		c0.211-43.236-35.111-78.398-78.85-78.493c-43.512-0.095-78.93,34.748-79.119,77.832
		C232.462,386.452,267.6,421.406,311.482,421.541"/>
	<path clip-path="url(#SVGID_2_)" d="M311.512,93.422c-28.109-0.28-56.179,0.579-84.026,4.779
		c-15.192,2.292-30.289,5.194-44.088,12.385c-3.869,2.016-7.495,4.695-10.786,7.579c-4.62,4.047-6.591,9.413-6.675,15.638
		c-0.154,11.432-0.059,22.908-1.051,34.28c-1.57,18.011-11.115,30.946-27.16,39.169c-14.063,7.207-29.227,10.76-44.647,13.381
		c-12.827,2.182-25.693,4.021-38.787,2.708c-26.144-2.623-42.41-16.333-49.374-41.661c-4.571-16.627-4.456-33.655-4.9-50.7
		c-0.33-12.699,3.918-23.388,11.414-33.172c8.793-11.477,19.621-20.774,31.409-28.982c31.637-22.031,66.817-36.338,103.624-46.907
		C207.504,4.391,269.907-1.585,333.219,0.348c44.474,1.358,88.372,6.873,131.444,18.189c40.083,10.53,78.501,25.076,113.103,48.427
		c12.774,8.621,24.512,18.444,33.984,30.752c7.612,9.893,11.883,20.706,11.492,33.536c-0.48,15.734-0.334,31.457-4.004,46.911
		c-6.888,28.995-24.357,44.396-54.012,45.338c-25.853,0.821-50.991-4.139-74.961-14.073c-21.058-8.727-31.648-24.911-32.515-47.515
		c-0.338-8.833-0.542-17.69-0.271-26.52c0.274-8.945-3.507-15.52-10.472-20.582c-9.345-6.791-20.142-10.157-31.186-12.773
		c-25.953-6.147-52.419-7.787-78.958-8.575C328.422,93.211,319.963,93.422,311.512,93.422"/>
</g>
</svg>
